<svg width="697" height="268" viewBox="0 0 697 268" fill="none" xmlns="http://www.w3.org/2000/svg">
<path d="M605.626 158.108C605.626 158.108 595.85 170.667 570.726 170.667C545.601 170.667 536.191 158.108 536.191 158.108V130.755H605.626V158.108Z" fill="url(#paint0_linear_513_17)"/>
<path opacity="0.4" d="M605.626 158.108C605.626 158.108 595.85 170.667 570.726 170.667C545.601 170.667 536.191 158.108 536.191 158.108V130.755H605.626V158.108Z" fill="url(#paint1_linear_513_17)"/>
<path d="M569.995 151.509L516.091 130.861L516 126.71L623.99 126.497V130.755L569.995 151.509Z" fill="#353535"/>
<path opacity="0.5" d="M569.995 151.509L516.091 130.861L516 126.71L623.99 126.497V130.755L569.995 151.509Z" fill="url(#paint2_linear_513_17)"/>
<path d="M569.995 147.358L516.091 126.71L569.995 110L624.081 126.497L569.995 147.358Z" fill="url(#paint3_linear_513_17)"/>
<path d="M622.254 125.433H571.365C570.452 125.433 569.63 126.178 569.538 127.136C569.356 128.413 570.269 129.584 571.274 129.584H618.6C619.605 129.584 620.427 130.542 620.427 131.712V190.251C620.427 191.315 621.066 192.273 621.889 192.486C622.985 192.699 623.99 191.634 623.99 190.464V127.562C624.081 126.391 623.259 125.433 622.254 125.433Z" fill="#FFB300"/>
<path d="M622.254 192.486C621.249 192.486 620.427 191.528 620.427 190.357V127.562C620.427 126.391 621.249 125.433 622.254 125.433C623.259 125.433 624.081 126.391 624.081 127.562V190.464C624.081 191.634 623.259 192.486 622.254 192.486Z" fill="#FFB300"/>
<path d="M620.427 201.958C618.417 201.958 614.945 199.085 615.037 196.743C615.037 195.998 615.493 195.04 616.042 194.295C617.869 191.634 619.605 188.229 619.605 184.823V180.991C619.605 179.82 620.427 178.862 621.432 178.862H623.168C624.173 178.862 624.995 179.82 624.995 180.991C624.995 180.991 626 190.889 624.081 197.808C622.711 200.149 622.437 201.958 620.427 201.958Z" fill="#FFB300"/>
<path d="M622.254 182.907C624.323 182.907 626 180.953 626 178.543C626 176.133 624.323 174.179 622.254 174.179C620.185 174.179 618.508 176.133 618.508 178.543C618.508 180.953 620.185 182.907 622.254 182.907Z" fill="#FFB300"/>
<path d="M622.254 192.486C621.249 192.486 620.427 191.528 620.427 190.357V127.562C620.427 126.391 621.249 125.433 622.254 125.433C623.259 125.433 624.081 126.391 624.081 127.562V190.464C624.081 191.634 623.259 192.486 622.254 192.486Z" fill="#FFB300"/>
<path d="M620.427 201.958C618.417 201.958 614.945 199.085 615.037 196.743C615.037 195.998 615.493 195.04 616.042 194.295C617.869 191.634 619.605 188.229 619.605 184.823V180.991C619.605 179.82 620.427 178.862 621.432 178.862H623.168C624.173 178.862 624.995 179.82 624.995 180.991C624.995 180.991 626 190.889 624.081 197.808C622.711 200.149 622.437 201.958 620.427 201.958Z" fill="#FFB300"/>
<path d="M622.254 182.907C624.323 182.907 626 180.953 626 178.543C626 176.133 624.323 174.179 622.254 174.179C620.185 174.179 618.508 176.133 618.508 178.543C618.508 180.953 620.185 182.907 622.254 182.907Z" fill="#FFB300"/>
<path d="M569.538 127.562C569.538 126.391 570.36 125.433 571.365 125.433H622.346C623.351 125.433 624.173 126.391 624.173 127.562C624.173 128.732 623.351 129.69 622.346 129.69H571.274C570.36 129.584 569.538 128.732 569.538 127.562Z" fill="#FFCA28"/>
<path d="M570.909 131.18C574.996 131.18 578.309 129.56 578.309 127.562C578.309 125.563 574.996 123.943 570.909 123.943C566.822 123.943 563.508 125.563 563.508 127.562C563.508 129.56 566.822 131.18 570.909 131.18Z" fill="url(#paint4_radial_513_17)"/>
<path d="M473.11 151.583H435.818C432.067 151.583 429 148.773 429 145.336V70.2476C429 66.81 432.067 64 435.818 64H473.102C476.854 64 479.92 66.81 479.92 70.2476V145.328C479.928 148.773 476.862 151.583 473.11 151.583Z" fill="url(#paint5_linear_513_17)"/>
<path opacity="0.2" d="M473.11 66.1896C475.556 66.1896 477.539 68.0142 477.539 70.2476V145.328C477.539 147.569 475.548 149.386 473.11 149.386H435.818C433.373 149.386 431.39 147.562 431.39 145.328V70.2476C431.39 68.0069 433.381 66.1896 435.818 66.1896H473.11ZM473.11 64H435.818C432.067 64 429 66.81 429 70.2476V145.328C429 148.766 432.067 151.576 435.818 151.576H473.102C476.854 151.576 479.92 148.766 479.92 145.328V70.2476C479.928 66.81 476.862 64 473.11 64Z" fill="#EEEEEE"/>
<path d="M472.465 139.927H436.479C435.882 139.927 435.396 139.482 435.396 138.935V76.6558C435.396 76.1084 435.882 75.6632 436.479 75.6632H472.465C473.063 75.6632 473.548 76.1084 473.548 76.6558V138.935C473.548 139.475 473.063 139.927 472.465 139.927Z" fill="url(#paint6_linear_513_17)"/>
<path d="M462.079 71.773H446.85C446.3 71.773 445.854 71.3643 445.854 70.8607C445.854 70.3571 446.3 69.9484 446.85 69.9484H462.079C462.628 69.9484 463.074 70.3571 463.074 70.8607C463.074 71.3643 462.628 71.773 462.079 71.773Z" fill="#212121"/>
<path d="M462.079 145.635H446.85C446.3 145.635 445.854 145.226 445.854 144.723C445.854 144.219 446.3 143.81 446.85 143.81H462.079C462.628 143.81 463.074 144.219 463.074 144.723C463.074 145.219 462.628 145.635 462.079 145.635Z" fill="black"/>
<path d="M469.908 84.4215H439.14C438.837 84.4215 438.598 84.2025 438.598 83.9252V79.13C438.598 78.8527 438.837 78.6337 439.14 78.6337H469.9C470.203 78.6337 470.442 78.8527 470.442 79.13V83.9252C470.45 84.1952 470.203 84.4215 469.908 84.4215Z" fill="#F5F5F5"/>
<path d="M443.138 122.389H440.286C439.323 122.389 438.534 121.674 438.534 120.783V118.17C438.534 117.287 439.315 116.565 440.286 116.565H443.138C444.102 116.565 444.89 117.28 444.89 118.17V120.783C444.89 121.674 444.11 122.389 443.138 122.389Z" fill="#159E5C"/>
<path d="M443.138 131.147H440.286C439.323 131.147 438.534 130.432 438.534 129.542V126.929C438.534 126.045 439.315 125.323 440.286 125.323H443.138C444.102 125.323 444.89 126.038 444.89 126.929V129.542C444.89 130.432 444.11 131.147 443.138 131.147Z" fill="#FB5352"/>
<path d="M451.621 131.147H448.769C447.805 131.147 447.017 130.432 447.017 129.542V126.929C447.017 126.045 447.797 125.323 448.769 125.323H451.621C452.584 125.323 453.373 126.038 453.373 126.929V129.542C453.373 130.432 452.584 131.147 451.621 131.147Z" fill="#4587F5"/>
<path d="M460.35 131.147H457.491C456.527 131.147 455.739 130.432 455.739 129.542V126.929C455.739 126.045 456.519 125.323 457.491 125.323H460.342C461.306 125.323 462.095 126.038 462.095 126.929V129.542C462.103 130.432 461.314 131.147 460.35 131.147Z" fill="#159E5C"/>
<path d="M468.578 131.147H465.727C464.763 131.147 463.974 130.432 463.974 129.542V126.929C463.974 126.045 464.755 125.323 465.727 125.323H468.578C469.542 125.323 470.331 126.038 470.331 126.929V129.542C470.331 130.432 469.542 131.147 468.578 131.147Z" fill="#FECD41"/>
<path d="M451.621 122.389H448.769C447.805 122.389 447.017 121.674 447.017 120.783V118.17C447.017 117.287 447.797 116.565 448.769 116.565H451.621C452.584 116.565 453.373 117.28 453.373 118.17V120.783C453.373 121.674 452.584 122.389 451.621 122.389Z" fill="#FECD41"/>
<path d="M460.35 122.389H457.491C456.527 122.389 455.739 121.674 455.739 120.783V118.17C455.739 117.287 456.519 116.565 457.491 116.565H460.342C461.306 116.565 462.095 117.28 462.095 118.17V120.783C462.103 121.674 461.314 122.389 460.35 122.389Z" fill="#FF6D00"/>
<path d="M468.578 122.389H465.727C464.763 122.389 463.974 121.674 463.974 120.783V118.17C463.974 117.287 464.755 116.565 465.727 116.565H468.578C469.542 116.565 470.331 117.28 470.331 118.17V120.783C470.331 121.674 469.542 122.389 468.578 122.389Z" fill="#DE493C"/>
<path d="M454.464 135.891C455.125 135.891 455.659 136.38 455.659 136.986C455.659 137.592 455.125 138.081 454.464 138.081C453.803 138.081 453.269 137.592 453.269 136.986C453.269 136.38 453.803 135.891 454.464 135.891ZM454.464 135.526C453.588 135.526 452.871 136.183 452.871 136.986C452.871 137.789 453.588 138.446 454.464 138.446C455.34 138.446 456.057 137.789 456.057 136.986C456.057 136.183 455.34 135.526 454.464 135.526Z" fill="white"/>
<path d="M466.531 135.891C466.651 135.891 466.754 135.986 466.754 136.096V137.877C466.754 137.986 466.651 138.081 466.531 138.081H464.588C464.468 138.081 464.365 137.986 464.365 137.877V136.096C464.365 135.986 464.468 135.891 464.588 135.891H466.531ZM466.531 135.526H464.588C464.245 135.526 463.967 135.782 463.967 136.096V137.877C463.967 138.19 464.245 138.446 464.588 138.446H466.531C466.874 138.446 467.153 138.19 467.153 137.877V136.096C467.153 135.782 466.874 135.526 466.531 135.526Z" fill="white"/>
<path d="M444.492 136.052V137.92L442.461 136.986L444.492 136.052ZM444.771 135.526C444.755 135.526 444.739 135.526 444.723 135.541L441.776 136.899C441.688 136.935 441.688 137.044 441.776 137.088L444.723 138.446C444.739 138.453 444.755 138.46 444.771 138.46C444.834 138.46 444.882 138.417 444.882 138.358V135.629C444.89 135.57 444.834 135.526 444.771 135.526Z" fill="white"/>
<path d="M281.209 148.271H223.956C221.774 148.271 220 146.65 220 144.657V89.2797C220 87.2863 221.774 85.6662 223.956 85.6662H281.216V148.271H281.209Z" fill="#546E7A"/>
<path d="M285.943 96.2056H282.646C281.552 96.2056 280.669 95.3986 280.669 94.3989V86.5876C280.669 85.5879 281.552 84.7809 282.646 84.7809H285.943C287.037 84.7809 287.921 85.5879 287.921 86.5876V94.3989C287.921 95.3986 287.037 96.2056 285.943 96.2056Z" fill="#EC4431"/>
<path d="M285.943 108.401H282.646C281.552 108.401 280.669 107.594 280.669 106.595V98.7833C280.669 97.7836 281.552 96.9765 282.646 96.9765H285.943C287.037 96.9765 287.921 97.7836 287.921 98.7833V106.595C287.921 107.588 287.037 108.401 285.943 108.401Z" fill="#FBBE00"/>
<path d="M285.943 120.591H282.646C281.552 120.591 280.669 119.784 280.669 118.784V110.973C280.669 109.973 281.552 109.166 282.646 109.166H285.943C287.037 109.166 287.921 109.973 287.921 110.973V118.784C287.921 119.784 287.037 120.591 285.943 120.591Z" fill="#2CA94F"/>
<path d="M285.943 132.787H282.646C281.552 132.787 280.669 131.98 280.669 130.98V123.169C280.669 122.169 281.552 121.362 282.646 121.362H285.943C287.037 121.362 287.921 122.169 287.921 123.169V130.98C287.921 131.974 287.037 132.787 285.943 132.787Z" fill="#4480F7"/>
<path d="M283.326 140.526H223.956C221.774 140.526 220 138.905 220 136.912V79.6135C220 77.6201 221.774 76 223.956 76H283.326V140.526Z" fill="url(#paint7_linear_513_17)"/>
<path opacity="0.2" d="M281.427 77.8068V84.7809C281.427 85.7806 282.31 86.5876 283.405 86.5876H285.884C285.963 86.5876 286.022 86.6479 286.022 86.7141V94.2664C286.022 94.3387 285.956 94.3929 285.884 94.3929H283.405C282.31 94.3929 281.427 95.1999 281.427 96.1996V96.9705C281.427 97.9702 282.31 98.7773 283.405 98.7773H285.884C285.963 98.7773 286.022 98.8375 286.022 98.9037V106.456C286.022 106.528 285.956 106.582 285.884 106.582H283.405C282.31 106.582 281.427 107.39 281.427 108.389V109.16C281.427 110.16 282.31 110.967 283.405 110.967H285.884C285.963 110.967 286.022 111.027 286.022 111.093V118.646C286.022 118.718 285.956 118.772 285.884 118.772H283.405C282.31 118.772 281.427 119.579 281.427 120.579V121.35C281.427 122.35 282.31 123.157 283.405 123.157H285.884C285.963 123.157 286.022 123.217 286.022 123.283V130.835C286.022 130.908 285.956 130.962 285.884 130.962H283.405C282.31 130.962 281.427 131.769 281.427 132.769V138.707H281.295C280.2 138.707 279.317 139.514 279.317 140.514V146.464H224.318C223.072 146.464 222.057 145.536 222.057 144.398V79.8725C222.057 78.7342 223.072 77.8068 224.318 77.8068H281.427ZM283.405 76H224.318C221.978 76 220.079 77.7345 220.079 79.8725V144.398C220.079 146.536 221.978 148.271 224.318 148.271H281.295V140.526H283.405V132.787H285.884C287.057 132.787 288 131.919 288 130.853V123.295C288 122.223 287.051 121.362 285.884 121.362H283.405V120.591H285.884C287.057 120.591 288 119.724 288 118.658V111.105C288 110.033 287.051 109.172 285.884 109.172H283.405V108.401H285.884C287.057 108.401 288 107.534 288 106.468V98.9098C288 97.8378 287.051 96.9765 285.884 96.9765H283.405V96.2056H285.884C287.057 96.2056 288 95.3384 288 94.2724V86.7201C288 85.6481 287.051 84.7869 285.884 84.7869H283.405V76Z" fill="#424242"/>
<path d="M266.764 86.4431H236.318C235.639 86.4431 235.19 86.8647 235.19 87.497V103.336C235.19 103.969 235.639 104.39 236.318 104.39H266.764C267.443 104.39 267.891 103.969 267.891 103.336V87.497C267.891 86.8647 267.443 86.4431 266.764 86.4431ZM265.637 102.282H237.445V88.557H265.637V102.282Z" fill="#546E7A"/>
<path d="M246.471 94.8927H256.618C257.297 94.8927 257.745 94.4711 257.745 93.8388C257.745 93.2064 257.297 92.7848 256.618 92.7848H246.471C245.792 92.7848 245.344 93.2064 245.344 93.8388C245.344 94.4651 245.792 94.8927 246.471 94.8927Z" fill="#546E7A"/>
<path d="M243.089 99.1145H260C260.679 99.1145 261.127 98.693 261.127 98.0606C261.127 97.4282 260.679 97.0067 260 97.0067H243.089C242.41 97.0067 241.961 97.4282 241.961 98.0606C241.961 98.693 242.41 99.1145 243.089 99.1145Z" fill="#546E7A"/>
<path d="M274.616 76V140.526" stroke="#424242" stroke-width="4.17625" stroke-miterlimit="10"/>
<path d="M278.387 146.337H225.024C223.395 146.337 222.057 145.115 222.057 143.627V143.242C222.057 141.754 223.389 140.532 225.024 140.532H278.387V146.337Z" fill="url(#paint8_linear_513_17)"/>
<mask id="mask0_513_17" style="mask-type:luminance" maskUnits="userSpaceOnUse" x="220" y="76" width="64" height="65">
<path d="M283.326 140.526H223.956C221.774 140.526 220 138.905 220 136.912V79.6135C220 77.6201 221.774 76 223.956 76H283.326V140.526Z" fill="white"/>
</mask>
<g mask="url(#mask0_513_17)">
<path d="M216.222 73.4164H224.701V150.848H216.222V73.4164Z" fill="#546E7A"/>
</g>
<path d="M398.126 149.614C376.06 144.558 362.974 150.336 358 153.381C353.019 150.35 339.918 144.572 317.881 149.614C316.183 149.996 315 151.362 315 152.93V201.044C315 202.098 315.538 203.083 316.469 203.735C317.394 204.387 318.583 204.616 319.73 204.367C335.317 200.961 345.666 203.278 351.507 205.719C351.507 205.719 351.665 208.868 358.201 208.868C364.737 208.868 364.493 205.719 364.493 205.719C370.327 203.278 380.675 200.961 396.263 204.367C397.41 204.616 398.635 204.38 399.545 203.728C400.462 203.09 401 202.105 401 201.051V152.93C401 151.362 399.817 149.996 398.126 149.614Z" fill="url(#paint9_linear_513_17)"/>
<path d="M352.675 203.576C354.997 201.148 360.616 201.086 363.002 203.576C366.528 201.079 373.881 195.821 392.149 200.191C393.167 200.434 394.256 200.205 395.066 199.567C395.883 198.943 396.356 197.985 396.356 196.959V150.176C396.356 148.65 395.31 147.326 393.805 146.951C374.232 142.04 362.622 147.658 358.208 150.613C353.786 147.665 342.162 142.047 322.611 146.951C321.106 147.326 320.052 148.65 320.052 150.176V196.959C320.052 197.985 320.525 198.943 321.357 199.574C322.181 200.205 323.234 200.427 324.252 200.184C342.513 195.821 349.149 201.072 352.675 203.576Z" fill="url(#paint10_linear_513_17)"/>
<path d="M356.194 200.434C357.276 201.266 358.724 201.266 359.799 200.434C362.995 197.944 372.212 192.631 388.781 196.987C389.705 197.229 390.687 197.001 391.425 196.362C392.164 195.738 392.594 194.788 392.594 193.768V147.145C392.594 145.626 391.64 144.301 390.279 143.934C372.527 139.037 362.006 144.634 358 147.582C353.994 144.648 343.452 139.044 325.729 143.934C324.36 144.308 323.414 145.626 323.414 147.145V193.768C323.414 194.788 323.844 195.745 324.596 196.376C325.342 197.008 326.302 197.229 327.219 196.987C343.781 192.631 352.998 197.944 356.194 200.434Z" fill="url(#paint11_linear_513_17)"/>
<path opacity="0.2" d="M376.898 144.378C380.919 144.378 385.219 145.002 389.677 146.23C390.013 146.32 390.293 146.708 390.357 147.173C390.479 148.054 391.146 148.768 392.034 148.976L392.206 149.018C392.55 149.094 392.895 149.177 393.246 149.268C393.64 149.365 393.948 149.663 394.07 150.058C394.306 150.807 394.937 151.369 395.725 151.529C396.342 151.654 396.972 151.792 397.61 151.938C398.298 152.091 398.778 152.597 398.778 153.166V201.28C398.778 201.641 398.585 201.988 398.226 202.237C397.94 202.438 397.553 202.556 397.166 202.556C397.022 202.556 396.879 202.542 396.743 202.508C391.375 201.336 386.201 200.739 381.37 200.739C374.727 200.739 368.75 201.828 363.604 203.978C362.794 204.318 362.278 205.081 362.271 205.92C362.171 206.17 361.275 206.954 358.193 206.954C354.882 206.954 353.843 206.059 353.7 205.684C353.6 204.935 353.105 204.283 352.381 203.985C347.236 201.835 341.259 200.746 334.615 200.746C329.778 200.746 324.61 201.342 319.243 202.515C319.099 202.542 318.956 202.563 318.813 202.563C318.433 202.563 318.06 202.452 317.759 202.237C317.401 201.988 317.207 201.648 317.207 201.28V153.159C317.207 152.59 317.688 152.084 318.383 151.931C319.085 151.772 319.83 151.612 320.669 151.446C321.443 151.293 322.074 150.752 322.324 150.024C322.453 149.642 322.761 149.358 323.156 149.261C323.328 149.219 323.492 149.177 323.657 149.143L323.965 149.073C324.868 148.858 325.542 148.116 325.635 147.215C325.686 146.729 325.972 146.327 326.323 146.23C330.767 145.002 335.052 144.385 339.066 144.385C348.261 144.385 354.03 147.603 356.653 149.524C357.047 149.816 357.52 149.961 357.986 149.961C358.459 149.961 358.932 149.816 359.326 149.524C361.949 147.596 367.704 144.378 376.898 144.378ZM376.898 142.235C367.08 142.235 360.867 145.703 358 147.818C355.126 145.716 348.898 142.242 339.08 142.242C335.196 142.242 330.752 142.783 325.728 144.17C324.481 144.51 323.593 145.64 323.442 146.993C323.163 147.062 322.89 147.118 322.611 147.194C321.471 147.478 320.597 148.304 320.239 149.351C319.465 149.503 318.684 149.67 317.888 149.85C316.182 150.232 315 151.591 315 153.159V201.273C315 202.327 315.538 203.312 316.469 203.964C317.15 204.443 317.974 204.693 318.813 204.693C319.121 204.693 319.422 204.658 319.73 204.595C325.363 203.368 330.315 202.882 334.615 202.882C342.212 202.882 347.78 204.387 351.5 205.948C351.5 205.948 351.657 209.097 358.193 209.097C364.729 209.097 364.486 205.948 364.486 205.948C368.213 204.387 373.781 202.882 381.37 202.882C385.67 202.882 390.623 203.368 396.256 204.595C396.557 204.658 396.858 204.693 397.166 204.693C398.026 204.693 398.864 204.436 399.545 203.957C400.462 203.319 401 202.334 401 201.28V153.159C401 151.591 399.817 150.225 398.126 149.843C397.474 149.691 396.836 149.559 396.198 149.427C395.854 148.345 394.973 147.478 393.805 147.187C393.382 147.083 392.973 146.986 392.558 146.889C392.378 145.585 391.497 144.496 390.279 144.163C385.241 142.776 380.79 142.235 376.898 142.235Z" fill="#424242"/>
<path d="M332.128 154.705C331.698 154.754 331.383 155.135 331.383 155.586V156.849C331.383 157.105 331.491 157.341 331.67 157.514C331.849 157.688 332.093 157.764 332.343 157.736C338.199 156.98 343.631 157.251 348.476 158.548C348.726 158.617 348.999 158.555 349.214 158.395C349.422 158.229 349.543 157.965 349.543 157.688V156.405C349.543 155.995 349.278 155.642 348.898 155.545C343.789 154.213 338.156 153.936 332.128 154.705Z" fill="#999999"/>
<path d="M332.128 163.25C331.698 163.306 331.383 163.68 331.383 164.138V165.401C331.383 165.657 331.491 165.9 331.67 166.066C331.849 166.233 332.093 166.316 332.343 166.281C338.199 165.525 343.631 165.796 348.476 167.093C348.726 167.162 348.999 167.107 349.214 166.94C349.422 166.774 349.543 166.51 349.543 166.24V164.95C349.543 164.547 349.278 164.187 348.898 164.09C343.796 162.758 338.156 162.481 332.128 163.25Z" fill="#999999"/>
<path d="M332.128 171.795C331.698 171.858 331.383 172.232 331.383 172.683V173.946C331.383 174.202 331.491 174.445 331.67 174.611C331.849 174.778 332.093 174.861 332.343 174.826C338.199 174.064 343.631 174.341 348.476 175.645C348.726 175.707 348.999 175.652 349.214 175.485C349.422 175.312 349.543 175.055 349.543 174.785V173.495C349.543 173.092 349.278 172.732 348.898 172.635C343.789 171.31 338.156 171.026 332.128 171.795Z" fill="#999999"/>
<path d="M332.128 180.341C331.698 180.396 331.383 180.777 331.383 181.221V182.484C331.383 182.74 331.491 182.983 331.67 183.156C331.849 183.33 332.093 183.399 332.343 183.372C338.199 182.609 343.631 182.879 348.476 184.183C348.726 184.252 348.999 184.197 349.214 184.017C349.422 183.85 349.543 183.593 349.543 183.316V182.026C349.543 181.617 349.278 181.263 348.898 181.166C343.796 179.848 338.156 179.571 332.128 180.341Z" fill="#999999"/>
<path d="M367.324 155.531C366.944 155.628 366.679 155.982 366.679 156.391V157.674C366.679 157.951 366.801 158.215 367.008 158.381C367.216 158.548 367.489 158.61 367.747 158.534C372.598 157.237 378.031 156.966 383.879 157.722C384.123 157.75 384.366 157.674 384.553 157.501C384.739 157.334 384.839 157.091 384.839 156.835V155.572C384.839 155.122 384.524 154.74 384.094 154.691C378.06 153.935 372.419 154.213 367.324 155.531Z" fill="#999999"/>
<path d="M367.324 164.076C366.944 164.173 366.679 164.534 366.679 164.936V166.226C366.679 166.503 366.801 166.76 367.008 166.926C367.216 167.093 367.489 167.148 367.747 167.079C372.598 165.782 378.024 165.512 383.879 166.268C384.123 166.302 384.366 166.219 384.553 166.053C384.739 165.886 384.839 165.636 384.839 165.387V164.124C384.839 163.667 384.524 163.292 384.094 163.237C378.052 162.481 372.412 162.765 367.324 164.076Z" fill="#999999"/>
<path d="M367.324 172.621C366.944 172.718 366.679 173.079 366.679 173.481V174.771C366.679 175.041 366.801 175.305 367.008 175.472C367.216 175.638 367.489 175.693 367.747 175.631C372.598 174.327 378.031 174.057 383.879 174.813C384.123 174.847 384.366 174.764 384.553 174.598C384.739 174.431 384.839 174.181 384.839 173.932V172.676C384.839 172.226 384.524 171.851 384.094 171.789C378.06 171.026 372.419 171.31 367.324 172.621Z" fill="#999999"/>
<path d="M367.324 181.173C366.944 181.27 366.679 181.624 366.679 182.033V183.316C366.679 183.593 366.801 183.85 367.008 184.017C367.216 184.19 367.489 184.252 367.747 184.183C372.598 182.879 378.024 182.609 383.879 183.372C384.123 183.399 384.366 183.33 384.553 183.157C384.739 182.983 384.839 182.74 384.839 182.484V181.221C384.839 180.777 384.524 180.396 384.094 180.341C378.052 179.571 372.412 179.848 367.324 181.173Z" fill="#999999"/>
<mask id="mask1_513_17" style="mask-type:luminance" maskUnits="userSpaceOnUse" x="315" y="142" width="86" height="69">
<path d="M398.126 149.614C397.474 149.462 396.836 149.33 396.198 149.198C395.854 148.116 394.973 147.249 393.805 146.958C393.382 146.854 392.973 146.757 392.558 146.66C392.378 145.356 391.497 144.267 390.279 143.934C372.527 139.037 362.006 144.634 358 147.582C353.994 144.648 343.452 139.044 325.728 143.934C324.481 144.274 323.593 145.404 323.442 146.757C323.163 146.826 322.89 146.882 322.611 146.958C321.471 147.242 320.597 148.068 320.239 149.115C319.465 149.268 318.684 149.434 317.888 149.614C316.182 149.996 315 151.362 315 152.93V201.044C315 202.098 315.538 203.083 316.469 203.735C317.394 204.387 318.583 204.616 319.73 204.367C335.317 200.961 345.666 203.007 351.507 205.449L351.106 208.008C350.912 209.118 351.543 210.179 352.403 210.179H363.597C364.45 210.179 365.088 209.118 364.894 208.008L364.493 205.719C370.327 203.278 380.675 200.961 396.263 204.367C397.41 204.616 398.635 204.38 399.545 203.728C400.462 203.09 401 202.105 401 201.051V152.93C401 151.362 399.817 149.996 398.126 149.614Z" fill="white"/>
</mask>
<g mask="url(#mask1_513_17)">
<path d="M377.085 141.617H385.735V160.122L382.431 156.113C382.152 155.773 381.779 155.6 381.414 155.6C381.048 155.6 380.675 155.773 380.396 156.113L377.092 160.122V141.617H377.085Z" fill="#ED1C24"/>
</g>
<mask id="mask2_513_17" style="mask-type:luminance" maskUnits="userSpaceOnUse" x="315" y="142" width="86" height="69">
<path d="M398.126 149.614C397.474 149.462 396.836 149.33 396.198 149.198C395.854 148.116 394.973 147.249 393.805 146.958C393.382 146.854 392.973 146.757 392.558 146.66C392.378 145.356 391.497 144.267 390.279 143.934C372.527 139.037 362.006 144.634 358 147.582C353.994 144.648 343.452 139.044 325.728 143.934C324.481 144.274 323.593 145.404 323.442 146.757C323.163 146.826 322.89 146.882 322.611 146.958C321.471 147.242 320.597 148.068 320.239 149.115C319.465 149.268 318.684 149.434 317.888 149.614C316.182 149.996 315 151.362 315 152.93V201.044C315 202.098 315.538 203.083 316.469 203.735C317.394 204.387 318.583 204.616 319.73 204.367C335.317 200.961 345.666 203.007 351.507 205.449L351.106 208.008C350.912 209.118 351.543 210.179 352.403 210.179H363.597C364.45 210.179 365.088 209.118 364.894 208.008L364.493 205.719C370.327 203.278 380.675 200.961 396.263 204.367C397.41 204.616 398.635 204.38 399.545 203.728C400.462 203.09 401 202.105 401 201.051V152.93C401 151.362 399.817 149.996 398.126 149.614Z" fill="white"/>
</mask>
<g mask="url(#mask2_513_17)">
<path d="M355.105 141.999H360.888V201.731H355.105V141.999Z" fill="url(#paint12_linear_513_17)"/>
</g>
<path d="M24.3169 97.68H89.1928V143.442H24.3169V97.68Z" fill="url(#paint13_radial_513_17)"/>
<path d="M24.3169 97.68H89.1928V143.442H24.3169V97.68Z" fill="url(#paint14_linear_513_17)"/>
<path opacity="0.5" d="M24.3169 97.68H44.6254V143.442H24.3169V97.68Z" fill="url(#paint15_linear_513_17)"/>
<path opacity="0.5" d="M68.8845 143.442H89.193V97.68H68.8845V143.442Z" fill="url(#paint16_linear_513_17)"/>
<path opacity="0.2" d="M87.4552 99.4864V145.249H89.1929C89.5115 145.249 89.7722 145.52 89.7722 145.851V146.453H23.7377V145.851C23.7377 145.52 23.9984 145.249 24.317 145.249H26.0547V99.4864H87.4552ZM89.1929 97.68H24.317V143.442C23.0369 143.442 22 144.52 22 145.851V148.26H91.5099V145.851C91.5099 144.52 90.4731 143.442 89.1929 143.442V97.68Z" fill="#424242"/>
<path d="M90.1951 100.089H23.3149C22.6198 100.089 22.0811 99.4563 22.168 98.7337L26.1822 82.6265C26.4487 81.5668 27.3697 80.8201 28.4239 80.8201H85.0803C86.1346 80.8201 87.0556 81.5608 87.322 82.6265L91.342 98.7398C91.4347 99.4563 90.896 100.089 90.1951 100.089Z" fill="url(#paint17_radial_513_17)"/>
<path opacity="0.2" d="M85.086 82.6265C85.3525 82.6265 85.5784 82.8132 85.6479 83.0781L89.4362 98.2821H24.0737L27.8678 83.0781C27.9315 82.8132 28.1632 82.6265 28.4296 82.6265H85.086ZM85.086 80.8201H28.4239C27.3696 80.8201 26.4486 81.5608 26.1822 82.6265L22.1622 98.7337C22.0753 99.4563 22.614 100.089 23.3149 100.089H90.2008C90.8959 100.089 91.4346 99.4563 91.3477 98.7337L87.3277 82.6265C87.0613 81.5608 86.1403 80.8201 85.086 80.8201Z" fill="#424242"/>
<path d="M56.755 76.003L42.853 90.4543V143.442H70.657V90.4543L56.755 76.003Z" fill="url(#paint18_radial_513_17)"/>
<path d="M52.7003 131.4H60.8098V143.442H52.7003V131.4Z" fill="#4FC3F7"/>
<path d="M52.121 131.4H53.2795V143.442H52.121V131.4Z" fill="#EEEEEE"/>
<path d="M60.2305 131.4H61.389V143.442H60.2305V131.4Z" fill="#EEEEEE"/>
<path d="M31.9747 104.304H37.7093V116.346H31.9747V104.304Z" fill="#4FC3F7"/>
<path d="M38.2189 103.701H31.2679V116.948H38.2189V103.701ZM37.0952 115.744H32.4612V110.927H37.0952V115.744ZM37.0952 109.723H32.4612V104.906H37.0952V109.723Z" fill="#EEEEEE"/>
<path d="M38.7982 116.948H30.6887C30.5265 116.948 30.399 116.816 30.399 116.647V116.045C30.399 115.877 30.5265 115.744 30.6887 115.744H38.7982C38.9604 115.744 39.0878 115.877 39.0878 116.045V116.647C39.0878 116.816 38.9604 116.948 38.7982 116.948Z" fill="#EEEEEE"/>
<path d="M38.7982 104.906H30.6887C30.5265 104.906 30.399 104.773 30.399 104.605V104.002C30.399 103.834 30.5265 103.701 30.6887 103.701H38.7982C38.9604 103.701 39.0878 103.834 39.0878 104.002V104.605C39.0878 104.773 38.9604 104.906 38.7982 104.906Z" fill="#EEEEEE"/>
<path d="M46.7456 110.325H52.4802V122.368H46.7456V110.325Z" fill="#4FC3F7"/>
<path d="M52.9898 109.723H46.0388V122.97H52.9898V109.723ZM51.8661 121.766H47.2321V116.948H51.8661V121.766ZM51.8661 115.744H47.2321V110.927H51.8661V115.744Z" fill="#EEEEEE"/>
<path d="M53.569 122.97H45.4595C45.2974 122.97 45.1699 122.837 45.1699 122.669V122.067C45.1699 121.898 45.2974 121.766 45.4595 121.766H53.569C53.7312 121.766 53.8587 121.898 53.8587 122.067V122.669C53.8587 122.837 53.7312 122.97 53.569 122.97Z" fill="#EEEEEE"/>
<path d="M53.569 110.927H45.4595C45.2974 110.927 45.1699 110.795 45.1699 110.626V110.024C45.1699 109.855 45.2974 109.723 45.4595 109.723H53.569C53.7312 109.723 53.8587 109.855 53.8587 110.024V110.626C53.8587 110.795 53.7312 110.927 53.569 110.927Z" fill="#EEEEEE"/>
<path d="M60.6476 110.325H66.3822V122.368H60.6476V110.325Z" fill="#4FC3F7"/>
<path d="M66.8918 109.723H59.9408V122.97H66.8918V109.723ZM65.768 121.766H61.134V116.948H65.768V121.766ZM65.768 115.744H61.134V110.927H65.768V115.744Z" fill="#EEEEEE"/>
<path d="M67.471 122.97H59.3615C59.1993 122.97 59.0719 122.837 59.0719 122.669V122.067C59.0719 121.898 59.1993 121.766 59.3615 121.766H67.471C67.6332 121.766 67.7606 121.898 67.7606 122.067V122.669C67.7606 122.837 67.6332 122.97 67.471 122.97Z" fill="#EEEEEE"/>
<path d="M67.471 110.927H59.3615C59.1993 110.927 59.0719 110.795 59.0719 110.626V110.024C59.0719 109.855 59.1993 109.723 59.3615 109.723H67.471C67.6332 109.723 67.7606 109.855 67.7606 110.024V110.626C67.7606 110.795 67.6332 110.927 67.471 110.927Z" fill="#EEEEEE"/>
<path d="M31.9747 122.368H37.7093V134.41H31.9747V122.368Z" fill="#4FC3F7"/>
<path d="M38.2189 121.766H31.2679V135.013H38.2189V121.766ZM37.0952 133.808H32.4612V128.991H37.0952V133.808ZM37.0952 127.787H32.4612V122.97H37.0952V127.787Z" fill="#EEEEEE"/>
<path d="M38.7982 135.013H30.6887C30.5265 135.013 30.399 134.88 30.399 134.711V134.109C30.399 133.941 30.5265 133.808 30.6887 133.808H38.7982C38.9604 133.808 39.0878 133.941 39.0878 134.109V134.711C39.0878 134.88 38.9604 135.013 38.7982 135.013Z" fill="#EEEEEE"/>
<path d="M38.7982 122.97H30.6887C30.5265 122.97 30.399 122.837 30.399 122.669V122.067C30.399 121.898 30.5265 121.766 30.6887 121.766H38.7982C38.9604 121.766 39.0878 121.898 39.0878 122.067V122.669C39.0878 122.837 38.9604 122.97 38.7982 122.97Z" fill="#EEEEEE"/>
<path d="M76.0209 104.304H81.7554V116.346H76.0209V104.304Z" fill="#4FC3F7"/>
<path d="M82.2651 103.701H75.3141V116.948H82.2651V103.701ZM81.1413 115.744H76.5073V110.927H81.1413V115.744ZM81.1413 109.723H76.5073V104.906H81.1413V109.723Z" fill="#EEEEEE"/>
<path d="M82.8443 116.948H74.7348C74.5726 116.948 74.4452 116.816 74.4452 116.647V116.045C74.4452 115.877 74.5726 115.744 74.7348 115.744H82.8443C83.0065 115.744 83.1339 115.877 83.1339 116.045V116.647C83.1339 116.816 83.0065 116.948 82.8443 116.948Z" fill="#EEEEEE"/>
<path d="M82.8443 104.906H74.7348C74.5726 104.906 74.4452 104.773 74.4452 104.605V104.002C74.4452 103.834 74.5726 103.701 74.7348 103.701H82.8443C83.0065 103.701 83.1339 103.834 83.1339 104.002V104.605C83.1339 104.773 83.0065 104.906 82.8443 104.906Z" fill="#EEEEEE"/>
<path d="M76.0209 122.368H81.7554V134.41H76.0209V122.368Z" fill="#4FC3F7"/>
<path d="M82.2651 121.766H75.3141V135.013H82.2651V121.766ZM81.1413 133.808H76.5073V128.991H81.1413V133.808ZM81.1413 127.787H76.5073V122.97H81.1413V127.787Z" fill="#EEEEEE"/>
<path d="M82.8443 135.013H74.7348C74.5726 135.013 74.4452 134.88 74.4452 134.711V134.109C74.4452 133.941 74.5726 133.808 74.7348 133.808H82.8443C83.0065 133.808 83.1339 133.941 83.1339 134.109V134.711C83.1339 134.88 83.0065 135.013 82.8443 135.013Z" fill="#EEEEEE"/>
<path d="M82.8443 122.97H74.7348C74.5726 122.97 74.4452 122.837 74.4452 122.669V122.067C74.4452 121.898 74.5726 121.766 74.7348 121.766H82.8443C83.0065 121.766 83.1339 121.898 83.1339 122.067V122.669C83.1339 122.837 83.0065 122.97 82.8443 122.97Z" fill="#EEEEEE"/>
<path d="M56.755 106.899C51.9646 106.899 48.0663 102.846 48.0663 97.8667C48.0663 92.887 51.9646 88.8346 56.755 88.8346C61.5454 88.8346 65.4438 92.887 65.4438 97.8667C65.4438 102.852 61.5454 106.899 56.755 106.899Z" fill="#E0E0E0"/>
<path d="M56.7551 89.4367C61.2327 89.4367 64.8645 93.2121 64.8645 97.8666C64.8645 102.521 61.2327 106.297 56.7551 106.297C52.2775 106.297 48.6456 102.521 48.6456 97.8666C48.6456 93.2121 52.2775 89.4367 56.7551 89.4367ZM56.7551 88.2324C51.6461 88.2324 47.4871 92.5558 47.4871 97.8666C47.4871 103.177 51.6461 107.501 56.7551 107.501C61.864 107.501 66.023 103.177 66.023 97.8666C66.023 92.5558 61.864 88.2324 56.7551 88.2324Z" fill="#AAA19F"/>
<path d="M64.2852 97.8727C64.2852 102.196 60.914 105.7 56.755 105.7C52.596 105.7 49.2247 102.196 49.2247 97.8727C49.2247 93.5493 52.596 90.0449 56.755 90.0449C60.914 90.0388 64.2852 93.5433 64.2852 97.8727Z" fill="#EEEEEE"/>
<path d="M57.3343 92.4775C57.3343 92.8087 57.0736 93.0796 56.755 93.0796C56.4364 93.0796 56.1758 92.8087 56.1758 92.4775C56.1758 92.1463 56.4364 91.8754 56.755 91.8754C57.0794 91.8754 57.3343 92.1463 57.3343 92.4775Z" fill="#9E9E9E"/>
<path d="M60.8618 94.4585C60.6359 94.6934 60.2709 94.6934 60.045 94.4585C59.8191 94.2237 59.8191 93.8383 60.045 93.6035C60.2709 93.3687 60.6359 93.3687 60.8618 93.6035C61.0877 93.8383 61.0877 94.2237 60.8618 94.4585Z" fill="#9E9E9E"/>
<path d="M62.003 98.4447C61.6844 98.4447 61.4237 98.1737 61.4237 97.8426C61.4237 97.5114 61.6844 97.2404 62.003 97.2404C62.3215 97.2404 62.5822 97.5114 62.5822 97.8426C62.5822 98.1737 62.3215 98.4447 62.003 98.4447Z" fill="#9E9E9E"/>
<path d="M60.0973 102.112C59.8714 101.877 59.8714 101.498 60.0973 101.257C60.3232 101.022 60.6939 101.022 60.9198 101.257C61.1457 101.492 61.1457 101.877 60.9198 102.112C60.6881 102.347 60.3232 102.347 60.0973 102.112Z" fill="#9E9E9E"/>
<path d="M56.2625 103.298C56.2625 102.967 56.5232 102.696 56.8418 102.696C57.1604 102.696 57.421 102.967 57.421 103.298C57.421 103.629 57.1604 103.9 56.8418 103.9C56.5174 103.9 56.2568 103.629 56.2625 103.298Z" fill="#9E9E9E"/>
<path d="M52.7349 101.317C52.9608 101.082 53.3257 101.082 53.5516 101.317C53.7775 101.552 53.7775 101.931 53.5516 102.166C53.3257 102.401 52.955 102.401 52.7349 102.166C52.509 101.931 52.509 101.552 52.7349 101.317Z" fill="#9E9E9E"/>
<path d="M51.5938 97.3247C51.9124 97.3247 52.173 97.5897 52.173 97.9269C52.173 98.2581 51.9124 98.529 51.5938 98.529C51.2752 98.529 51.0145 98.2581 51.0145 97.9269C51.0145 97.5957 51.2752 97.3247 51.5938 97.3247Z" fill="#9E9E9E"/>
<path d="M53.4995 93.6637C53.7254 93.8985 53.7254 94.2779 53.4995 94.5187C53.2736 94.7536 52.9029 94.7536 52.677 94.5187C52.4511 94.2839 52.4511 93.9046 52.677 93.6637C52.9029 93.4289 53.2736 93.4289 53.4995 93.6637Z" fill="#9E9E9E"/>
<path d="M56.7839 99.0228C57.4173 99.0228 57.9308 98.489 57.9308 97.8305C57.9308 97.1721 57.4173 96.6383 56.7839 96.6383C56.1505 96.6383 55.637 97.1721 55.637 97.8305C55.637 98.489 56.1505 99.0228 56.7839 99.0228Z" fill="#616161"/>
<path d="M56.836 98.1978C56.4132 98.1978 56.0714 97.8426 56.0714 97.403V92.598C56.0714 92.1584 56.4132 91.8031 56.836 91.8031C57.2589 91.8031 57.6006 92.1584 57.6006 92.598V97.403C57.6006 97.8426 57.2589 98.1978 56.836 98.1978Z" fill="#616161"/>
<path d="M57.0561 97.4753C57.3573 97.7884 57.3573 98.2882 57.0561 98.6013L55.1388 100.594C54.8376 100.907 54.3568 100.907 54.0556 100.594C53.7544 100.281 53.7544 99.7815 54.0556 99.4684L55.9729 97.4753C56.2741 97.1682 56.7607 97.1682 57.0561 97.4753Z" fill="#616161"/>
<path d="M24.346 145.026C23.6914 144.207 23.3786 143.172 23.4597 142.1C23.5872 140.36 24.8268 138.848 26.4776 138.433C26.7788 138.354 27.0916 138.318 27.3986 138.318C27.6419 138.318 27.891 138.342 28.1401 138.391C28.1748 138.397 28.2096 138.403 28.2501 138.403C28.505 138.403 28.7309 138.228 28.8062 137.969C29.2928 136.229 30.8509 135.013 32.5945 135.013C33.9673 135.013 35.2243 135.741 35.9483 136.951C36.0584 137.132 36.2438 137.234 36.4407 137.234C36.487 137.234 36.5334 137.228 36.5797 137.216C36.8867 137.138 37.2053 137.096 37.5181 137.096C37.7556 137.096 37.9989 137.12 38.2364 137.162C39.9278 137.481 41.2774 138.969 41.4396 140.697C41.4918 141.257 41.3933 141.811 41.15 142.25C41.0226 142.491 41.0457 142.816 41.2369 143.009C41.6134 143.4 41.6308 144.069 41.4512 144.526C41.3933 144.677 41.2195 145.02 40.9241 145.02H24.346V145.026Z" fill="url(#paint19_radial_513_17)"/>
<path d="M32.5888 135.615C33.7589 135.615 34.8305 136.235 35.4503 137.271C35.6646 137.632 36.0411 137.837 36.435 137.837C36.5277 137.837 36.6204 137.825 36.713 137.8C36.9795 137.734 37.246 137.698 37.5182 137.698C37.7209 137.698 37.9295 137.716 38.1322 137.758C39.5745 138.029 40.7272 139.294 40.8663 140.757C40.9068 141.197 40.8315 141.624 40.6519 141.961C40.3218 142.569 40.5419 143.135 40.8257 143.43C40.9416 143.551 40.9995 143.756 40.9879 143.984C40.9763 144.207 40.901 144.358 40.8547 144.418H24.6357C24.1897 143.756 23.9811 142.961 24.0391 142.136C24.1491 140.649 25.2091 139.366 26.6167 139.011C26.8774 138.945 27.138 138.914 27.3987 138.914C27.6072 138.914 27.8216 138.932 28.0301 138.975C28.1054 138.987 28.1749 138.999 28.2444 138.999C28.7484 138.999 29.2118 138.656 29.3566 138.132C29.7736 136.65 31.1059 135.615 32.5888 135.615ZM32.5888 134.41C30.5267 134.41 28.7889 135.844 28.2444 137.794C27.9722 137.74 27.6883 137.71 27.3987 137.71C27.057 137.71 26.7036 137.752 26.3387 137.843C24.4445 138.324 23.0312 140.028 22.8806 142.046C22.7763 143.43 23.2571 144.701 24.0854 145.622H40.9242C42.0769 145.622 42.6098 143.581 41.6425 142.581C41.6367 142.575 42.129 141.835 42.0132 140.643C41.822 138.607 40.2696 136.939 38.3349 136.572C38.0569 136.518 37.7847 136.494 37.5182 136.494C37.1475 136.494 36.7826 136.542 36.4408 136.632C35.6414 135.302 34.2165 134.41 32.5888 134.41Z" fill="#689F38"/>
<path d="M37.043 139.703C37.043 139.703 37.0836 138.415 36.0873 137.036" stroke="#689F38" stroke-width="1.43579" stroke-miterlimit="10" stroke-linecap="round" stroke-linejoin="round"/>
<path d="M28.3196 138.336C29.4897 138.354 30.6366 139.312 30.8104 140.486" stroke="#689F38" stroke-width="1.43579" stroke-miterlimit="10" stroke-linecap="round" stroke-linejoin="round"/>
<path d="M29.5244 141.022C30.5555 140.534 31.9399 140.612 33.0057 141.178" stroke="#689F38" stroke-width="1.43579" stroke-miterlimit="10" stroke-linecap="round" stroke-linejoin="round"/>
<path d="M72.4584 144.424C72.1572 144.424 71.9892 144.081 71.9313 143.93C71.7517 143.479 71.7691 142.804 72.1514 142.407C72.3368 142.214 72.36 141.889 72.2325 141.654C71.995 141.215 71.8908 140.661 71.9429 140.101C72.1051 138.372 73.4547 136.885 75.1461 136.566C75.3836 136.524 75.6269 136.5 75.8644 136.5C76.1772 136.5 76.4958 136.542 76.8028 136.62C76.8491 136.632 76.8955 136.638 76.9418 136.638C77.1388 136.638 77.3241 136.536 77.4342 136.355C78.164 135.139 79.4152 134.416 80.788 134.416C82.5316 134.416 84.0898 135.633 84.5763 137.373C84.6516 137.632 84.8775 137.806 85.1324 137.806C85.1672 137.806 85.2019 137.8 85.2425 137.794C85.4915 137.746 85.7406 137.722 85.9839 137.722C86.2909 137.722 86.6037 137.758 86.9049 137.837C88.5558 138.252 89.7954 139.763 89.9228 141.504C90.0039 142.581 89.6853 143.611 89.0366 144.43H72.4584V144.424Z" fill="url(#paint20_radial_513_17)"/>
<path d="M80.7881 135.013C82.2767 135.013 83.6032 136.048 84.0203 137.535C84.1651 138.059 84.6285 138.403 85.1324 138.403C85.2019 138.403 85.2772 138.397 85.3468 138.378C85.5553 138.336 85.7696 138.318 85.9781 138.318C86.2388 138.318 86.5053 138.354 86.7601 138.415C88.1677 138.77 89.2277 140.058 89.3378 141.54C89.3957 142.365 89.1872 143.159 88.7412 143.822H72.5222C72.4758 143.756 72.4063 143.605 72.3889 143.388C72.3774 143.159 72.4353 142.955 72.5453 142.834C72.835 142.539 73.0551 141.973 72.7249 141.359C72.5453 141.022 72.47 140.594 72.5106 140.155C72.6496 138.686 73.7965 137.427 75.2446 137.156C75.4474 137.12 75.6559 137.096 75.8586 137.096C76.1309 137.096 76.3974 137.132 76.6638 137.198C76.7565 137.222 76.8492 137.234 76.9418 137.234C77.3357 137.234 77.7122 137.024 77.9266 136.668C78.5464 135.633 79.618 135.013 80.7881 135.013ZM80.7881 133.808C79.1662 133.808 77.7412 134.699 76.9418 136.036C76.5943 135.946 76.2352 135.898 75.8644 135.898C75.598 135.898 75.3257 135.922 75.0477 135.976C73.1072 136.337 71.5606 138.005 71.3695 140.046C71.2536 141.245 71.7518 141.979 71.7402 141.985C70.7728 142.991 71.3057 145.026 72.4585 145.026H89.2972C90.1256 144.105 90.6005 142.834 90.5021 141.449C90.3515 139.432 88.9381 137.722 87.044 137.246C86.6848 137.156 86.3315 137.114 85.9839 137.114C85.6943 137.114 85.4105 137.144 85.1382 137.198C84.5879 135.241 82.8502 133.808 80.7881 133.808Z" fill="#689F38"/>
<path d="M76.3393 139.101C76.3393 139.101 76.2988 137.812 77.2951 136.434" stroke="#689F38" stroke-width="1.43579" stroke-miterlimit="10" stroke-linecap="round" stroke-linejoin="round"/>
<path d="M85.0629 137.734C83.8928 137.752 82.7459 138.71 82.5721 139.884" stroke="#689F38" stroke-width="1.43579" stroke-miterlimit="10" stroke-linecap="round" stroke-linejoin="round"/>
<path d="M83.8581 140.42C82.8271 139.932 81.4427 140.01 80.3768 140.576" stroke="#689F38" stroke-width="1.43579" stroke-miterlimit="10" stroke-linecap="round" stroke-linejoin="round"/>
<path d="M91.5099 148.26H22V145.851C22 144.52 23.0369 143.442 24.317 143.442H89.1929C90.4731 143.442 91.5099 144.52 91.5099 145.851V148.26Z" fill="#78909C"/>
<path d="M61.418 131.4H52.0921C51.4665 131.4 50.9625 130.876 50.9625 130.226V130.165C50.9625 129.515 51.4665 128.991 52.0921 128.991H61.418C62.0436 128.991 62.5475 129.515 62.5475 130.165V130.226C62.5475 130.876 62.0436 131.4 61.418 131.4Z" fill="#EEEEEE"/>
<path opacity="0.2" d="M89.1929 143.442H88.9728V145.249H89.1929C89.5115 145.249 89.7722 145.52 89.7722 145.851V146.453H23.7377V145.851C23.7377 145.574 23.9231 145.345 24.1722 145.279V143.455C22.9616 143.539 22 144.574 22 145.851V148.26H91.5099V145.851C91.5099 144.52 90.4731 143.442 89.1929 143.442Z" fill="#424242"/>
<path d="M72.9739 95.2714C72.6785 95.2714 72.383 95.151 72.1571 94.9162L56.7549 78.9113L41.3526 94.9162C40.9008 95.3858 40.1652 95.3858 39.7134 94.9162C39.2616 94.4465 39.2616 93.6818 39.7134 93.2121L55.9324 76.3523C56.3842 75.8826 57.1198 75.8826 57.5716 76.3523L73.7906 93.2121C74.2424 93.6818 74.2424 94.4465 73.7906 94.9162C73.5647 95.151 73.2693 95.2714 72.9739 95.2714Z" fill="#C62828"/>
<path d="M160.29 118C151.887 118 145.013 124.396 145.013 132.243V134.485C145.013 136.924 146.541 138.903 149.596 139.1V132.243C149.596 126.77 154.387 122.286 160.29 122.286C166.192 122.286 170.983 126.77 170.983 132.243V139.1C173.275 138.969 175.567 136.924 175.567 134.485V132.243C175.567 124.396 168.692 118 160.29 118Z" fill="#689F38"/>
<path d="M172.65 179.982H147.999C146.471 179.982 145.152 178.795 145.152 177.279V176.817C145.152 175.367 146.402 174.114 147.999 174.114H172.719C174.247 174.114 175.567 175.301 175.567 176.817V177.345C175.497 178.795 174.247 179.982 172.65 179.982Z" fill="#29B6F6"/>
<path d="M134.458 197.126H186.052C189.593 197.126 192.51 194.555 192.51 191.456V155.387C192.51 138.507 178.066 126.11 160.29 126.11C142.513 126.11 128 138.441 128 155.387V191.456C128 194.555 130.916 197.126 134.458 197.126Z" fill="url(#paint21_linear_513_17)"/>
<path d="M177.65 190.928H143.069C139.249 190.928 136.125 187.961 136.125 184.334V164.487C136.125 163.366 137.027 162.509 138.208 162.509H182.441C183.622 162.509 184.524 163.366 184.524 164.487V184.334C184.594 187.961 181.469 190.928 177.65 190.928Z" fill="url(#paint22_radial_513_17)"/>
<path d="M167.373 149.585H153.346C150.429 149.585 147.999 147.343 147.999 144.507C147.999 141.672 150.36 139.43 153.346 139.43H167.373C170.289 139.43 172.719 141.672 172.719 144.507C172.719 147.277 170.289 149.585 167.373 149.585Z" fill="#FAB300"/>
<path opacity="0.2" d="M160.29 128.089C168.484 128.089 176.053 130.858 181.677 135.869C187.371 140.947 190.496 147.87 190.496 155.387V191.456C190.496 193.5 188.552 195.148 186.121 195.148H134.458C132.028 195.148 130.083 193.5 130.083 191.456V155.387C130.083 147.87 133.208 140.881 138.833 135.869C144.527 130.792 152.096 128.089 160.29 128.089ZM160.29 126.11C142.513 126.11 128.069 138.507 128.069 155.387V191.456C128.069 194.621 130.986 197.126 134.527 197.126H186.052C189.593 197.126 192.51 194.555 192.51 191.456V155.387C192.51 138.441 178.066 126.11 160.29 126.11Z" fill="#424242"/>
<path opacity="0.2" d="M182.511 163.827C182.927 163.827 183.205 164.091 183.205 164.487V184.334C183.205 187.236 180.705 189.609 177.65 189.609H143.069C140.013 189.609 137.513 187.236 137.513 184.334V164.487C137.513 164.091 137.861 163.827 138.208 163.827H182.511ZM182.511 162.509H138.208C137.027 162.509 136.125 163.366 136.125 164.487V184.334C136.125 187.961 139.249 190.928 143.069 190.928H177.58C181.4 190.928 184.524 187.961 184.524 184.334V164.487C184.594 163.432 183.691 162.509 182.511 162.509Z" fill="#424242"/>
<path d="M177.719 177.74H143.138C139.319 177.74 136.194 174.114 136.194 170.487V163.036C136.194 161.585 137.444 160.399 138.972 160.399H181.886C183.413 160.399 184.663 161.585 184.663 163.036V170.487C184.663 174.114 181.538 177.74 177.719 177.74Z" fill="url(#paint23_linear_513_17)"/>
<path opacity="0.2" d="M181.886 161.717C182.649 161.717 183.274 162.311 183.274 163.036V170.487C183.274 173.916 180.358 176.422 177.719 176.422H143.138C140.499 176.422 137.583 173.916 137.583 170.487V163.036C137.583 162.311 138.208 161.717 138.972 161.717H181.886ZM181.886 160.399H138.972C137.444 160.399 136.194 161.585 136.194 163.036V170.487C136.194 174.114 139.319 177.74 143.138 177.74H177.719C181.538 177.74 184.663 174.114 184.663 170.487V163.036C184.663 161.585 183.413 160.399 181.886 160.399Z" fill="#424242"/>
<path d="M160.359 182.884C158.415 182.884 156.887 181.433 156.887 179.587V175.169C156.887 173.323 158.415 171.872 160.359 171.872C162.303 171.872 163.831 173.323 163.831 175.169V179.587C163.831 181.433 162.303 182.884 160.359 182.884Z" fill="#FFEB3B"/>
<path opacity="0.2" d="M160.359 173.191C161.54 173.191 162.442 174.114 162.442 175.169V179.587C162.442 180.708 161.47 181.565 160.359 181.565C159.248 181.565 158.276 180.642 158.276 179.587V175.169C158.276 174.048 159.179 173.191 160.359 173.191ZM160.359 171.872C158.415 171.872 156.887 173.323 156.887 175.169V179.587C156.887 181.433 158.415 182.884 160.359 182.884C162.303 182.884 163.831 181.433 163.831 179.587V175.169C163.831 173.323 162.303 171.872 160.359 171.872Z" fill="#424242"/>
<path opacity="0.2" d="M167.373 141.408C169.178 141.408 170.636 142.793 170.636 144.507C170.636 146.222 169.178 147.606 167.373 147.606H153.346C151.54 147.606 150.082 146.222 150.082 144.507C150.082 142.793 151.54 141.408 153.346 141.408H167.373ZM167.373 139.43H153.346C150.429 139.43 147.999 141.672 147.999 144.507C147.999 147.343 150.36 149.585 153.346 149.585H167.373C170.289 149.585 172.719 147.343 172.719 144.507C172.719 141.672 170.289 139.43 167.373 139.43Z" fill="#424242"/>
<defs>
<linearGradient id="paint0_linear_513_17" x1="570.909" y1="136.999" x2="570.909" y2="172.476" gradientUnits="userSpaceOnUse">
<stop stop-color="#212121"/>
<stop offset="0.7026" stop-color="#616161"/>
</linearGradient>
<linearGradient id="paint1_linear_513_17" x1="536.07" y1="150.711" x2="605.505" y2="150.711" gradientUnits="userSpaceOnUse">
<stop offset="0.0012001" stop-color="#BFBEBE"/>
<stop offset="0.15" stop-color="#212121" stop-opacity="0"/>
<stop offset="0.8505" stop-color="#212121" stop-opacity="0"/>
<stop offset="1" stop-color="#BFBEBE"/>
</linearGradient>
<linearGradient id="paint2_linear_513_17" x1="516" y1="139.003" x2="623.99" y2="139.003" gradientUnits="userSpaceOnUse">
<stop offset="0.0012001" stop-color="#BFBEBE"/>
<stop offset="0.3" stop-color="#212121" stop-opacity="0"/>
<stop offset="0.7" stop-color="#212121" stop-opacity="0"/>
<stop offset="1" stop-color="#BFBEBE"/>
</linearGradient>
<linearGradient id="paint3_linear_513_17" x1="570.086" y1="92.4739" x2="570.086" y2="133.452" gradientUnits="userSpaceOnUse">
<stop stop-color="#9E9E9E"/>
<stop offset="0.7151" stop-color="#616161"/>
</linearGradient>
<radialGradient id="paint4_radial_513_17" cx="0" cy="0" r="1" gradientUnits="userSpaceOnUse" gradientTransform="translate(571.034 126.138) scale(7.87843 3.66664)">
<stop offset="0.3965" stop-color="#757575"/>
<stop offset="0.9968" stop-color="#424242"/>
</radialGradient>
<linearGradient id="paint5_linear_513_17" x1="454.464" y1="151.583" x2="454.464" y2="64" gradientUnits="userSpaceOnUse">
<stop offset="0.0029098" stop-color="#212121"/>
<stop offset="1" stop-color="#4D4D4D"/>
</linearGradient>
<linearGradient id="paint6_linear_513_17" x1="454.47" y1="139.927" x2="454.47" y2="75.6588" gradientUnits="userSpaceOnUse">
<stop offset="0.0085898" stop-color="#9E9E9E"/>
<stop offset="0.9987" stop-color="#616161"/>
</linearGradient>
<linearGradient id="paint7_linear_513_17" x1="251.661" y1="76.2688" x2="251.661" y2="140.688" gradientUnits="userSpaceOnUse">
<stop offset="0.0087699" stop-color="#B0BEC5"/>
<stop offset="1" stop-color="#78909C"/>
</linearGradient>
<linearGradient id="paint8_linear_513_17" x1="222.055" y1="143.428" x2="278.387" y2="143.428" gradientUnits="userSpaceOnUse">
<stop offset="0.0091529" stop-color="#BDBDBD"/>
<stop offset="1" stop-color="white"/>
</linearGradient>
<linearGradient id="paint9_linear_513_17" x1="358" y1="149.937" x2="358" y2="208.951" gradientUnits="userSpaceOnUse">
<stop offset="0.0195" stop-color="#A1887F"/>
<stop offset="0.4458" stop-color="#896C62"/>
<stop offset="1" stop-color="#6D4C41"/>
</linearGradient>
<linearGradient id="paint10_linear_513_17" x1="358.2" y1="145.919" x2="358.2" y2="203.021" gradientUnits="userSpaceOnUse">
<stop offset="0.0089805" stop-color="#BDBDBD"/>
<stop offset="0.4345" stop-color="#BBBBBB"/>
<stop offset="0.5878" stop-color="#B4B4B4"/>
<stop offset="0.6971" stop-color="#A9A9A9"/>
<stop offset="0.7855" stop-color="#989898"/>
<stop offset="0.8611" stop-color="#828282"/>
<stop offset="0.9281" stop-color="#666666"/>
<stop offset="0.9872" stop-color="#474747"/>
<stop offset="0.9953" stop-color="#424242"/>
</linearGradient>
<linearGradient id="paint11_linear_513_17" x1="358" y1="142.913" x2="358" y2="200.503" gradientUnits="userSpaceOnUse">
<stop offset="0.0048445" stop-color="#E0E0E0"/>
<stop offset="0.4448" stop-color="#DEDEDE"/>
<stop offset="0.6032" stop-color="#D7D7D7"/>
<stop offset="0.7161" stop-color="#CCCCCC"/>
<stop offset="0.8074" stop-color="#BBBBBB"/>
<stop offset="0.8856" stop-color="#A5A5A5"/>
<stop offset="0.9537" stop-color="#8A8A8A"/>
<stop offset="0.9964" stop-color="#757575"/>
</linearGradient>
<linearGradient id="paint12_linear_513_17" x1="355.107" y1="171.865" x2="360.893" y2="171.865" gradientUnits="userSpaceOnUse">
<stop offset="0.0153" stop-color="#757575" stop-opacity="0"/>
<stop offset="0.4739" stop-color="#757575" stop-opacity="0.3718"/>
<stop offset="0.5087" stop-color="#757575" stop-opacity="0.4"/>
<stop offset="0.5688" stop-color="#757575" stop-opacity="0.3511"/>
<stop offset="1" stop-color="#757575" stop-opacity="0"/>
</linearGradient>
<radialGradient id="paint13_radial_513_17" cx="0" cy="0" r="1" gradientUnits="userSpaceOnUse" gradientTransform="translate(56.3204 98.4327) scale(46.384 48.2168)">
<stop stop-color="#FFEE58"/>
<stop offset="0.053" stop-color="#FFEE54"/>
<stop offset="0.3561" stop-color="#FFEC42"/>
<stop offset="0.571" stop-color="#FFEB3B"/>
<stop offset="1" stop-color="#FBC02D"/>
</radialGradient>
<linearGradient id="paint14_linear_513_17" x1="56.7549" y1="145.399" x2="56.7549" y2="94.818" gradientUnits="userSpaceOnUse">
<stop stop-color="#FFCC80"/>
<stop offset="0.0161" stop-color="#FFCC80" stop-opacity="0.9839"/>
<stop offset="1" stop-color="#FFCC80" stop-opacity="0"/>
</linearGradient>
<linearGradient id="paint15_linear_513_17" x1="46.4529" y1="120.561" x2="31.3965" y2="120.561" gradientUnits="userSpaceOnUse">
<stop stop-color="#FFCC80"/>
<stop offset="0.0161" stop-color="#FFCC80" stop-opacity="0.9839"/>
<stop offset="1" stop-color="#FFCC80" stop-opacity="0"/>
</linearGradient>
<linearGradient id="paint16_linear_513_17" x1="67.0564" y1="120.561" x2="82.1123" y2="120.561" gradientUnits="userSpaceOnUse">
<stop stop-color="#FFCC80"/>
<stop offset="0.0161" stop-color="#FFCC80" stop-opacity="0.9839"/>
<stop offset="1" stop-color="#FFCC80" stop-opacity="0"/>
</linearGradient>
<radialGradient id="paint17_radial_513_17" cx="0" cy="0" r="1" gradientUnits="userSpaceOnUse" gradientTransform="translate(56.6107 80.6696) rotate(90) scale(23.1071 41.8678)">
<stop stop-color="#F44336"/>
<stop offset="0.3423" stop-color="#F04036"/>
<stop offset="0.6613" stop-color="#E53935"/>
<stop offset="1" stop-color="#D32F2F"/>
</radialGradient>
<radialGradient id="paint18_radial_513_17" cx="0" cy="0" r="1" gradientUnits="userSpaceOnUse" gradientTransform="translate(56.755 74.3471) scale(68.531 71.239)">
<stop stop-color="#FFF176"/>
<stop offset="0.0243" stop-color="#FFF172"/>
<stop offset="0.2465" stop-color="#FFEE54"/>
<stop offset="0.4366" stop-color="#FFEC42"/>
<stop offset="0.571" stop-color="#FFEB3B"/>
<stop offset="1" stop-color="#FDD835"/>
</radialGradient>
<radialGradient id="paint19_radial_513_17" cx="0" cy="0" r="1" gradientUnits="userSpaceOnUse" gradientTransform="translate(32.8532 135.593) rotate(90) scale(12.8725 14.3856)">
<stop stop-color="#9CCC65"/>
<stop offset="0.2538" stop-color="#96C760"/>
<stop offset="0.5994" stop-color="#84B851"/>
<stop offset="0.9952" stop-color="#689F38"/>
</radialGradient>
<radialGradient id="paint20_radial_513_17" cx="0" cy="0" r="1" gradientUnits="userSpaceOnUse" gradientTransform="translate(80.5292 134.993) rotate(90) scale(12.8725 14.3856)">
<stop stop-color="#9CCC65"/>
<stop offset="0.2538" stop-color="#96C760"/>
<stop offset="0.5994" stop-color="#84B851"/>
<stop offset="0.9952" stop-color="#689F38"/>
</radialGradient>
<linearGradient id="paint21_linear_513_17" x1="160.255" y1="196.467" x2="160.255" y2="125.451" gradientUnits="userSpaceOnUse">
<stop offset="0.2164" stop-color="#689F38"/>
<stop offset="0.8598" stop-color="#689F38"/>
</linearGradient>
<radialGradient id="paint22_radial_513_17" cx="0" cy="0" r="1" gradientUnits="userSpaceOnUse" gradientTransform="translate(160.028 183.952) scale(37.1345 9.27744)">
<stop offset="0.2274" stop-color="#689F38"/>
<stop offset="0.9046" stop-color="#689F38"/>
</radialGradient>
<linearGradient id="paint23_linear_513_17" x1="160.429" y1="160.596" x2="160.429" y2="178.004" gradientUnits="userSpaceOnUse">
<stop offset="0.2274" stop-color="#689F38"/>
<stop offset="0.9046" stop-color="#689F38"/>
</linearGradient>
</defs>
</svg>
