<svg width="674" height="411" viewBox="0 0 674 411" fill="none" xmlns="http://www.w3.org/2000/svg">
<path d="M377.626 313.108C377.626 313.108 367.85 325.667 342.726 325.667C317.601 325.667 308.191 313.108 308.191 313.108V285.755H377.626V313.108Z" fill="url(#paint0_linear_513_19)"/>
<path opacity="0.4" d="M377.626 313.108C377.626 313.108 367.85 325.667 342.726 325.667C317.601 325.667 308.191 313.108 308.191 313.108V285.755H377.626V313.108Z" fill="url(#paint1_linear_513_19)"/>
<path d="M341.995 306.509L288.091 285.861L288 281.71L395.99 281.497V285.755L341.995 306.509Z" fill="#353535"/>
<path opacity="0.5" d="M341.995 306.509L288.091 285.861L288 281.71L395.99 281.497V285.755L341.995 306.509Z" fill="url(#paint2_linear_513_19)"/>
<path d="M341.995 302.358L288.091 281.71L341.995 265L396.081 281.497L341.995 302.358Z" fill="url(#paint3_linear_513_19)"/>
<path d="M394.254 280.433H343.365C342.452 280.433 341.629 281.178 341.538 282.136C341.355 283.413 342.269 284.584 343.274 284.584H390.6C391.605 284.584 392.427 285.542 392.427 286.712V345.251C392.427 346.315 393.066 347.273 393.889 347.486C394.985 347.699 395.99 346.634 395.99 345.464V282.562C396.081 281.391 395.259 280.433 394.254 280.433Z" fill="#FFB300"/>
<path d="M394.254 347.486C393.249 347.486 392.427 346.528 392.427 345.357V282.562C392.427 281.391 393.249 280.433 394.254 280.433C395.259 280.433 396.081 281.391 396.081 282.562V345.464C396.081 346.634 395.259 347.486 394.254 347.486Z" fill="#FFB300"/>
<path d="M392.427 356.958C390.417 356.958 386.945 354.085 387.036 351.743C387.036 350.998 387.493 350.04 388.041 349.295C389.869 346.634 391.605 343.229 391.605 339.823V335.991C391.605 334.82 392.427 333.862 393.432 333.862H395.168C396.173 333.862 396.995 334.82 396.995 335.991C396.995 335.991 398 345.889 396.081 352.808C394.711 355.149 394.437 356.958 392.427 356.958Z" fill="#FFB300"/>
<path d="M394.254 337.907C396.323 337.907 398 335.953 398 333.543C398 331.133 396.323 329.179 394.254 329.179C392.185 329.179 390.508 331.133 390.508 333.543C390.508 335.953 392.185 337.907 394.254 337.907Z" fill="#FFB300"/>
<path d="M394.254 347.486C393.249 347.486 392.427 346.528 392.427 345.357V282.562C392.427 281.391 393.249 280.433 394.254 280.433C395.259 280.433 396.081 281.391 396.081 282.562V345.464C396.081 346.634 395.259 347.486 394.254 347.486Z" fill="#FFB300"/>
<path d="M392.427 356.958C390.417 356.958 386.945 354.085 387.036 351.743C387.036 350.998 387.493 350.04 388.041 349.295C389.869 346.634 391.605 343.229 391.605 339.823V335.991C391.605 334.82 392.427 333.862 393.432 333.862H395.168C396.173 333.862 396.995 334.82 396.995 335.991C396.995 335.991 398 345.889 396.081 352.808C394.711 355.149 394.437 356.958 392.427 356.958Z" fill="#FFB300"/>
<path d="M394.254 337.907C396.323 337.907 398 335.953 398 333.543C398 331.133 396.323 329.179 394.254 329.179C392.185 329.179 390.508 331.133 390.508 333.543C390.508 335.953 392.185 337.907 394.254 337.907Z" fill="#FFB300"/>
<path d="M341.538 282.562C341.538 281.391 342.361 280.433 343.366 280.433H394.346C395.351 280.433 396.173 281.391 396.173 282.562C396.173 283.732 395.351 284.69 394.346 284.69H343.274C342.361 284.584 341.538 283.732 341.538 282.562Z" fill="#FFCA28"/>
<path d="M342.909 286.18C346.996 286.18 350.309 284.56 350.309 282.562C350.309 280.563 346.996 278.943 342.909 278.943C338.822 278.943 335.508 280.563 335.508 282.562C335.508 284.56 338.822 286.18 342.909 286.18Z" fill="url(#paint4_radial_513_19)"/>
<path d="M610.11 250.583H572.818C569.067 250.583 566 247.773 566 244.336V169.248C566 165.81 569.067 163 572.818 163H610.102C613.854 163 616.92 165.81 616.92 169.248V244.328C616.928 247.773 613.862 250.583 610.11 250.583Z" fill="url(#paint5_linear_513_19)"/>
<path opacity="0.2" d="M610.11 165.19C612.556 165.19 614.539 167.014 614.539 169.248V244.328C614.539 246.569 612.548 248.386 610.11 248.386H572.818C570.373 248.386 568.39 246.562 568.39 244.328V169.248C568.39 167.007 570.381 165.19 572.818 165.19H610.11ZM610.11 163H572.818C569.067 163 566 165.81 566 169.248V244.328C566 247.766 569.067 250.576 572.818 250.576H610.102C613.854 250.576 616.92 247.766 616.92 244.328V169.248C616.928 165.81 613.862 163 610.11 163Z" fill="#EEEEEE"/>
<path d="M609.465 238.927H573.479C572.882 238.927 572.396 238.482 572.396 237.935V175.656C572.396 175.108 572.882 174.663 573.479 174.663H609.465C610.063 174.663 610.548 175.108 610.548 175.656V237.935C610.548 238.475 610.063 238.927 609.465 238.927Z" fill="url(#paint6_linear_513_19)"/>
<path d="M599.079 170.773H583.85C583.3 170.773 582.854 170.364 582.854 169.861C582.854 169.357 583.3 168.948 583.85 168.948H599.079C599.628 168.948 600.074 169.357 600.074 169.861C600.074 170.364 599.628 170.773 599.079 170.773Z" fill="#212121"/>
<path d="M599.079 244.635H583.85C583.3 244.635 582.854 244.226 582.854 243.723C582.854 243.219 583.3 242.81 583.85 242.81H599.079C599.628 242.81 600.074 243.219 600.074 243.723C600.074 244.219 599.628 244.635 599.079 244.635Z" fill="black"/>
<path d="M606.908 183.421H576.14C575.837 183.421 575.598 183.203 575.598 182.925V178.13C575.598 177.853 575.837 177.634 576.14 177.634H606.9C607.203 177.634 607.442 177.853 607.442 178.13V182.925C607.45 183.195 607.203 183.421 606.908 183.421Z" fill="#F5F5F5"/>
<path d="M580.138 221.389H577.286C576.323 221.389 575.534 220.674 575.534 219.783V217.17C575.534 216.287 576.315 215.565 577.286 215.565H580.138C581.102 215.565 581.89 216.28 581.89 217.17V219.783C581.89 220.674 581.11 221.389 580.138 221.389Z" fill="#159E5C"/>
<path d="M580.138 230.147H577.286C576.323 230.147 575.534 229.432 575.534 228.542V225.929C575.534 225.045 576.315 224.323 577.286 224.323H580.138C581.102 224.323 581.89 225.038 581.89 225.929V228.542C581.89 229.432 581.11 230.147 580.138 230.147Z" fill="#FB5352"/>
<path d="M588.621 230.147H585.769C584.805 230.147 584.017 229.432 584.017 228.542V225.929C584.017 225.045 584.797 224.323 585.769 224.323H588.621C589.584 224.323 590.373 225.038 590.373 225.929V228.542C590.373 229.432 589.584 230.147 588.621 230.147Z" fill="#4587F5"/>
<path d="M597.35 230.147H594.491C593.527 230.147 592.739 229.432 592.739 228.542V225.929C592.739 225.045 593.519 224.323 594.491 224.323H597.342C598.306 224.323 599.095 225.038 599.095 225.929V228.542C599.103 229.432 598.314 230.147 597.35 230.147Z" fill="#159E5C"/>
<path d="M605.578 230.147H602.727C601.763 230.147 600.974 229.432 600.974 228.542V225.929C600.974 225.045 601.755 224.323 602.727 224.323H605.578C606.542 224.323 607.33 225.038 607.33 225.929V228.542C607.33 229.432 606.542 230.147 605.578 230.147Z" fill="#FECD41"/>
<path d="M588.621 221.389H585.769C584.805 221.389 584.017 220.674 584.017 219.783V217.17C584.017 216.287 584.797 215.565 585.769 215.565H588.621C589.584 215.565 590.373 216.28 590.373 217.17V219.783C590.373 220.674 589.584 221.389 588.621 221.389Z" fill="#FECD41"/>
<path d="M597.35 221.389H594.491C593.527 221.389 592.739 220.674 592.739 219.783V217.17C592.739 216.287 593.519 215.565 594.491 215.565H597.342C598.306 215.565 599.095 216.28 599.095 217.17V219.783C599.103 220.674 598.314 221.389 597.35 221.389Z" fill="#FF6D00"/>
<path d="M605.578 221.389H602.727C601.763 221.389 600.974 220.674 600.974 219.783V217.17C600.974 216.287 601.755 215.565 602.727 215.565H605.578C606.542 215.565 607.33 216.28 607.33 217.17V219.783C607.33 220.674 606.542 221.389 605.578 221.389Z" fill="#DE493C"/>
<path d="M591.464 234.891C592.125 234.891 592.659 235.38 592.659 235.986C592.659 236.592 592.125 237.081 591.464 237.081C590.803 237.081 590.27 236.592 590.27 235.986C590.27 235.38 590.803 234.891 591.464 234.891ZM591.464 234.526C590.588 234.526 589.871 235.183 589.871 235.986C589.871 236.789 590.588 237.446 591.464 237.446C592.34 237.446 593.057 236.789 593.057 235.986C593.057 235.183 592.34 234.526 591.464 234.526Z" fill="white"/>
<path d="M603.531 234.891C603.651 234.891 603.754 234.986 603.754 235.096V236.877C603.754 236.986 603.651 237.081 603.531 237.081H601.588C601.468 237.081 601.365 236.986 601.365 236.877V235.096C601.365 234.986 601.468 234.891 601.588 234.891H603.531ZM603.531 234.526H601.588C601.245 234.526 600.967 234.782 600.967 235.096V236.877C600.967 237.19 601.245 237.446 601.588 237.446H603.531C603.874 237.446 604.153 237.19 604.153 236.877V235.096C604.153 234.782 603.874 234.526 603.531 234.526Z" fill="white"/>
<path d="M581.492 235.052V236.92L579.461 235.986L581.492 235.052ZM581.771 234.526C581.755 234.526 581.739 234.526 581.723 234.541L578.776 235.899C578.688 235.935 578.688 236.044 578.776 236.088L581.723 237.446C581.739 237.453 581.755 237.46 581.771 237.46C581.834 237.46 581.882 237.417 581.882 237.358V234.629C581.89 234.57 581.834 234.526 581.771 234.526Z" fill="white"/>
<path d="M247.209 216.271H189.956C187.774 216.271 186 214.65 186 212.657V157.28C186 155.286 187.774 153.666 189.956 153.666H247.216V216.271H247.209Z" fill="#546E7A"/>
<path d="M251.943 164.206H248.647C247.552 164.206 246.669 163.399 246.669 162.399V154.588C246.669 153.588 247.552 152.781 248.647 152.781H251.943C253.038 152.781 253.921 153.588 253.921 154.588V162.399C253.921 163.399 253.038 164.206 251.943 164.206Z" fill="#EC4431"/>
<path d="M251.943 176.401H248.647C247.552 176.401 246.669 175.594 246.669 174.595V166.783C246.669 165.784 247.552 164.977 248.647 164.977H251.943C253.038 164.977 253.921 165.784 253.921 166.783V174.595C253.921 175.588 253.038 176.401 251.943 176.401Z" fill="#FBBE00"/>
<path d="M251.943 188.591H248.647C247.552 188.591 246.669 187.784 246.669 186.784V178.973C246.669 177.973 247.552 177.166 248.647 177.166H251.943C253.038 177.166 253.921 177.973 253.921 178.973V186.784C253.921 187.784 253.038 188.591 251.943 188.591Z" fill="#2CA94F"/>
<path d="M251.943 200.787H248.647C247.552 200.787 246.669 199.98 246.669 198.98V191.169C246.669 190.169 247.552 189.362 248.647 189.362H251.943C253.038 189.362 253.921 190.169 253.921 191.169V198.98C253.921 199.974 253.038 200.787 251.943 200.787Z" fill="#4480F7"/>
<path d="M249.326 208.526H189.956C187.774 208.526 186 206.905 186 204.912V147.614C186 145.62 187.774 144 189.956 144H249.326V208.526Z" fill="url(#paint7_linear_513_19)"/>
<path opacity="0.2" d="M247.427 145.807V152.781C247.427 153.781 248.31 154.588 249.405 154.588H251.884C251.963 154.588 252.022 154.648 252.022 154.714V162.266C252.022 162.339 251.956 162.393 251.884 162.393H249.405C248.31 162.393 247.427 163.2 247.427 164.2V164.971C247.427 165.97 248.31 166.777 249.405 166.777H251.884C251.963 166.777 252.022 166.837 252.022 166.904V174.456C252.022 174.528 251.956 174.582 251.884 174.582H249.405C248.31 174.582 247.427 175.39 247.427 176.389V177.16C247.427 178.16 248.31 178.967 249.405 178.967H251.884C251.963 178.967 252.022 179.027 252.022 179.093V186.646C252.022 186.718 251.956 186.772 251.884 186.772H249.405C248.31 186.772 247.427 187.579 247.427 188.579V189.35C247.427 190.35 248.31 191.157 249.405 191.157H251.884C251.963 191.157 252.022 191.217 252.022 191.283V198.835C252.022 198.908 251.956 198.962 251.884 198.962H249.405C248.31 198.962 247.427 199.769 247.427 200.769V206.707H247.295C246.2 206.707 245.317 207.514 245.317 208.514V214.464H190.318C189.072 214.464 188.057 213.536 188.057 212.398V147.872C188.057 146.734 189.072 145.807 190.318 145.807H247.427ZM249.405 144H190.318C187.978 144 186.079 145.734 186.079 147.872V212.398C186.079 214.536 187.978 216.271 190.318 216.271H247.295V208.526H249.405V200.787H251.884C253.057 200.787 254 199.919 254 198.853V191.295C254 190.223 253.051 189.362 251.884 189.362H249.405V188.591H251.884C253.057 188.591 254 187.724 254 186.658V179.105C254 178.033 253.051 177.172 251.884 177.172H249.405V176.401H251.884C253.057 176.401 254 175.534 254 174.468V166.91C254 165.838 253.051 164.977 251.884 164.977H249.405V164.206H251.884C253.057 164.206 254 163.338 254 162.272V154.72C254 153.648 253.051 152.787 251.884 152.787H249.405V144Z" fill="#424242"/>
<path d="M232.764 154.443H202.318C201.639 154.443 201.19 154.865 201.19 155.497V171.336C201.19 171.969 201.639 172.39 202.318 172.39H232.764C233.443 172.39 233.891 171.969 233.891 171.336V155.497C233.891 154.865 233.443 154.443 232.764 154.443ZM231.637 170.282H203.445V156.557H231.637V170.282Z" fill="#546E7A"/>
<path d="M212.471 162.893H222.617C223.296 162.893 223.745 162.471 223.745 161.839C223.745 161.206 223.296 160.785 222.617 160.785H212.471C211.792 160.785 211.343 161.206 211.343 161.839C211.343 162.465 211.792 162.893 212.471 162.893Z" fill="#546E7A"/>
<path d="M209.089 167.115H226C226.679 167.115 227.127 166.693 227.127 166.061C227.127 165.428 226.679 165.007 226 165.007H209.089C208.41 165.007 207.961 165.428 207.961 166.061C207.961 166.693 208.41 167.115 209.089 167.115Z" fill="#546E7A"/>
<path d="M240.616 144V208.526" stroke="#424242" stroke-width="4.17625" stroke-miterlimit="10"/>
<path d="M244.387 214.337H191.024C189.395 214.337 188.057 213.115 188.057 211.627V211.242C188.057 209.754 189.389 208.532 191.024 208.532H244.387V214.337Z" fill="url(#paint8_linear_513_19)"/>
<mask id="mask0_513_19" style="mask-type:luminance" maskUnits="userSpaceOnUse" x="186" y="144" width="64" height="65">
<path d="M249.326 208.526H189.956C187.774 208.526 186 206.905 186 204.912V147.614C186 145.62 187.774 144 189.956 144H249.326V208.526Z" fill="white"/>
</mask>
<g mask="url(#mask0_513_19)">
<path d="M182.222 141.416H190.701V218.848H182.222V141.416Z" fill="#546E7A"/>
</g>
<path d="M425.126 60.6144C403.06 55.5581 389.974 61.3358 385 64.3806C380.019 61.3496 366.918 55.572 344.881 60.6144C343.183 60.9959 342 62.3623 342 63.9298V112.044C342 113.098 342.538 114.083 343.469 114.735C344.394 115.387 345.583 115.616 346.73 115.367C362.317 111.961 372.666 114.278 378.507 116.719C378.507 116.719 378.665 119.868 385.201 119.868C391.737 119.868 391.493 116.719 391.493 116.719C397.327 114.278 407.675 111.961 423.263 115.367C424.41 115.616 425.635 115.38 426.545 114.728C427.462 114.09 428 113.105 428 112.051V63.9298C428 62.3623 426.817 60.9959 425.126 60.6144Z" fill="url(#paint9_linear_513_19)"/>
<path d="M379.675 114.576C381.997 112.148 387.616 112.086 390.002 114.576C393.528 112.079 400.881 106.821 419.149 111.191C420.167 111.434 421.256 111.205 422.066 110.567C422.883 109.943 423.356 108.985 423.356 107.959V61.1762C423.356 59.6503 422.31 58.3255 420.805 57.951C401.232 53.0404 389.622 58.6585 385.208 61.6132C380.786 58.6654 369.162 53.0473 349.611 57.951C348.106 58.3255 347.052 59.6503 347.052 61.1762V107.959C347.052 108.985 347.525 109.943 348.357 110.574C349.181 111.205 350.234 111.427 351.252 111.184C369.513 106.821 376.149 112.072 379.675 114.576Z" fill="url(#paint10_linear_513_19)"/>
<path d="M383.194 111.434C384.276 112.266 385.724 112.266 386.799 111.434C389.995 108.944 399.212 103.631 415.781 107.987C416.705 108.229 417.687 108.001 418.425 107.362C419.164 106.738 419.594 105.788 419.594 104.768V58.1452C419.594 56.6262 418.64 55.3015 417.279 54.9339C399.527 50.0371 389.006 55.6344 385 58.5822C380.994 55.6483 370.452 50.0441 352.729 54.9339C351.36 55.3084 350.414 56.6262 350.414 58.1452V104.768C350.414 105.788 350.844 106.745 351.596 107.376C352.342 108.008 353.302 108.229 354.219 107.987C370.781 103.631 379.998 108.944 383.194 111.434Z" fill="url(#paint11_linear_513_19)"/>
<path opacity="0.2" d="M403.898 55.3778C407.919 55.3778 412.219 56.002 416.677 57.2297C417.013 57.3199 417.293 57.7083 417.357 58.173C417.479 59.0539 418.146 59.7683 419.034 59.9763L419.206 60.0179C419.55 60.0942 419.895 60.1775 420.246 60.2676C420.64 60.3647 420.948 60.663 421.07 61.0583C421.306 61.8074 421.937 62.3692 422.725 62.5287C423.342 62.6536 423.972 62.7923 424.61 62.938C425.298 63.0906 425.778 63.5969 425.778 64.1656V112.28C425.778 112.641 425.585 112.988 425.226 113.237C424.94 113.438 424.553 113.556 424.166 113.556C424.022 113.556 423.879 113.542 423.743 113.508C418.375 112.336 413.201 111.739 408.37 111.739C401.727 111.739 395.75 112.828 390.604 114.978C389.794 115.318 389.278 116.081 389.271 116.92C389.171 117.17 388.275 117.954 385.193 117.954C381.882 117.954 380.843 117.059 380.7 116.684C380.6 115.935 380.105 115.283 379.381 114.985C374.236 112.835 368.259 111.746 361.615 111.746C356.778 111.746 351.61 112.342 346.243 113.515C346.099 113.542 345.956 113.563 345.813 113.563C345.433 113.563 345.06 113.452 344.759 113.237C344.401 112.988 344.207 112.648 344.207 112.28V64.1587C344.207 63.5899 344.688 63.0836 345.383 62.931C346.085 62.7715 346.83 62.612 347.669 62.4455C348.443 62.2929 349.074 61.7519 349.324 61.0237C349.453 60.6422 349.761 60.3578 350.156 60.2607C350.328 60.2191 350.492 60.1775 350.657 60.1428L350.965 60.0734C351.868 59.8584 352.542 59.1163 352.635 58.2146C352.686 57.7291 352.972 57.3268 353.323 57.2297C357.767 56.002 362.052 55.3848 366.066 55.3848C375.261 55.3848 381.03 58.603 383.653 60.5243C384.047 60.8156 384.52 60.9612 384.986 60.9612C385.459 60.9612 385.932 60.8156 386.326 60.5243C388.949 58.5961 394.704 55.3778 403.898 55.3778ZM403.898 53.2346C394.08 53.2346 387.867 56.7026 385 58.818C382.126 56.7164 375.898 53.2416 366.08 53.2416C362.196 53.2416 357.752 53.7826 352.728 55.1697C351.481 55.5096 350.593 56.6402 350.442 57.9927C350.163 58.062 349.89 58.1175 349.611 58.1938C348.471 58.4782 347.597 59.3035 347.239 60.3509C346.465 60.5035 345.684 60.6699 344.888 60.8503C343.182 61.2317 342 62.5912 342 64.1587V112.273C342 113.327 342.538 114.312 343.469 114.964C344.15 115.443 344.974 115.693 345.813 115.693C346.121 115.693 346.422 115.658 346.73 115.595C352.363 114.368 357.315 113.882 361.615 113.882C369.212 113.882 374.78 115.387 378.5 116.948C378.5 116.948 378.657 120.097 385.193 120.097C391.729 120.097 391.486 116.948 391.486 116.948C395.213 115.387 400.781 113.882 408.37 113.882C412.67 113.882 417.623 114.368 423.256 115.595C423.557 115.658 423.858 115.693 424.166 115.693C425.026 115.693 425.864 115.436 426.545 114.957C427.462 114.319 428 113.334 428 112.28V64.1587C428 62.5912 426.817 61.2248 425.126 60.8433C424.474 60.6907 423.836 60.5589 423.198 60.4272C422.854 59.3452 421.973 58.4782 420.805 58.1869C420.382 58.0828 419.973 57.9857 419.558 57.8886C419.378 56.5847 418.497 55.4957 417.279 55.1628C412.241 53.7756 407.79 53.2346 403.898 53.2346Z" fill="#424242"/>
<path d="M359.128 65.7054C358.698 65.7539 358.383 66.1354 358.383 66.5863V67.8486C358.383 68.1052 358.491 68.341 358.67 68.5144C358.849 68.6878 359.093 68.7641 359.343 68.7364C365.199 67.9804 370.631 68.2509 375.476 69.5479C375.726 69.6173 375.999 69.5548 376.214 69.3953C376.422 69.2288 376.543 68.9653 376.543 68.6878V67.4047C376.543 66.9955 376.278 66.6417 375.898 66.5446C370.789 65.2129 365.156 64.9355 359.128 65.7054Z" fill="#999999"/>
<path d="M359.128 74.2504C358.698 74.3059 358.383 74.6805 358.383 75.1382V76.4006C358.383 76.6572 358.491 76.9 358.67 77.0664C358.849 77.2329 359.093 77.3161 359.343 77.2814C365.199 76.5254 370.631 76.7959 375.476 78.0929C375.726 78.1623 375.999 78.1068 376.214 77.9403C376.422 77.7739 376.543 77.5103 376.543 77.2398V75.9497C376.543 75.5475 376.278 75.1868 375.898 75.0897C370.796 73.758 365.156 73.4806 359.128 74.2504Z" fill="#999999"/>
<path d="M359.128 82.7955C358.698 82.8579 358.383 83.2324 358.383 83.6833V84.9456C358.383 85.2022 358.491 85.445 358.67 85.6115C358.849 85.7779 359.093 85.8612 359.343 85.8265C365.199 85.0635 370.631 85.341 375.476 86.6449C375.726 86.7073 375.999 86.6518 376.214 86.4854C376.422 86.312 376.543 86.0554 376.543 85.7849V84.4948C376.543 84.0925 376.278 83.7318 375.898 83.6347C370.789 82.31 365.156 82.0256 359.128 82.7955Z" fill="#999999"/>
<path d="M359.128 91.3405C358.698 91.396 358.383 91.7775 358.383 92.2214V93.4837C358.383 93.7403 358.491 93.9831 358.67 94.1565C358.849 94.3299 359.093 94.3993 359.343 94.3715C365.199 93.6086 370.631 93.8791 375.476 95.183C375.726 95.2524 375.999 95.1969 376.214 95.0166C376.422 94.8501 376.543 94.5935 376.543 94.316V93.0259C376.543 92.6167 376.278 92.263 375.898 92.1659C370.796 90.8481 365.156 90.5706 359.128 91.3405Z" fill="#999999"/>
<path d="M394.324 66.5307C393.944 66.6278 393.679 66.9816 393.679 67.3908V68.6739C393.679 68.9514 393.801 69.2149 394.009 69.3814C394.216 69.5479 394.489 69.6103 394.747 69.534C399.599 68.237 405.031 67.9665 410.879 68.7225C411.123 68.7502 411.366 68.6739 411.553 68.5005C411.739 68.3341 411.839 68.0913 411.839 67.8347V66.5724C411.839 66.1215 411.524 65.74 411.094 65.6915C405.06 64.9355 399.419 65.2129 394.324 66.5307Z" fill="#999999"/>
<path d="M394.324 75.0758C393.944 75.1729 393.679 75.5336 393.679 75.9358V77.2259C393.679 77.5034 393.801 77.76 394.009 77.9265C394.216 78.0929 394.489 78.1484 394.747 78.079C399.599 76.782 405.024 76.5115 410.879 77.2675C411.123 77.3022 411.366 77.219 411.553 77.0525C411.739 76.8861 411.839 76.6364 411.839 76.3867V75.1243C411.839 74.6666 411.524 74.292 411.094 74.2365C405.052 73.4805 399.412 73.7649 394.324 75.0758Z" fill="#999999"/>
<path d="M394.324 83.6209C393.944 83.718 393.679 84.0786 393.679 84.4809V85.771C393.679 86.0415 393.801 86.3051 394.009 86.4715C394.216 86.638 394.489 86.6935 394.747 86.631C399.599 85.3271 405.031 85.0566 410.879 85.8126C411.123 85.8473 411.366 85.7641 411.553 85.5976C411.739 85.4311 411.839 85.1814 411.839 84.9317V83.6763C411.839 83.2255 411.524 82.851 411.094 82.7886C405.06 82.0256 399.419 82.31 394.324 83.6209Z" fill="#999999"/>
<path d="M394.324 92.1728C393.944 92.2699 393.679 92.6237 393.679 93.0329V94.316C393.679 94.5935 393.801 94.8501 394.009 95.0166C394.216 95.19 394.489 95.2524 394.747 95.183C399.599 93.8791 405.024 93.6086 410.879 94.3715C411.123 94.3993 411.366 94.3299 411.553 94.1565C411.739 93.9831 411.839 93.7404 411.839 93.4837V92.2214C411.839 91.7775 411.524 91.396 411.094 91.3405C405.052 90.5706 399.412 90.8481 394.324 92.1728Z" fill="#999999"/>
<mask id="mask1_513_19" style="mask-type:luminance" maskUnits="userSpaceOnUse" x="342" y="53" width="86" height="69">
<path d="M425.126 60.6144C424.474 60.4618 423.836 60.33 423.198 60.1982C422.854 59.1162 421.973 58.2493 420.805 57.9579C420.382 57.8539 419.973 57.7568 419.558 57.6597C419.378 56.3557 418.497 55.2668 417.279 54.9339C399.527 50.0371 389.006 55.6344 385 58.5822C380.994 55.6483 370.452 50.0441 352.728 54.9339C351.481 55.2737 350.593 56.4043 350.442 57.7568C350.163 57.8262 349.89 57.8816 349.611 57.9579C348.471 58.2423 347.597 59.0677 347.239 60.115C346.465 60.2676 345.684 60.4341 344.888 60.6144C343.182 60.9959 342 62.3623 342 63.9298V112.044C342 113.098 342.538 114.083 343.469 114.735C344.394 115.387 345.583 115.616 346.73 115.367C362.317 111.961 372.666 114.007 378.507 116.449L378.106 119.008C377.912 120.118 378.543 121.179 379.403 121.179H390.597C391.45 121.179 392.088 120.118 391.894 119.008L391.493 116.719C397.327 114.278 407.675 111.961 423.263 115.367C424.41 115.616 425.635 115.38 426.545 114.728C427.462 114.09 428 113.105 428 112.051V63.9298C428 62.3623 426.817 60.9959 425.126 60.6144Z" fill="white"/>
</mask>
<g mask="url(#mask1_513_19)">
<path d="M404.085 52.6173H412.735V71.1223L409.431 67.1133C409.152 66.7735 408.779 66.6001 408.413 66.6001C408.048 66.6001 407.675 66.7735 407.396 67.1133L404.092 71.1223V52.6173H404.085Z" fill="#ED1C24"/>
</g>
<mask id="mask2_513_19" style="mask-type:luminance" maskUnits="userSpaceOnUse" x="342" y="53" width="86" height="69">
<path d="M425.126 60.6144C424.474 60.4618 423.836 60.33 423.198 60.1982C422.854 59.1162 421.973 58.2493 420.805 57.9579C420.382 57.8539 419.973 57.7568 419.558 57.6597C419.378 56.3557 418.497 55.2668 417.279 54.9339C399.527 50.0371 389.006 55.6344 385 58.5822C380.994 55.6483 370.452 50.0441 352.728 54.9339C351.481 55.2737 350.593 56.4043 350.442 57.7568C350.163 57.8262 349.89 57.8816 349.611 57.9579C348.471 58.2423 347.597 59.0677 347.239 60.115C346.465 60.2676 345.684 60.4341 344.888 60.6144C343.182 60.9959 342 62.3623 342 63.9298V112.044C342 113.098 342.538 114.083 343.469 114.735C344.394 115.387 345.583 115.616 346.73 115.367C362.317 111.961 372.666 114.007 378.507 116.449L378.106 119.008C377.912 120.118 378.543 121.179 379.403 121.179H390.597C391.45 121.179 392.088 120.118 391.894 119.008L391.493 116.719C397.327 114.278 407.675 111.961 423.263 115.367C424.41 115.616 425.635 115.38 426.545 114.728C427.462 114.09 428 113.105 428 112.051V63.9298C428 62.3623 426.817 60.9959 425.126 60.6144Z" fill="white"/>
</mask>
<g mask="url(#mask2_513_19)">
<path d="M382.105 52.9987H387.888V112.731H382.105V52.9987Z" fill="url(#paint12_linear_513_19)"/>
</g>
<path d="M31.3169 69.68H96.1928V115.442H31.3169V69.68Z" fill="url(#paint13_radial_513_19)"/>
<path d="M31.3169 69.68H96.1928V115.442H31.3169V69.68Z" fill="url(#paint14_linear_513_19)"/>
<path opacity="0.5" d="M31.3169 69.68H51.6254V115.442H31.3169V69.68Z" fill="url(#paint15_linear_513_19)"/>
<path opacity="0.5" d="M75.8845 115.442H96.193V69.68H75.8845V115.442Z" fill="url(#paint16_linear_513_19)"/>
<path opacity="0.2" d="M94.4552 71.4864V117.249H96.1929C96.5115 117.249 96.7722 117.52 96.7722 117.851V118.453H30.7377V117.851C30.7377 117.52 30.9984 117.249 31.317 117.249H33.0547V71.4864H94.4552ZM96.1929 69.68H31.317V115.442C30.0369 115.442 29 116.52 29 117.851V120.26H98.5099V117.851C98.5099 116.52 97.4731 115.442 96.1929 115.442V69.68Z" fill="#424242"/>
<path d="M97.195 72.0886H30.3148C29.6197 72.0886 29.081 71.4563 29.1679 70.7337L33.1821 54.6265C33.4486 53.5668 34.3696 52.8201 35.4238 52.8201H92.0802C93.1344 52.8201 94.0554 53.5608 94.3219 54.6265L98.3419 70.7398C98.4346 71.4563 97.8959 72.0886 97.195 72.0886Z" fill="url(#paint17_radial_513_19)"/>
<path opacity="0.2" d="M92.0862 54.6265C92.3526 54.6265 92.5785 54.8132 92.648 55.0781L96.4363 70.2821H31.0738L34.8679 55.0781C34.9316 54.8132 35.1633 54.6265 35.4298 54.6265H92.0862ZM92.0862 52.8201H35.424C34.3697 52.8201 33.4487 53.5608 33.1823 54.6265L29.1623 70.7337C29.0754 71.4563 29.6141 72.0886 30.315 72.0886H97.2009C97.896 72.0886 98.4347 71.4563 98.3478 70.7337L94.3279 54.6265C94.0614 53.5608 93.1404 52.8201 92.0862 52.8201Z" fill="#424242"/>
<path d="M63.755 48.003L49.853 62.4543V115.442H77.657V62.4543L63.755 48.003Z" fill="url(#paint18_radial_513_19)"/>
<path d="M59.7002 103.4H67.8097V115.442H59.7002V103.4Z" fill="#4FC3F7"/>
<path d="M59.1211 103.4H60.2796V115.442H59.1211V103.4Z" fill="#EEEEEE"/>
<path d="M67.2305 103.4H68.389V115.442H67.2305V103.4Z" fill="#EEEEEE"/>
<path d="M38.9746 76.3035H44.7092V88.3463H38.9746V76.3035Z" fill="#4FC3F7"/>
<path d="M45.2191 75.7014H38.2681V88.9484H45.2191V75.7014ZM44.0953 87.7441H39.4613V82.927H44.0953V87.7441ZM44.0953 81.7227H39.4613V76.9056H44.0953V81.7227Z" fill="#EEEEEE"/>
<path d="M45.7983 88.9484H37.6888C37.5266 88.9484 37.3992 88.8159 37.3992 88.6473V88.0452C37.3992 87.8766 37.5266 87.7441 37.6888 87.7441H45.7983C45.9605 87.7441 46.0879 87.8766 46.0879 88.0452V88.6473C46.0879 88.8159 45.9605 88.9484 45.7983 88.9484Z" fill="#EEEEEE"/>
<path d="M45.7983 76.9056H37.6888C37.5266 76.9056 37.3992 76.7732 37.3992 76.6046V76.0024C37.3992 75.8338 37.5266 75.7014 37.6888 75.7014H45.7983C45.9605 75.7014 46.0879 75.8338 46.0879 76.0024V76.6046C46.0879 76.7732 45.9605 76.9056 45.7983 76.9056Z" fill="#EEEEEE"/>
<path d="M53.7456 82.3249H59.4802V94.3677H53.7456V82.3249Z" fill="#4FC3F7"/>
<path d="M59.9898 81.7227H53.0388V94.9698H59.9898V81.7227ZM58.8661 93.7655H54.2321V88.9484H58.8661V93.7655ZM58.8661 87.7441H54.2321V82.927H58.8661V87.7441Z" fill="#EEEEEE"/>
<path d="M60.569 94.9698H52.4595C52.2974 94.9698 52.1699 94.8373 52.1699 94.6687V94.0666C52.1699 93.898 52.2974 93.7655 52.4595 93.7655H60.569C60.7312 93.7655 60.8587 93.898 60.8587 94.0666V94.6687C60.8587 94.8373 60.7312 94.9698 60.569 94.9698Z" fill="#EEEEEE"/>
<path d="M60.569 82.927H52.4595C52.2974 82.927 52.1699 82.7946 52.1699 82.626V82.0238C52.1699 81.8552 52.2974 81.7227 52.4595 81.7227H60.569C60.7312 81.7227 60.8587 81.8552 60.8587 82.0238V82.626C60.8587 82.7946 60.7312 82.927 60.569 82.927Z" fill="#EEEEEE"/>
<path d="M67.6475 82.3249H73.382V94.3677H67.6475V82.3249Z" fill="#4FC3F7"/>
<path d="M73.8919 81.7227H66.9409V94.9698H73.8919V81.7227ZM72.7682 93.7655H68.1342V88.9484H72.7682V93.7655ZM72.7682 87.7441H68.1342V82.927H72.7682V87.7441Z" fill="#EEEEEE"/>
<path d="M74.4711 94.9698H66.3616C66.1995 94.9698 66.072 94.8373 66.072 94.6687V94.0666C66.072 93.898 66.1995 93.7655 66.3616 93.7655H74.4711C74.6333 93.7655 74.7608 93.898 74.7608 94.0666V94.6687C74.7608 94.8373 74.6333 94.9698 74.4711 94.9698Z" fill="#EEEEEE"/>
<path d="M74.4711 82.927H66.3616C66.1995 82.927 66.072 82.7946 66.072 82.626V82.0238C66.072 81.8552 66.1995 81.7227 66.3616 81.7227H74.4711C74.6333 81.7227 74.7608 81.8552 74.7608 82.0238V82.626C74.7608 82.7946 74.6333 82.927 74.4711 82.927Z" fill="#EEEEEE"/>
<path d="M38.9746 94.3676H44.7092V106.41H38.9746V94.3676Z" fill="#4FC3F7"/>
<path d="M45.2191 93.7655H38.2681V107.013H45.2191V93.7655ZM44.0953 105.808H39.4613V100.991H44.0953V105.808ZM44.0953 99.7869H39.4613V94.9698H44.0953V99.7869Z" fill="#EEEEEE"/>
<path d="M45.7983 107.013H37.6888C37.5266 107.013 37.3992 106.88 37.3992 106.711V106.109C37.3992 105.941 37.5266 105.808 37.6888 105.808H45.7983C45.9605 105.808 46.0879 105.941 46.0879 106.109V106.711C46.0879 106.88 45.9605 107.013 45.7983 107.013Z" fill="#EEEEEE"/>
<path d="M45.7983 94.9698H37.6888C37.5266 94.9698 37.3992 94.8373 37.3992 94.6687V94.0666C37.3992 93.898 37.5266 93.7655 37.6888 93.7655H45.7983C45.9605 93.7655 46.0879 93.898 46.0879 94.0666V94.6687C46.0879 94.8373 45.9605 94.9698 45.7983 94.9698Z" fill="#EEEEEE"/>
<path d="M83.0208 76.3035H88.7553V88.3463H83.0208V76.3035Z" fill="#4FC3F7"/>
<path d="M89.2652 75.7014H82.3142V88.9484H89.2652V75.7014ZM88.1415 87.7441H83.5075V82.927H88.1415V87.7441ZM88.1415 81.7227H83.5075V76.9056H88.1415V81.7227Z" fill="#EEEEEE"/>
<path d="M89.8444 88.9484H81.7349C81.5727 88.9484 81.4453 88.8159 81.4453 88.6473V88.0452C81.4453 87.8766 81.5727 87.7441 81.7349 87.7441H89.8444C90.0066 87.7441 90.1341 87.8766 90.1341 88.0452V88.6473C90.1341 88.8159 90.0066 88.9484 89.8444 88.9484Z" fill="#EEEEEE"/>
<path d="M89.8444 76.9056H81.7349C81.5727 76.9056 81.4453 76.7732 81.4453 76.6046V76.0024C81.4453 75.8338 81.5727 75.7014 81.7349 75.7014H89.8444C90.0066 75.7014 90.1341 75.8338 90.1341 76.0024V76.6046C90.1341 76.7732 90.0066 76.9056 89.8444 76.9056Z" fill="#EEEEEE"/>
<path d="M83.0208 94.3676H88.7553V106.41H83.0208V94.3676Z" fill="#4FC3F7"/>
<path d="M89.2652 93.7655H82.3142V107.013H89.2652V93.7655ZM88.1415 105.808H83.5075V100.991H88.1415V105.808ZM88.1415 99.7869H83.5075V94.9698H88.1415V99.7869Z" fill="#EEEEEE"/>
<path d="M89.8444 107.013H81.7349C81.5727 107.013 81.4453 106.88 81.4453 106.711V106.109C81.4453 105.941 81.5727 105.808 81.7349 105.808H89.8444C90.0066 105.808 90.1341 105.941 90.1341 106.109V106.711C90.1341 106.88 90.0066 107.013 89.8444 107.013Z" fill="#EEEEEE"/>
<path d="M89.8444 94.9698H81.7349C81.5727 94.9698 81.4453 94.8373 81.4453 94.6687V94.0666C81.4453 93.898 81.5727 93.7655 81.7349 93.7655H89.8444C90.0066 93.7655 90.1341 93.898 90.1341 94.0666V94.6687C90.1341 94.8373 90.0066 94.9698 89.8444 94.9698Z" fill="#EEEEEE"/>
<path d="M63.7551 78.8987C58.9648 78.8987 55.0664 74.8464 55.0664 69.8667C55.0664 64.887 58.9648 60.8346 63.7551 60.8346C68.5455 60.8346 72.4439 64.887 72.4439 69.8667C72.4439 74.8524 68.5455 78.8987 63.7551 78.8987Z" fill="#E0E0E0"/>
<path d="M63.7551 61.4367C68.2327 61.4367 71.8645 65.2121 71.8645 69.8666C71.8645 74.5212 68.2327 78.2966 63.7551 78.2966C59.2775 78.2966 55.6456 74.5212 55.6456 69.8666C55.6456 65.2121 59.2775 61.4367 63.7551 61.4367ZM63.7551 60.2324C58.6461 60.2324 54.4871 64.5558 54.4871 69.8666C54.4871 75.1775 58.6461 79.5008 63.7551 79.5008C68.864 79.5008 73.023 75.1775 73.023 69.8666C73.023 64.5558 68.864 60.2324 63.7551 60.2324Z" fill="#AAA19F"/>
<path d="M71.2851 69.8727C71.2851 74.196 67.9139 77.7005 63.7549 77.7005C59.5958 77.7005 56.2246 74.196 56.2246 69.8727C56.2246 65.5493 59.5958 62.0449 63.7549 62.0449C67.9139 62.0388 71.2851 65.5433 71.2851 69.8727Z" fill="#EEEEEE"/>
<path d="M64.3343 64.4775C64.3343 64.8087 64.0736 65.0796 63.755 65.0796C63.4364 65.0796 63.1758 64.8087 63.1758 64.4775C63.1758 64.1463 63.4364 63.8754 63.755 63.8754C64.0794 63.8754 64.3343 64.1463 64.3343 64.4775Z" fill="#9E9E9E"/>
<path d="M67.8619 66.4585C67.636 66.6934 67.2711 66.6934 67.0452 66.4585C66.8193 66.2237 66.8193 65.8383 67.0452 65.6035C67.2711 65.3687 67.636 65.3687 67.8619 65.6035C68.0878 65.8383 68.0878 66.2237 67.8619 66.4585Z" fill="#9E9E9E"/>
<path d="M69.0031 70.4447C68.6845 70.4447 68.4238 70.1737 68.4238 69.8426C68.4238 69.5114 68.6845 69.2404 69.0031 69.2404C69.3217 69.2404 69.5823 69.5114 69.5823 69.8426C69.5823 70.1737 69.3217 70.4447 69.0031 70.4447Z" fill="#9E9E9E"/>
<path d="M67.0974 74.1117C66.8715 73.8769 66.8715 73.4975 67.0974 73.2567C67.3233 73.0219 67.694 73.0219 67.9199 73.2567C68.1459 73.4915 68.1459 73.8769 67.9199 74.1117C67.6882 74.3466 67.3233 74.3466 67.0974 74.1117Z" fill="#9E9E9E"/>
<path d="M63.2625 75.2979C63.2625 74.9668 63.5232 74.6958 63.8418 74.6958C64.1604 74.6958 64.421 74.9668 64.421 75.2979C64.421 75.6291 64.1604 75.9001 63.8418 75.9001C63.5174 75.9001 63.2568 75.6291 63.2625 75.2979Z" fill="#9E9E9E"/>
<path d="M59.7351 73.3169C59.961 73.0821 60.3259 73.0821 60.5518 73.3169C60.7778 73.5517 60.7778 73.9311 60.5518 74.1659C60.3259 74.4008 59.9552 74.4008 59.7351 74.1659C59.5092 73.9311 59.5092 73.5517 59.7351 73.3169Z" fill="#9E9E9E"/>
<path d="M58.5939 69.3247C58.9125 69.3247 59.1731 69.5897 59.1731 69.9269C59.1731 70.2581 58.9125 70.529 58.5939 70.529C58.2753 70.529 58.0146 70.2581 58.0146 69.9269C58.0146 69.5957 58.2753 69.3247 58.5939 69.3247Z" fill="#9E9E9E"/>
<path d="M60.4998 65.6637C60.7257 65.8985 60.7257 66.2779 60.4998 66.5187C60.2739 66.7536 59.9032 66.7536 59.6772 66.5187C59.4513 66.2839 59.4513 65.9046 59.6772 65.6637C59.9032 65.4289 60.2739 65.4289 60.4998 65.6637Z" fill="#9E9E9E"/>
<path d="M63.7841 71.0228C64.4175 71.0228 64.931 70.489 64.931 69.8305C64.931 69.1721 64.4175 68.6383 63.7841 68.6383C63.1507 68.6383 62.6372 69.1721 62.6372 69.8305C62.6372 70.489 63.1507 71.0228 63.7841 71.0228Z" fill="#616161"/>
<path d="M63.8361 70.1978C63.4133 70.1978 63.0715 69.8426 63.0715 69.403V64.598C63.0715 64.1584 63.4133 63.8031 63.8361 63.8031C64.259 63.8031 64.6008 64.1584 64.6008 64.598V69.403C64.6008 69.8426 64.259 70.1978 63.8361 70.1978Z" fill="#616161"/>
<path d="M64.0563 69.4753C64.3575 69.7884 64.3575 70.2882 64.0563 70.6013L62.1389 72.5944C61.8377 72.9075 61.357 72.9075 61.0557 72.5944C60.7545 72.2812 60.7545 71.7815 61.0557 71.4684L62.9731 69.4753C63.2743 69.1682 63.7608 69.1682 64.0563 69.4753Z" fill="#616161"/>
<path d="M31.3459 117.026C30.6913 116.207 30.3785 115.172 30.4596 114.1C30.587 112.36 31.8266 110.848 33.4775 110.433C33.7787 110.354 34.0915 110.318 34.3985 110.318C34.6418 110.318 34.8909 110.342 35.1399 110.391C35.1747 110.397 35.2094 110.403 35.25 110.403C35.5049 110.403 35.7308 110.228 35.8061 109.969C36.2926 108.229 37.8508 107.013 39.5944 107.013C40.9672 107.013 42.2242 107.741 42.9482 108.951C43.0583 109.132 43.2436 109.234 43.4406 109.234C43.4869 109.234 43.5333 109.228 43.5796 109.216C43.8866 109.138 44.2052 109.096 44.518 109.096C44.7555 109.096 44.9988 109.12 45.2363 109.162C46.9277 109.481 48.2773 110.969 48.4395 112.697C48.4916 113.257 48.3932 113.811 48.1499 114.25C48.0224 114.491 48.0456 114.816 48.2368 115.009C48.6133 115.4 48.6307 116.069 48.4511 116.526C48.3932 116.677 48.2194 117.02 47.924 117.02H31.3459V117.026Z" fill="url(#paint19_radial_513_19)"/>
<path d="M39.5888 107.615C40.7589 107.615 41.8305 108.235 42.4503 109.271C42.6646 109.632 43.0411 109.837 43.435 109.837C43.5277 109.837 43.6204 109.825 43.713 109.8C43.9795 109.734 44.246 109.698 44.5182 109.698C44.7209 109.698 44.9295 109.716 45.1322 109.758C46.5745 110.029 47.7272 111.294 47.8663 112.757C47.9068 113.197 47.8315 113.624 47.6519 113.961C47.3218 114.569 47.5419 115.135 47.8257 115.43C47.9416 115.551 47.9995 115.756 47.9879 115.984C47.9763 116.207 47.901 116.358 47.8547 116.418H31.6357C31.1897 115.756 30.9811 114.961 31.0391 114.136C31.1491 112.649 32.2091 111.366 33.6167 111.011C33.8774 110.945 34.138 110.914 34.3987 110.914C34.6072 110.914 34.8216 110.932 35.0301 110.975C35.1054 110.987 35.1749 110.999 35.2444 110.999C35.7484 110.999 36.2118 110.656 36.3566 110.132C36.7736 108.65 38.1059 107.615 39.5888 107.615ZM39.5888 106.41C37.5267 106.41 35.7889 107.844 35.2444 109.794C34.9722 109.74 34.6883 109.71 34.3987 109.71C34.057 109.71 33.7036 109.752 33.3387 109.843C31.4445 110.324 30.0312 112.028 29.8806 114.046C29.7763 115.43 30.2571 116.701 31.0854 117.622H47.9242C49.0769 117.622 49.6098 115.581 48.6425 114.581C48.6367 114.575 49.129 113.835 49.0132 112.643C48.822 110.607 47.2696 108.939 45.3349 108.572C45.0569 108.518 44.7847 108.494 44.5182 108.494C44.1475 108.494 43.7826 108.542 43.4408 108.632C42.6414 107.302 41.2165 106.41 39.5888 106.41Z" fill="#689F38"/>
<path d="M44.0432 111.703C44.0432 111.703 44.0837 110.415 43.0874 109.036" stroke="#689F38" stroke-width="1.43579" stroke-miterlimit="10" stroke-linecap="round" stroke-linejoin="round"/>
<path d="M35.3196 110.336C36.4897 110.354 37.6366 111.312 37.8104 112.486" stroke="#689F38" stroke-width="1.43579" stroke-miterlimit="10" stroke-linecap="round" stroke-linejoin="round"/>
<path d="M36.5244 113.022C37.5555 112.534 38.9399 112.612 40.0057 113.178" stroke="#689F38" stroke-width="1.43579" stroke-miterlimit="10" stroke-linecap="round" stroke-linejoin="round"/>
<path d="M79.4584 116.424C79.1572 116.424 78.9892 116.081 78.9313 115.93C78.7517 115.479 78.7691 114.804 79.1514 114.407C79.3368 114.214 79.36 113.889 79.2325 113.654C78.995 113.215 78.8908 112.661 78.9429 112.101C79.1051 110.372 80.4547 108.885 82.1461 108.566C82.3836 108.524 82.6269 108.5 82.8644 108.5C83.1772 108.5 83.4958 108.542 83.8028 108.62C83.8491 108.632 83.8955 108.638 83.9418 108.638C84.1388 108.638 84.3241 108.536 84.4342 108.355C85.164 107.139 86.4152 106.416 87.788 106.416C89.5316 106.416 91.0898 107.633 91.5763 109.373C91.6516 109.632 91.8775 109.806 92.1324 109.806C92.1672 109.806 92.2019 109.8 92.2425 109.794C92.4915 109.746 92.7406 109.722 92.9839 109.722C93.2909 109.722 93.6037 109.758 93.9049 109.837C95.5558 110.252 96.7954 111.763 96.9228 113.504C97.0039 114.581 96.6853 115.611 96.0366 116.43H79.4584V116.424Z" fill="url(#paint20_radial_513_19)"/>
<path d="M87.7882 107.013C89.2769 107.013 90.6033 108.048 91.0204 109.535C91.1652 110.059 91.6286 110.403 92.1326 110.403C92.2021 110.403 92.2774 110.397 92.3469 110.378C92.5554 110.336 92.7697 110.318 92.9783 110.318C93.2389 110.318 93.5054 110.354 93.7602 110.415C95.1678 110.77 96.2278 112.058 96.3379 113.54C96.3958 114.365 96.1873 115.159 95.7413 115.822H79.5223C79.476 115.756 79.4064 115.605 79.3891 115.388C79.3775 115.159 79.4354 114.955 79.5455 114.834C79.8351 114.539 80.0552 113.973 79.725 113.359C79.5455 113.022 79.4702 112.594 79.5107 112.155C79.6497 110.686 80.7966 109.427 82.2448 109.156C82.4475 109.12 82.656 109.096 82.8588 109.096C83.131 109.096 83.3975 109.132 83.6639 109.198C83.7566 109.222 83.8493 109.234 83.942 109.234C84.3359 109.234 84.7124 109.024 84.9267 108.668C85.5465 107.633 86.6181 107.013 87.7882 107.013ZM87.7882 105.808C86.1663 105.808 84.7413 106.699 83.942 108.036C83.5944 107.946 83.2353 107.898 82.8646 107.898C82.5981 107.898 82.3259 107.922 82.0478 107.976C80.1073 108.337 78.5607 110.005 78.3696 112.046C78.2537 113.245 78.7519 113.979 78.7403 113.985C77.773 114.991 78.3059 117.026 79.4586 117.026H96.2974C97.1257 116.105 97.6007 114.834 97.5022 113.449C97.3516 111.432 95.9382 109.722 94.0441 109.246C93.6849 109.156 93.3316 109.114 92.984 109.114C92.6944 109.114 92.4106 109.144 92.1383 109.198C91.5881 107.241 89.8503 105.808 87.7882 105.808Z" fill="#689F38"/>
<path d="M83.3393 111.101C83.3393 111.101 83.2988 109.812 84.2951 108.434" stroke="#689F38" stroke-width="1.43579" stroke-miterlimit="10" stroke-linecap="round" stroke-linejoin="round"/>
<path d="M92.063 109.734C90.893 109.752 89.746 110.71 89.5723 111.884" stroke="#689F38" stroke-width="1.43579" stroke-miterlimit="10" stroke-linecap="round" stroke-linejoin="round"/>
<path d="M90.858 112.42C89.8269 111.932 88.4425 112.01 87.3767 112.576" stroke="#689F38" stroke-width="1.43579" stroke-miterlimit="10" stroke-linecap="round" stroke-linejoin="round"/>
<path d="M98.5099 120.26H29V117.851C29 116.52 30.0369 115.442 31.317 115.442H96.1929C97.4731 115.442 98.5099 116.52 98.5099 117.851V120.26Z" fill="#78909C"/>
<path d="M68.4179 103.4H59.0919C58.4663 103.4 57.9624 102.876 57.9624 102.226V102.165C57.9624 101.515 58.4663 100.991 59.0919 100.991H68.4179C69.0434 100.991 69.5474 101.515 69.5474 102.165V102.226C69.5474 102.876 69.0434 103.4 68.4179 103.4Z" fill="#EEEEEE"/>
<path opacity="0.2" d="M96.1929 115.442H95.9728V117.249H96.1929C96.5115 117.249 96.7722 117.52 96.7722 117.851V118.453H30.7377V117.851C30.7377 117.574 30.9231 117.345 31.1722 117.279V115.455C29.9616 115.539 29 116.574 29 117.851V120.26H98.5099V117.851C98.5099 116.52 97.4731 115.442 96.1929 115.442Z" fill="#424242"/>
<path d="M79.9739 67.2714C79.6785 67.2714 79.383 67.151 79.1571 66.9162L63.7549 50.9113L48.3526 66.9162C47.9008 67.3858 47.1652 67.3858 46.7134 66.9162C46.2616 66.4465 46.2616 65.6818 46.7134 65.2121L62.9324 48.3523C63.3842 47.8826 64.1198 47.8826 64.5716 48.3523L80.7906 65.2121C81.2424 65.6818 81.2424 66.4465 80.7906 66.9162C80.5647 67.151 80.2693 67.2714 79.9739 67.2714Z" fill="#C62828"/>
<path d="M128.29 309C119.888 309 113.013 315.396 113.013 323.243V325.485C113.013 327.924 114.541 329.903 117.596 330.1V323.243C117.596 317.77 122.387 313.286 128.29 313.286C134.192 313.286 138.984 317.77 138.984 323.243V330.1C141.275 329.969 143.567 327.924 143.567 325.485V323.243C143.567 315.396 136.692 309 128.29 309Z" fill="#689F38"/>
<path d="M140.65 370.982H115.999C114.471 370.982 113.152 369.795 113.152 368.279V367.817C113.152 366.367 114.402 365.114 115.999 365.114H140.72C142.247 365.114 143.567 366.301 143.567 367.817V368.345C143.497 369.795 142.247 370.982 140.65 370.982Z" fill="#29B6F6"/>
<path d="M102.458 388.126H154.052C157.593 388.126 160.51 385.555 160.51 382.456V346.387C160.51 329.507 146.066 317.11 128.29 317.11C110.513 317.11 96 329.441 96 346.387V382.456C96 385.555 98.9165 388.126 102.458 388.126Z" fill="url(#paint21_linear_513_19)"/>
<path d="M145.65 381.928H111.069C107.249 381.928 104.125 378.961 104.125 375.334V355.487C104.125 354.366 105.027 353.509 106.208 353.509H150.441C151.622 353.509 152.524 354.366 152.524 355.487V375.334C152.594 378.961 149.469 381.928 145.65 381.928Z" fill="url(#paint22_radial_513_19)"/>
<path d="M135.373 340.585H121.346C118.429 340.585 115.999 338.343 115.999 335.507C115.999 332.672 118.36 330.43 121.346 330.43H135.373C138.289 330.43 140.719 332.672 140.719 335.507C140.719 338.277 138.289 340.585 135.373 340.585Z" fill="#FAB300"/>
<path opacity="0.2" d="M128.29 319.089C136.484 319.089 144.053 321.858 149.677 326.869C155.371 331.947 158.496 338.87 158.496 346.387V382.456C158.496 384.5 156.552 386.148 154.121 386.148H102.458C100.027 386.148 98.0831 384.5 98.0831 382.456V346.387C98.0831 338.87 101.208 331.881 106.833 326.869C112.527 321.792 120.096 319.089 128.29 319.089ZM128.29 317.11C110.513 317.11 96.0693 329.507 96.0693 346.387V382.456C96.0693 385.621 98.9858 388.126 102.527 388.126H154.052C157.593 388.126 160.51 385.555 160.51 382.456V346.387C160.51 329.441 146.066 317.11 128.29 317.11Z" fill="#424242"/>
<path opacity="0.2" d="M150.511 354.827C150.927 354.827 151.205 355.091 151.205 355.487V375.334C151.205 378.236 148.705 380.609 145.65 380.609H111.069C108.013 380.609 105.513 378.236 105.513 375.334V355.487C105.513 355.091 105.861 354.827 106.208 354.827H150.511ZM150.511 353.509H106.208C105.027 353.509 104.125 354.366 104.125 355.487V375.334C104.125 378.961 107.249 381.928 111.069 381.928H145.58C149.4 381.928 152.524 378.961 152.524 375.334V355.487C152.594 354.432 151.691 353.509 150.511 353.509Z" fill="#424242"/>
<path d="M145.719 368.74H111.138C107.319 368.74 104.194 365.114 104.194 361.487V354.036C104.194 352.585 105.444 351.399 106.971 351.399H149.885C151.413 351.399 152.663 352.585 152.663 354.036V361.487C152.663 365.114 149.538 368.74 145.719 368.74Z" fill="url(#paint23_linear_513_19)"/>
<path opacity="0.2" d="M149.885 352.717C150.649 352.717 151.274 353.311 151.274 354.036V361.487C151.274 364.916 148.358 367.422 145.719 367.422H111.138C108.499 367.422 105.583 364.916 105.583 361.487V354.036C105.583 353.311 106.208 352.717 106.971 352.717H149.885ZM149.885 351.399H106.971C105.444 351.399 104.194 352.585 104.194 354.036V361.487C104.194 365.114 107.319 368.74 111.138 368.74H145.719C149.538 368.74 152.663 365.114 152.663 361.487V354.036C152.663 352.585 151.413 351.399 149.885 351.399Z" fill="#424242"/>
<path d="M128.359 373.884C126.415 373.884 124.887 372.433 124.887 370.587V366.169C124.887 364.323 126.415 362.872 128.359 362.872C130.304 362.872 131.831 364.323 131.831 366.169V370.587C131.831 372.433 130.304 373.884 128.359 373.884Z" fill="#FFEB3B"/>
<path opacity="0.2" d="M128.359 364.191C129.54 364.191 130.442 365.114 130.442 366.169V370.587C130.442 371.708 129.47 372.565 128.359 372.565C127.248 372.565 126.276 371.642 126.276 370.587V366.169C126.276 365.048 127.179 364.191 128.359 364.191ZM128.359 362.872C126.415 362.872 124.887 364.323 124.887 366.169V370.587C124.887 372.433 126.415 373.884 128.359 373.884C130.304 373.884 131.831 372.433 131.831 370.587V366.169C131.831 364.323 130.304 362.872 128.359 362.872Z" fill="#424242"/>
<path opacity="0.2" d="M135.373 332.408C137.178 332.408 138.636 333.793 138.636 335.507C138.636 337.222 137.178 338.606 135.373 338.606H121.346C119.54 338.606 118.082 337.222 118.082 335.507C118.082 333.793 119.54 332.408 121.346 332.408H135.373ZM135.373 330.43H121.346C118.429 330.43 115.999 332.672 115.999 335.507C115.999 338.343 118.36 340.585 121.346 340.585H135.373C138.289 340.585 140.719 338.343 140.719 335.507C140.719 332.672 138.289 330.43 135.373 330.43Z" fill="#424242"/>
<defs>
<linearGradient id="paint0_linear_513_19" x1="342.909" y1="291.999" x2="342.909" y2="327.476" gradientUnits="userSpaceOnUse">
<stop stop-color="#212121"/>
<stop offset="0.7026" stop-color="#616161"/>
</linearGradient>
<linearGradient id="paint1_linear_513_19" x1="308.07" y1="305.711" x2="377.505" y2="305.711" gradientUnits="userSpaceOnUse">
<stop offset="0.0012001" stop-color="#BFBEBE"/>
<stop offset="0.15" stop-color="#212121" stop-opacity="0"/>
<stop offset="0.8505" stop-color="#212121" stop-opacity="0"/>
<stop offset="1" stop-color="#BFBEBE"/>
</linearGradient>
<linearGradient id="paint2_linear_513_19" x1="288" y1="294.003" x2="395.99" y2="294.003" gradientUnits="userSpaceOnUse">
<stop offset="0.0012001" stop-color="#BFBEBE"/>
<stop offset="0.3" stop-color="#212121" stop-opacity="0"/>
<stop offset="0.7" stop-color="#212121" stop-opacity="0"/>
<stop offset="1" stop-color="#BFBEBE"/>
</linearGradient>
<linearGradient id="paint3_linear_513_19" x1="342.086" y1="247.474" x2="342.086" y2="288.452" gradientUnits="userSpaceOnUse">
<stop stop-color="#9E9E9E"/>
<stop offset="0.7151" stop-color="#616161"/>
</linearGradient>
<radialGradient id="paint4_radial_513_19" cx="0" cy="0" r="1" gradientUnits="userSpaceOnUse" gradientTransform="translate(343.034 281.138) scale(7.87843 3.66664)">
<stop offset="0.3965" stop-color="#757575"/>
<stop offset="0.9968" stop-color="#424242"/>
</radialGradient>
<linearGradient id="paint5_linear_513_19" x1="591.464" y1="250.583" x2="591.464" y2="163" gradientUnits="userSpaceOnUse">
<stop offset="0.0029098" stop-color="#212121"/>
<stop offset="1" stop-color="#4D4D4D"/>
</linearGradient>
<linearGradient id="paint6_linear_513_19" x1="591.47" y1="238.927" x2="591.47" y2="174.659" gradientUnits="userSpaceOnUse">
<stop offset="0.0085898" stop-color="#9E9E9E"/>
<stop offset="0.9987" stop-color="#616161"/>
</linearGradient>
<linearGradient id="paint7_linear_513_19" x1="217.661" y1="144.269" x2="217.661" y2="208.688" gradientUnits="userSpaceOnUse">
<stop offset="0.0087699" stop-color="#B0BEC5"/>
<stop offset="1" stop-color="#78909C"/>
</linearGradient>
<linearGradient id="paint8_linear_513_19" x1="188.055" y1="211.428" x2="244.387" y2="211.428" gradientUnits="userSpaceOnUse">
<stop offset="0.0091529" stop-color="#BDBDBD"/>
<stop offset="1" stop-color="white"/>
</linearGradient>
<linearGradient id="paint9_linear_513_19" x1="385" y1="60.9369" x2="385" y2="119.951" gradientUnits="userSpaceOnUse">
<stop offset="0.0195" stop-color="#A1887F"/>
<stop offset="0.4458" stop-color="#896C62"/>
<stop offset="1" stop-color="#6D4C41"/>
</linearGradient>
<linearGradient id="paint10_linear_513_19" x1="385.2" y1="56.9189" x2="385.2" y2="114.021" gradientUnits="userSpaceOnUse">
<stop offset="0.0089805" stop-color="#BDBDBD"/>
<stop offset="0.4345" stop-color="#BBBBBB"/>
<stop offset="0.5878" stop-color="#B4B4B4"/>
<stop offset="0.6971" stop-color="#A9A9A9"/>
<stop offset="0.7855" stop-color="#989898"/>
<stop offset="0.8611" stop-color="#828282"/>
<stop offset="0.9281" stop-color="#666666"/>
<stop offset="0.9872" stop-color="#474747"/>
<stop offset="0.9953" stop-color="#424242"/>
</linearGradient>
<linearGradient id="paint11_linear_513_19" x1="385" y1="53.9129" x2="385" y2="111.503" gradientUnits="userSpaceOnUse">
<stop offset="0.0048445" stop-color="#E0E0E0"/>
<stop offset="0.4448" stop-color="#DEDEDE"/>
<stop offset="0.6032" stop-color="#D7D7D7"/>
<stop offset="0.7161" stop-color="#CCCCCC"/>
<stop offset="0.8074" stop-color="#BBBBBB"/>
<stop offset="0.8856" stop-color="#A5A5A5"/>
<stop offset="0.9537" stop-color="#8A8A8A"/>
<stop offset="0.9964" stop-color="#757575"/>
</linearGradient>
<linearGradient id="paint12_linear_513_19" x1="382.107" y1="82.8655" x2="387.893" y2="82.8655" gradientUnits="userSpaceOnUse">
<stop offset="0.0153" stop-color="#757575" stop-opacity="0"/>
<stop offset="0.4739" stop-color="#757575" stop-opacity="0.3718"/>
<stop offset="0.5087" stop-color="#757575" stop-opacity="0.4"/>
<stop offset="0.5688" stop-color="#757575" stop-opacity="0.3511"/>
<stop offset="1" stop-color="#757575" stop-opacity="0"/>
</linearGradient>
<radialGradient id="paint13_radial_513_19" cx="0" cy="0" r="1" gradientUnits="userSpaceOnUse" gradientTransform="translate(63.3204 70.4327) scale(46.384 48.2168)">
<stop stop-color="#FFEE58"/>
<stop offset="0.053" stop-color="#FFEE54"/>
<stop offset="0.3561" stop-color="#FFEC42"/>
<stop offset="0.571" stop-color="#FFEB3B"/>
<stop offset="1" stop-color="#FBC02D"/>
</radialGradient>
<linearGradient id="paint14_linear_513_19" x1="63.7549" y1="117.399" x2="63.7549" y2="66.818" gradientUnits="userSpaceOnUse">
<stop stop-color="#FFCC80"/>
<stop offset="0.0161" stop-color="#FFCC80" stop-opacity="0.9839"/>
<stop offset="1" stop-color="#FFCC80" stop-opacity="0"/>
</linearGradient>
<linearGradient id="paint15_linear_513_19" x1="53.4529" y1="92.5612" x2="38.3965" y2="92.5612" gradientUnits="userSpaceOnUse">
<stop stop-color="#FFCC80"/>
<stop offset="0.0161" stop-color="#FFCC80" stop-opacity="0.9839"/>
<stop offset="1" stop-color="#FFCC80" stop-opacity="0"/>
</linearGradient>
<linearGradient id="paint16_linear_513_19" x1="74.0564" y1="92.5612" x2="89.1123" y2="92.5612" gradientUnits="userSpaceOnUse">
<stop stop-color="#FFCC80"/>
<stop offset="0.0161" stop-color="#FFCC80" stop-opacity="0.9839"/>
<stop offset="1" stop-color="#FFCC80" stop-opacity="0"/>
</linearGradient>
<radialGradient id="paint17_radial_513_19" cx="0" cy="0" r="1" gradientUnits="userSpaceOnUse" gradientTransform="translate(63.6106 52.6696) rotate(90) scale(23.1071 41.8678)">
<stop stop-color="#F44336"/>
<stop offset="0.3423" stop-color="#F04036"/>
<stop offset="0.6613" stop-color="#E53935"/>
<stop offset="1" stop-color="#D32F2F"/>
</radialGradient>
<radialGradient id="paint18_radial_513_19" cx="0" cy="0" r="1" gradientUnits="userSpaceOnUse" gradientTransform="translate(63.755 46.3471) scale(68.531 71.239)">
<stop stop-color="#FFF176"/>
<stop offset="0.0243" stop-color="#FFF172"/>
<stop offset="0.2465" stop-color="#FFEE54"/>
<stop offset="0.4366" stop-color="#FFEC42"/>
<stop offset="0.571" stop-color="#FFEB3B"/>
<stop offset="1" stop-color="#FDD835"/>
</radialGradient>
<radialGradient id="paint19_radial_513_19" cx="0" cy="0" r="1" gradientUnits="userSpaceOnUse" gradientTransform="translate(39.8531 107.593) rotate(90) scale(12.8725 14.3856)">
<stop stop-color="#9CCC65"/>
<stop offset="0.2538" stop-color="#96C760"/>
<stop offset="0.5994" stop-color="#84B851"/>
<stop offset="0.9952" stop-color="#689F38"/>
</radialGradient>
<radialGradient id="paint20_radial_513_19" cx="0" cy="0" r="1" gradientUnits="userSpaceOnUse" gradientTransform="translate(87.5292 106.993) rotate(90) scale(12.8725 14.3856)">
<stop stop-color="#9CCC65"/>
<stop offset="0.2538" stop-color="#96C760"/>
<stop offset="0.5994" stop-color="#84B851"/>
<stop offset="0.9952" stop-color="#689F38"/>
</radialGradient>
<linearGradient id="paint21_linear_513_19" x1="128.255" y1="387.467" x2="128.255" y2="316.451" gradientUnits="userSpaceOnUse">
<stop offset="0.2164" stop-color="#689F38"/>
<stop offset="0.8598" stop-color="#689F38"/>
</linearGradient>
<radialGradient id="paint22_radial_513_19" cx="0" cy="0" r="1" gradientUnits="userSpaceOnUse" gradientTransform="translate(128.028 374.952) scale(37.1345 9.27744)">
<stop offset="0.2274" stop-color="#689F38"/>
<stop offset="0.9046" stop-color="#689F38"/>
</radialGradient>
<linearGradient id="paint23_linear_513_19" x1="128.428" y1="351.596" x2="128.428" y2="369.004" gradientUnits="userSpaceOnUse">
<stop offset="0.2274" stop-color="#689F38"/>
<stop offset="0.9046" stop-color="#689F38"/>
</linearGradient>
</defs>
</svg>
