<svg width="138" height="26" viewBox="0 0 138 26" fill="none" xmlns="http://www.w3.org/2000/svg">
<path d="M4.81688 6.44V12.008H14.4169V15.496H4.81688V21.288H15.1209V25H0.592875V2.728H15.1209V6.44H4.81688ZM32.4216 25L31.7816 22.76C31.0136 23.592 30.1176 24.232 29.0936 24.68C28.091 25.128 27.035 25.352 25.9256 25.352C23.963 25.352 22.4056 24.584 21.2536 23.048C20.123 21.512 19.5576 19.4213 19.5576 16.776C19.5576 13.9813 20.2083 11.8053 21.5096 10.248C22.8323 8.69067 24.6883 7.912 27.0776 7.912C28.6136 7.912 30.043 8.24267 31.3656 8.904V0.872H35.5896V21.288L36.2936 25H32.4216ZM24.0056 16.712C24.0056 18.376 24.2616 19.656 24.7736 20.552C25.2856 21.448 26.043 21.896 27.0456 21.896C28.4536 21.896 29.8936 21.192 31.3656 19.784V11.88C30.1283 11.56 28.9976 11.4 27.9736 11.4C26.6083 11.4 25.6056 11.8373 24.9656 12.712C24.3256 13.5653 24.0056 14.8987 24.0056 16.712ZM52.5704 25L51.9624 22.824C50.8744 23.784 49.9144 24.456 49.0824 24.84C48.2717 25.2027 47.3437 25.384 46.2984 25.384C45.2957 25.384 44.3784 25.1493 43.5464 24.68C42.7357 24.2107 42.0957 23.5707 41.6264 22.76C41.1784 21.928 40.9544 21 40.9544 19.976V8.296H45.1784V17.576C45.1784 18.92 45.3917 19.9333 45.8184 20.616C46.245 21.2987 46.8637 21.64 47.6744 21.64C48.357 21.64 48.997 21.4907 49.5944 21.192C50.1917 20.8933 50.8317 20.4133 51.5144 19.752V8.296H55.7384V21.288L56.4424 25H52.5704ZM61.9991 2.728H66.2231V21.288H75.5991V25H61.9991V2.728ZM81.7456 5.8C81.0203 5.8 80.4016 5.55467 79.8896 5.064C79.3776 4.57333 79.1216 3.93333 79.1216 3.144C79.1216 2.35467 79.3776 1.71467 79.8896 1.224C80.4016 0.733332 81.0203 0.487999 81.7456 0.487999C82.471 0.487999 83.0896 0.733332 83.6016 1.224C84.1136 1.71467 84.3696 2.35467 84.3696 3.144C84.3696 3.93333 84.1136 4.57333 83.6016 5.064C83.0896 5.55467 82.471 5.8 81.7456 5.8ZM83.8576 8.296V25H79.6336V8.328L83.8576 8.296ZM97.8824 7.912C99.269 7.912 100.485 8.27467 101.53 9C102.597 9.72533 103.429 10.76 104.026 12.104C104.624 13.4267 104.922 14.9627 104.922 16.712C104.922 19.4213 104.218 21.544 102.81 23.08C101.424 24.5947 99.525 25.352 97.1144 25.352C96.4104 25.352 95.749 25.2773 95.1304 25.128C94.5117 24.9787 93.8077 24.712 93.0184 24.328V25H88.7944V0.872H93.0184V9.928C94.3624 8.584 95.9837 7.912 97.8824 7.912ZM96.6984 21.8C98.021 21.8 98.981 21.3947 99.5784 20.584C100.176 19.7733 100.474 18.4613 100.474 16.648C100.474 14.92 100.229 13.64 99.7384 12.808C99.2477 11.976 98.4797 11.56 97.4344 11.56C95.941 11.56 94.469 12.2427 93.0184 13.608V21.416C93.5944 21.5867 94.1597 21.6933 94.7144 21.736C95.269 21.7787 95.9304 21.8 96.6984 21.8ZM118.447 7.912V12.072H117.903C116.239 12.072 114.884 12.5307 113.839 13.448V25H109.615V12.008L108.911 8.296H113.135L113.551 10.504C114.255 9.544 114.895 8.872 115.471 8.488C116.047 8.104 116.687 7.912 117.391 7.912H118.447ZM137.116 17.928H125.5C125.67 19.208 126.14 20.1893 126.908 20.872C127.697 21.5547 128.742 21.896 130.044 21.896C131.004 21.896 132.038 21.7253 133.148 21.384C134.278 21.0213 135.324 20.5307 136.284 19.912H136.412V23.336C135.558 23.9973 134.577 24.5093 133.468 24.872C132.38 25.2133 131.228 25.384 130.012 25.384C128.262 25.384 126.737 25.032 125.436 24.328C124.134 23.624 123.132 22.6107 122.428 21.288C121.724 19.9653 121.372 18.4187 121.372 16.648C121.372 14.92 121.702 13.3947 122.364 12.072C123.046 10.7493 123.996 9.72533 125.212 9C126.428 8.27467 127.836 7.912 129.436 7.912C130.993 7.912 132.348 8.264 133.5 8.968C134.673 9.672 135.569 10.6853 136.188 12.008C136.806 13.3307 137.116 14.8773 137.116 16.648V17.928ZM129.436 11.304C128.433 11.304 127.59 11.6347 126.908 12.296C126.246 12.9573 125.798 13.8747 125.564 15.048H132.764C132.593 13.832 132.23 12.904 131.676 12.264C131.121 11.624 130.374 11.304 129.436 11.304Z" fill="#2E7D32"/>
</svg>
