<svg width="304" height="265" viewBox="0 0 304 265" fill="none" xmlns="http://www.w3.org/2000/svg">
<path d="M193.562 149.997C193.562 149.997 187.829 156 173.094 156C158.36 156 152.841 149.997 152.841 149.997V136.921H193.562V149.997Z" fill="url(#paint0_linear_465_16)"/>
<path opacity="0.4" d="M193.562 149.997C193.562 149.997 187.829 156 173.094 156C158.36 156 152.841 149.997 152.841 149.997V136.921H193.562V149.997Z" fill="url(#paint1_linear_465_16)"/>
<path d="M172.666 146.842L141.054 136.972L141 134.988L204.331 134.886V136.921L172.666 146.842Z" fill="#353535"/>
<path opacity="0.5" d="M172.666 146.842L141.054 136.972L141 134.988L204.331 134.886V136.921L172.666 146.842Z" fill="url(#paint2_linear_465_16)"/>
<path d="M172.666 144.858L141.054 134.988L172.666 127L204.385 134.886L172.666 144.858Z" fill="url(#paint3_linear_465_16)"/>
<path d="M203.313 134.377H173.469C172.933 134.377 172.451 134.733 172.398 135.191C172.291 135.802 172.826 136.362 173.416 136.362H201.17C201.759 136.362 202.242 136.819 202.242 137.379V165.362C202.242 165.871 202.617 166.329 203.099 166.43C203.742 166.532 204.331 166.023 204.331 165.464V135.395C204.385 134.835 203.903 134.377 203.313 134.377Z" fill="#FFB300"/>
<path d="M203.313 166.43C202.724 166.43 202.242 165.972 202.242 165.413V135.395C202.242 134.835 202.724 134.377 203.313 134.377C203.903 134.377 204.385 134.835 204.385 135.395V165.464C204.385 166.023 203.903 166.43 203.313 166.43Z" fill="#FFB300"/>
<path d="M202.242 170.959C201.063 170.959 199.027 169.585 199.08 168.465C199.08 168.109 199.348 167.651 199.67 167.295C200.741 166.023 201.759 164.395 201.759 162.767V160.936C201.759 160.376 202.242 159.918 202.831 159.918H203.849C204.438 159.918 204.921 160.376 204.921 160.936C204.921 160.936 205.51 165.667 204.385 168.974C203.581 170.094 203.42 170.959 202.242 170.959Z" fill="#FFB300"/>
<path d="M203.313 161.851C204.526 161.851 205.51 160.917 205.51 159.765C205.51 158.613 204.526 157.679 203.313 157.679C202.1 157.679 201.116 158.613 201.116 159.765C201.116 160.917 202.1 161.851 203.313 161.851Z" fill="#FFB300"/>
<path d="M203.313 166.43C202.724 166.43 202.242 165.972 202.242 165.413V135.395C202.242 134.835 202.724 134.377 203.313 134.377C203.903 134.377 204.385 134.835 204.385 135.395V165.464C204.385 166.023 203.903 166.43 203.313 166.43Z" fill="#FFB300"/>
<path d="M202.242 170.959C201.063 170.959 199.027 169.585 199.08 168.465C199.08 168.109 199.348 167.651 199.67 167.295C200.741 166.023 201.759 164.395 201.759 162.767V160.936C201.759 160.376 202.242 159.918 202.831 159.918H203.849C204.438 159.918 204.921 160.376 204.921 160.936C204.921 160.936 205.51 165.667 204.385 168.974C203.581 170.094 203.42 170.959 202.242 170.959Z" fill="#FFB300"/>
<path d="M203.313 161.851C204.526 161.851 205.51 160.917 205.51 159.765C205.51 158.613 204.526 157.679 203.313 157.679C202.1 157.679 201.116 158.613 201.116 159.765C201.116 160.917 202.1 161.851 203.313 161.851Z" fill="#FFB300"/>
<path d="M172.398 135.395C172.398 134.835 172.88 134.377 173.469 134.377H203.367C203.956 134.377 204.438 134.835 204.438 135.395C204.438 135.955 203.956 136.412 203.367 136.412H173.416C172.88 136.362 172.398 135.955 172.398 135.395Z" fill="#FFCA28"/>
<path d="M173.201 137.125C175.598 137.125 177.541 136.35 177.541 135.395C177.541 134.439 175.598 133.665 173.201 133.665C170.804 133.665 168.861 134.439 168.861 135.395C168.861 136.35 170.804 137.125 173.201 137.125Z" fill="url(#paint4_radial_465_16)"/>
<path d="M274.11 159.583H236.818C233.067 159.583 230 156.773 230 153.336V78.2476C230 74.81 233.067 72 236.818 72H274.102C277.854 72 280.92 74.81 280.92 78.2476V153.328C280.928 156.773 277.862 159.583 274.11 159.583Z" fill="url(#paint5_linear_465_16)"/>
<path opacity="0.2" d="M274.11 74.1896C276.556 74.1896 278.539 76.0142 278.539 78.2476V153.328C278.539 155.569 276.548 157.386 274.11 157.386H236.818C234.373 157.386 232.39 155.562 232.39 153.328V78.2476C232.39 76.0069 234.381 74.1896 236.818 74.1896H274.11ZM274.11 72H236.818C233.067 72 230 74.81 230 78.2476V153.328C230 156.766 233.067 159.576 236.818 159.576H274.102C277.854 159.576 280.92 156.766 280.92 153.328V78.2476C280.928 74.81 277.862 72 274.11 72Z" fill="#EEEEEE"/>
<path d="M273.465 147.927H237.479C236.882 147.927 236.396 147.482 236.396 146.935V84.6558C236.396 84.1084 236.882 83.6632 237.479 83.6632H273.465C274.063 83.6632 274.548 84.1084 274.548 84.6558V146.935C274.548 147.475 274.063 147.927 273.465 147.927Z" fill="url(#paint6_linear_465_16)"/>
<path d="M263.079 79.773H247.85C247.3 79.773 246.854 79.3643 246.854 78.8607C246.854 78.3571 247.3 77.9484 247.85 77.9484H263.079C263.628 77.9484 264.074 78.3571 264.074 78.8607C264.074 79.3643 263.628 79.773 263.079 79.773Z" fill="#212121"/>
<path d="M263.079 153.635H247.85C247.3 153.635 246.854 153.226 246.854 152.723C246.854 152.219 247.3 151.81 247.85 151.81H263.079C263.628 151.81 264.074 152.219 264.074 152.723C264.074 153.219 263.628 153.635 263.079 153.635Z" fill="black"/>
<path d="M270.908 92.4215H240.139C239.837 92.4215 239.598 92.2025 239.598 91.9252V87.13C239.598 86.8527 239.837 86.6337 240.139 86.6337H270.9C271.203 86.6337 271.442 86.8527 271.442 87.13V91.9252C271.45 92.1952 271.203 92.4215 270.908 92.4215Z" fill="#F5F5F5"/>
<path d="M244.138 130.389H241.286C240.323 130.389 239.534 129.674 239.534 128.783V126.17C239.534 125.287 240.315 124.565 241.286 124.565H244.138C245.102 124.565 245.89 125.28 245.89 126.17V128.783C245.89 129.674 245.11 130.389 244.138 130.389Z" fill="#159E5C"/>
<path d="M244.138 139.147H241.286C240.323 139.147 239.534 138.432 239.534 137.542V134.929C239.534 134.045 240.315 133.323 241.286 133.323H244.138C245.102 133.323 245.89 134.038 245.89 134.929V137.542C245.89 138.432 245.11 139.147 244.138 139.147Z" fill="#FB5352"/>
<path d="M252.621 139.147H249.769C248.805 139.147 248.017 138.432 248.017 137.542V134.929C248.017 134.045 248.797 133.323 249.769 133.323H252.621C253.584 133.323 254.373 134.038 254.373 134.929V137.542C254.373 138.432 253.584 139.147 252.621 139.147Z" fill="#4587F5"/>
<path d="M261.35 139.147H258.491C257.527 139.147 256.739 138.432 256.739 137.542V134.929C256.739 134.045 257.519 133.323 258.491 133.323H261.342C262.306 133.323 263.095 134.038 263.095 134.929V137.542C263.103 138.432 262.314 139.147 261.35 139.147Z" fill="#159E5C"/>
<path d="M269.578 139.147H266.727C265.763 139.147 264.974 138.432 264.974 137.542V134.929C264.974 134.045 265.755 133.323 266.727 133.323H269.578C270.542 133.323 271.331 134.038 271.331 134.929V137.542C271.331 138.432 270.542 139.147 269.578 139.147Z" fill="#FECD41"/>
<path d="M252.621 130.389H249.769C248.805 130.389 248.017 129.674 248.017 128.783V126.17C248.017 125.287 248.797 124.565 249.769 124.565H252.621C253.584 124.565 254.373 125.28 254.373 126.17V128.783C254.373 129.674 253.584 130.389 252.621 130.389Z" fill="#FECD41"/>
<path d="M261.35 130.389H258.491C257.527 130.389 256.739 129.674 256.739 128.783V126.17C256.739 125.287 257.519 124.565 258.491 124.565H261.342C262.306 124.565 263.095 125.28 263.095 126.17V128.783C263.103 129.674 262.314 130.389 261.35 130.389Z" fill="#FF6D00"/>
<path d="M269.578 130.389H266.727C265.763 130.389 264.974 129.674 264.974 128.783V126.17C264.974 125.287 265.755 124.565 266.727 124.565H269.578C270.542 124.565 271.331 125.28 271.331 126.17V128.783C271.331 129.674 270.542 130.389 269.578 130.389Z" fill="#DE493C"/>
<path d="M255.464 143.891C256.125 143.891 256.659 144.38 256.659 144.986C256.659 145.592 256.125 146.081 255.464 146.081C254.803 146.081 254.269 145.592 254.269 144.986C254.269 144.38 254.803 143.891 255.464 143.891ZM255.464 143.526C254.588 143.526 253.871 144.183 253.871 144.986C253.871 145.789 254.588 146.446 255.464 146.446C256.34 146.446 257.057 145.789 257.057 144.986C257.057 144.183 256.34 143.526 255.464 143.526Z" fill="white"/>
<path d="M267.531 143.891C267.651 143.891 267.754 143.986 267.754 144.096V145.877C267.754 145.986 267.651 146.081 267.531 146.081H265.588C265.468 146.081 265.365 145.986 265.365 145.877V144.096C265.365 143.986 265.468 143.891 265.588 143.891H267.531ZM267.531 143.526H265.588C265.245 143.526 264.967 143.782 264.967 144.096V145.877C264.967 146.19 265.245 146.446 265.588 146.446H267.531C267.874 146.446 268.153 146.19 268.153 145.877V144.096C268.153 143.782 267.874 143.526 267.531 143.526Z" fill="white"/>
<path d="M245.492 144.052V145.92L243.461 144.986L245.492 144.052ZM245.771 143.526C245.755 143.526 245.739 143.526 245.723 143.541L242.776 144.899C242.688 144.935 242.688 145.044 242.776 145.088L245.723 146.446C245.739 146.453 245.755 146.46 245.771 146.46C245.834 146.46 245.882 146.417 245.882 146.358V143.629C245.89 143.57 245.834 143.526 245.771 143.526Z" fill="white"/>
<path d="M183.068 108.271H128.753C126.682 108.271 125 106.673 125 104.707V50.096C125 48.1301 126.682 46.5324 128.753 46.5324H183.074V108.271H183.068Z" fill="#546E7A"/>
<path d="M187.559 56.926H184.431C183.393 56.926 182.555 56.1302 182.555 55.1443V47.4411C182.555 46.4552 183.393 45.6594 184.431 45.6594H187.559C188.597 45.6594 189.435 46.4552 189.435 47.4411V55.1443C189.435 56.1302 188.597 56.926 187.559 56.926Z" fill="#EC4431"/>
<path d="M187.559 68.953H184.431C183.393 68.953 182.555 68.1571 182.555 67.1712V59.468C182.555 58.4821 183.393 57.6863 184.431 57.6863H187.559C188.597 57.6863 189.435 58.4821 189.435 59.468V67.1712C189.435 68.1512 188.597 68.953 187.559 68.953Z" fill="#FBBE00"/>
<path d="M187.559 80.9739H184.431C183.393 80.9739 182.555 80.1781 182.555 79.1922V71.489C182.555 70.5031 183.393 69.7072 184.431 69.7072H187.559C188.597 69.7072 189.435 70.5031 189.435 71.489V79.1922C189.435 80.1781 188.597 80.9739 187.559 80.9739Z" fill="#2CA94F"/>
<path d="M187.559 93.0008H184.431C183.393 93.0008 182.555 92.205 182.555 91.2191V83.5159C182.555 82.53 183.393 81.7342 184.431 81.7342H187.559C188.597 81.7342 189.435 82.53 189.435 83.5159V91.2191C189.435 92.1991 188.597 93.0008 187.559 93.0008Z" fill="#4480F7"/>
<path d="M185.075 100.633H128.753C126.682 100.633 125 99.0351 125 97.0692V40.5635C125 38.5976 126.682 37 128.753 37H185.075V100.633Z" fill="url(#paint7_linear_465_16)"/>
<path opacity="0.2" d="M183.274 38.7818V45.6594C183.274 46.6453 184.112 47.4411 185.15 47.4411H187.502C187.577 47.4411 187.634 47.5005 187.634 47.5659V55.0136C187.634 55.0849 187.571 55.1384 187.502 55.1384H185.15C184.112 55.1384 183.274 55.9342 183.274 56.9201V57.6803C183.274 58.6662 184.112 59.4621 185.15 59.4621H187.502C187.577 59.4621 187.634 59.5215 187.634 59.5868V67.0346C187.634 67.1059 187.571 67.1593 187.502 67.1593H185.15C184.112 67.1593 183.274 67.9552 183.274 68.9411V69.7013C183.274 70.6872 184.112 71.4831 185.15 71.4831H187.502C187.577 71.4831 187.634 71.5425 187.634 71.6078V79.0556C187.634 79.1268 187.571 79.1803 187.502 79.1803H185.15C184.112 79.1803 183.274 79.9761 183.274 80.9621V81.7223C183.274 82.7082 184.112 83.504 185.15 83.504H187.502C187.577 83.504 187.634 83.5634 187.634 83.6288V91.0765C187.634 91.1478 187.571 91.2013 187.502 91.2013H185.15C184.112 91.2013 183.274 91.9971 183.274 92.983V98.8391H183.149C182.111 98.8391 181.273 99.6349 181.273 100.621V106.489H129.097C127.915 106.489 126.951 105.574 126.951 104.452V40.8189C126.951 39.6964 127.915 38.7818 129.097 38.7818H183.274ZM185.15 37H129.097C126.876 37 125.075 38.7105 125.075 40.8189V104.452C125.075 106.56 126.876 108.271 129.097 108.271H183.149V100.633H185.15V93.0008H187.502C188.616 93.0008 189.51 92.1456 189.51 91.0944V83.6406C189.51 82.5835 188.609 81.7342 187.502 81.7342H185.15V80.9739H187.502C188.616 80.9739 189.51 80.1187 189.51 79.0674V71.6197C189.51 70.5625 188.609 69.7132 187.502 69.7132H185.15V68.953H187.502C188.616 68.953 189.51 68.0977 189.51 67.0465V59.5928C189.51 58.5356 188.609 57.6863 187.502 57.6863H185.15V56.9261H187.502C188.616 56.9261 189.51 56.0708 189.51 55.0196V47.5718C189.51 46.5146 188.609 45.6653 187.502 45.6653H185.15V37Z" fill="#424242"/>
<path d="M169.364 47.2986H140.48C139.836 47.2986 139.411 47.7143 139.411 48.3379V63.9581C139.411 64.5817 139.836 64.9974 140.48 64.9974H169.364C170.008 64.9974 170.433 64.5817 170.433 63.9581V48.3379C170.433 47.7143 170.008 47.2986 169.364 47.2986ZM168.294 62.9187H141.55V49.3832H168.294V62.9187Z" fill="#546E7A"/>
<path d="M150.112 55.6313H159.738C160.382 55.6313 160.808 55.2156 160.808 54.5919C160.808 53.9683 160.382 53.5526 159.738 53.5526H150.112C149.468 53.5526 149.043 53.9683 149.043 54.5919C149.043 55.2096 149.468 55.6313 150.112 55.6313Z" fill="#546E7A"/>
<path d="M146.904 59.7947H162.947C163.591 59.7947 164.016 59.379 164.016 58.7553C164.016 58.1317 163.591 57.716 162.947 57.716H146.904C146.259 57.716 145.834 58.1317 145.834 58.7553C145.834 59.379 146.259 59.7947 146.904 59.7947Z" fill="#546E7A"/>
<path d="M176.813 37V100.633" stroke="#424242" stroke-width="4.17625" stroke-miterlimit="10"/>
<path d="M180.391 106.364H129.766C128.221 106.364 126.951 105.158 126.951 103.691V103.311C126.951 101.844 128.215 100.639 129.766 100.639H180.391V106.364Z" fill="url(#paint8_linear_465_16)"/>
<mask id="mask0_465_16" style="mask-type:luminance" maskUnits="userSpaceOnUse" x="125" y="37" width="61" height="64">
<path d="M185.075 100.633H128.753C126.682 100.633 125 99.0351 125 97.0692V40.5635C125 38.5976 126.682 37 128.753 37H185.075V100.633Z" fill="white"/>
</mask>
<g mask="url(#mask0_465_16)">
<path d="M121.416 34.4521H129.46V110.813H121.416V34.4521Z" fill="#546E7A"/>
</g>
<path d="M240.354 184.604C223.802 180.883 213.986 185.135 210.255 187.376C206.519 185.145 196.692 180.893 180.161 184.604C178.887 184.885 178 185.891 178 187.044V222.456C178 223.232 178.403 223.957 179.102 224.437C179.796 224.916 180.688 225.085 181.548 224.901C193.24 222.395 201.003 224.1 205.384 225.896C205.384 225.896 205.503 228.214 210.405 228.214C215.308 228.214 215.125 225.896 215.125 225.896C219.501 224.1 227.264 222.395 238.957 224.901C239.817 225.085 240.736 224.911 241.419 224.431C242.107 223.962 242.51 223.237 242.51 222.461V187.044C242.51 185.891 241.623 184.885 240.354 184.604Z" fill="url(#paint9_linear_465_16)"/>
<path d="M206.261 224.319C208.002 222.532 212.217 222.486 214.007 224.319C216.652 222.481 222.168 218.612 235.871 221.828C236.634 222.007 237.451 221.838 238.059 221.369C238.672 220.909 239.026 220.205 239.026 219.449V185.018C239.026 183.895 238.242 182.92 237.113 182.644C222.431 179.03 213.722 183.165 210.411 185.339C207.094 183.17 198.374 179.035 183.709 182.644C182.58 182.92 181.79 183.895 181.79 185.018V219.449C181.79 220.205 182.145 220.909 182.768 221.374C183.387 221.838 184.177 222.002 184.94 221.823C198.638 218.612 203.616 222.476 206.261 224.319Z" fill="url(#paint10_linear_465_16)"/>
<path d="M208.9 222.007C209.712 222.619 210.798 222.619 211.604 222.007C214.002 220.174 220.915 216.264 233.344 219.47C234.038 219.648 234.774 219.48 235.328 219.01C235.882 218.551 236.204 217.851 236.204 217.101V182.787C236.204 181.669 235.489 180.694 234.468 180.423C221.152 176.819 213.26 180.939 210.255 183.108C207.25 180.949 199.342 176.824 186.048 180.423C185.021 180.699 184.311 181.669 184.311 182.787V217.101C184.311 217.851 184.634 218.556 185.198 219.02C185.757 219.485 186.478 219.648 187.166 219.47C199.589 216.264 206.503 220.174 208.9 222.007Z" fill="url(#paint11_linear_465_16)"/>
<path opacity="0.2" d="M224.431 180.75C227.447 180.75 230.672 181.209 234.016 182.113C234.269 182.179 234.478 182.465 234.527 182.807C234.618 183.456 235.118 183.981 235.785 184.134L235.914 184.165C236.172 184.221 236.43 184.283 236.693 184.349C236.989 184.42 237.22 184.64 237.312 184.931C237.489 185.482 237.962 185.896 238.553 186.013C239.016 186.105 239.489 186.207 239.967 186.314C240.483 186.427 240.843 186.799 240.843 187.218V222.629C240.843 222.895 240.698 223.15 240.429 223.334C240.214 223.482 239.924 223.569 239.634 223.569C239.526 223.569 239.419 223.558 239.317 223.533C235.29 222.67 231.409 222.231 227.786 222.231C222.802 222.231 218.319 223.033 214.459 224.615C213.851 224.865 213.464 225.427 213.459 226.045C213.384 226.228 212.712 226.805 210.4 226.805C207.916 226.805 207.137 226.147 207.029 225.871C206.954 225.32 206.583 224.84 206.04 224.62C202.18 223.038 197.697 222.236 192.714 222.236C189.085 222.236 185.209 222.675 181.182 223.538C181.075 223.558 180.967 223.574 180.86 223.574C180.575 223.574 180.295 223.492 180.07 223.334C179.801 223.15 179.656 222.9 179.656 222.629V187.213C179.656 186.794 180.016 186.421 180.537 186.309C181.064 186.192 181.623 186.074 182.252 185.952C182.833 185.839 183.306 185.441 183.494 184.905C183.591 184.625 183.822 184.415 184.118 184.344C184.247 184.313 184.37 184.283 184.494 184.257L184.725 184.206C185.403 184.048 185.908 183.501 185.978 182.838C186.015 182.481 186.23 182.184 186.494 182.113C189.827 181.209 193.042 180.755 196.052 180.755C202.949 180.755 207.277 183.124 209.244 184.538C209.54 184.752 209.895 184.859 210.244 184.859C210.599 184.859 210.954 184.752 211.249 184.538C213.217 183.119 217.534 180.75 224.431 180.75ZM224.431 179.173C217.066 179.173 212.405 181.725 210.255 183.282C208.099 181.735 203.428 179.178 196.063 179.178C193.149 179.178 189.816 179.576 186.048 180.597C185.112 180.847 184.446 181.679 184.333 182.675C184.123 182.726 183.919 182.766 183.709 182.823C182.854 183.032 182.199 183.639 181.93 184.41C181.349 184.522 180.763 184.645 180.166 184.778C178.887 185.058 178 186.059 178 187.213V222.624C178 223.4 178.403 224.125 179.102 224.605C179.613 224.957 180.231 225.141 180.86 225.141C181.091 225.141 181.317 225.115 181.548 225.069C185.773 224.166 189.488 223.809 192.714 223.809C198.412 223.809 202.589 224.916 205.379 226.065C205.379 226.065 205.497 228.382 210.4 228.382C215.303 228.382 215.12 226.065 215.12 226.065C217.916 224.916 222.093 223.809 227.786 223.809C231.011 223.809 234.726 224.166 238.951 225.069C239.177 225.115 239.403 225.141 239.634 225.141C240.279 225.141 240.908 224.952 241.419 224.6C242.107 224.13 242.51 223.405 242.51 222.629V187.213C242.51 186.059 241.623 185.053 240.354 184.773C239.865 184.66 239.387 184.563 238.908 184.466C238.65 183.67 237.989 183.032 237.113 182.817C236.795 182.741 236.489 182.669 236.177 182.598C236.043 181.638 235.382 180.837 234.468 180.592C230.688 179.571 227.35 179.173 224.431 179.173Z" fill="#424242"/>
<path d="M190.848 188.351C190.526 188.387 190.289 188.668 190.289 188.999V189.929C190.289 190.117 190.37 190.291 190.504 190.419C190.639 190.546 190.821 190.602 191.009 190.582C195.402 190.026 199.476 190.225 203.11 191.179C203.299 191.23 203.503 191.184 203.664 191.067C203.82 190.944 203.911 190.75 203.911 190.546V189.602C203.911 189.301 203.713 189.04 203.428 188.969C199.595 187.989 195.369 187.785 190.848 188.351Z" fill="#999999"/>
<path d="M190.848 194.64C190.526 194.681 190.289 194.957 190.289 195.293V196.223C190.289 196.411 190.37 196.59 190.504 196.713C190.639 196.835 190.821 196.896 191.01 196.871C195.402 196.314 199.476 196.513 203.111 197.468C203.299 197.519 203.503 197.478 203.664 197.356C203.82 197.233 203.912 197.039 203.912 196.84V195.891C203.912 195.595 203.713 195.329 203.428 195.258C199.6 194.278 195.369 194.073 190.848 194.64Z" fill="#999999"/>
<path d="M190.848 200.929C190.526 200.975 190.289 201.251 190.289 201.583V202.512C190.289 202.7 190.37 202.879 190.504 203.002C190.639 203.124 190.821 203.185 191.01 203.16C195.402 202.598 199.476 202.803 203.111 203.762C203.299 203.808 203.503 203.767 203.664 203.645C203.82 203.517 203.912 203.328 203.912 203.129V202.18C203.912 201.884 203.713 201.618 203.428 201.547C199.595 200.572 195.369 200.362 190.848 200.929Z" fill="#999999"/>
<path d="M190.848 207.218C190.526 207.259 190.289 207.54 190.289 207.866V208.796C190.289 208.984 190.37 209.163 190.504 209.291C190.639 209.418 190.821 209.469 191.01 209.449C195.402 208.887 199.476 209.087 203.111 210.046C203.299 210.097 203.503 210.056 203.664 209.924C203.82 209.801 203.912 209.612 203.912 209.408V208.459C203.912 208.157 203.713 207.897 203.428 207.826C199.6 206.856 195.369 206.652 190.848 207.218Z" fill="#999999"/>
<path d="M217.249 188.958C216.964 189.03 216.765 189.29 216.765 189.591V190.536C216.765 190.74 216.856 190.934 217.012 191.057C217.168 191.179 217.373 191.225 217.566 191.169C221.206 190.214 225.28 190.015 229.667 190.572C229.85 190.592 230.033 190.536 230.172 190.408C230.312 190.286 230.387 190.107 230.387 189.918V188.989C230.387 188.657 230.151 188.377 229.828 188.341C225.302 187.784 221.071 187.989 217.249 188.958Z" fill="#999999"/>
<path d="M217.249 195.248C216.964 195.319 216.765 195.584 216.765 195.881V196.83C216.765 197.034 216.856 197.223 217.012 197.346C217.168 197.468 217.373 197.509 217.566 197.458C221.206 196.503 225.275 196.304 229.667 196.861C229.85 196.886 230.033 196.825 230.172 196.702C230.312 196.58 230.387 196.396 230.387 196.212V195.283C230.387 194.946 230.151 194.671 229.828 194.63C225.297 194.073 221.066 194.283 217.249 195.248Z" fill="#999999"/>
<path d="M217.249 201.537C216.964 201.608 216.765 201.873 216.765 202.17V203.119C216.765 203.318 216.856 203.512 217.012 203.635C217.168 203.757 217.373 203.798 217.566 203.752C221.206 202.792 225.28 202.593 229.667 203.15C229.85 203.175 230.033 203.114 230.172 202.991C230.312 202.869 230.387 202.685 230.387 202.501V201.577C230.387 201.246 230.151 200.97 229.828 200.924C225.302 200.362 221.071 200.572 217.249 201.537Z" fill="#999999"/>
<path d="M217.249 207.831C216.964 207.902 216.765 208.163 216.765 208.464V209.408C216.765 209.612 216.856 209.801 217.012 209.924C217.168 210.051 217.373 210.097 217.566 210.046C221.206 209.086 225.275 208.887 229.667 209.449C229.85 209.469 230.033 209.418 230.172 209.291C230.312 209.163 230.387 208.984 230.387 208.796V207.866C230.387 207.54 230.151 207.259 229.828 207.218C225.297 206.652 221.066 206.856 217.249 207.831Z" fill="#999999"/>
<mask id="mask1_465_16" style="mask-type:luminance" maskUnits="userSpaceOnUse" x="178" y="179" width="65" height="51">
<path d="M240.354 184.604C239.865 184.492 239.387 184.395 238.908 184.298C238.65 183.501 237.989 182.863 237.113 182.649C236.795 182.572 236.489 182.501 236.177 182.429C236.043 181.47 235.382 180.668 234.468 180.423C221.152 176.819 213.26 180.939 210.255 183.108C207.25 180.949 199.342 176.824 186.048 180.423C185.112 180.673 184.446 181.506 184.333 182.501C184.123 182.552 183.919 182.593 183.709 182.649C182.854 182.858 182.199 183.466 181.93 184.237C181.349 184.349 180.763 184.471 180.166 184.604C178.887 184.885 178 185.891 178 187.044V222.456C178 223.232 178.403 223.957 179.102 224.437C179.796 224.916 180.688 225.085 181.548 224.901C193.24 222.395 201.003 223.901 205.384 225.697L205.083 227.581C204.938 228.398 205.411 229.179 206.056 229.179H214.453C215.093 229.179 215.572 228.398 215.427 227.581L215.125 225.896C219.501 224.1 227.264 222.395 238.957 224.901C239.817 225.085 240.736 224.911 241.419 224.431C242.107 223.962 242.51 223.237 242.51 222.461V187.044C242.51 185.891 241.623 184.885 240.354 184.604Z" fill="white"/>
</mask>
<g mask="url(#mask1_465_16)">
<path d="M224.571 178.718H231.059V192.338L228.581 189.387C228.372 189.137 228.092 189.01 227.818 189.01C227.544 189.01 227.264 189.137 227.054 189.387L224.576 192.338V178.718H224.571Z" fill="#ED1C24"/>
</g>
<mask id="mask2_465_16" style="mask-type:luminance" maskUnits="userSpaceOnUse" x="178" y="179" width="65" height="51">
<path d="M240.354 184.604C239.865 184.492 239.387 184.395 238.908 184.298C238.65 183.501 237.989 182.863 237.113 182.649C236.795 182.572 236.489 182.501 236.177 182.429C236.043 181.47 235.382 180.668 234.468 180.423C221.152 176.819 213.26 180.939 210.255 183.108C207.25 180.949 199.342 176.824 186.048 180.423C185.112 180.673 184.446 181.506 184.333 182.501C184.123 182.552 183.919 182.593 183.709 182.649C182.854 182.858 182.199 183.466 181.93 184.237C181.349 184.349 180.763 184.471 180.166 184.604C178.887 184.885 178 185.891 178 187.044V222.456C178 223.232 178.403 223.957 179.102 224.437C179.796 224.916 180.688 225.085 181.548 224.901C193.24 222.395 201.003 223.901 205.384 225.697L205.083 227.581C204.938 228.398 205.411 229.179 206.056 229.179H214.453C215.093 229.179 215.572 228.398 215.427 227.581L215.125 225.896C219.501 224.1 227.264 222.395 238.957 224.901C239.817 225.085 240.736 224.911 241.419 224.431C242.107 223.962 242.51 223.237 242.51 222.461V187.044C242.51 185.891 241.623 184.885 240.354 184.604Z" fill="white"/>
</mask>
<g mask="url(#mask2_465_16)">
<path d="M208.083 178.999H212.421V222.961H208.083V178.999Z" fill="url(#paint12_linear_465_16)"/>
</g>
<path d="M76.1503 168.38H136.36V207.176H76.1503V168.38Z" fill="url(#paint13_radial_465_16)"/>
<path d="M76.1503 168.38H136.36V207.176H76.1503V168.38Z" fill="url(#paint14_linear_465_16)"/>
<path opacity="0.5" d="M76.1503 168.38H94.998V207.176H76.1503V168.38Z" fill="url(#paint15_linear_465_16)"/>
<path opacity="0.5" d="M117.512 207.176H136.36V168.38H117.512V207.176Z" fill="url(#paint16_linear_465_16)"/>
<path opacity="0.2" d="M134.747 169.911V208.707H136.36C136.655 208.707 136.897 208.937 136.897 209.218V209.728H75.6127V209.218C75.6127 208.937 75.8547 208.707 76.1503 208.707H77.7631V169.911H134.747ZM136.36 168.38H76.1503V207.176C74.9623 207.176 74 208.09 74 209.218V211.26H138.51V209.218C138.51 208.09 137.548 207.176 136.36 207.176V168.38Z" fill="#424242"/>
<path d="M137.29 170.422H75.2203C74.5752 170.422 74.0753 169.886 74.1559 169.273L77.8813 155.618C78.1286 154.719 78.9834 154.086 79.9618 154.086H132.543C133.521 154.086 134.376 154.714 134.623 155.618L138.354 169.278C138.44 169.886 137.94 170.422 137.29 170.422Z" fill="url(#paint17_radial_465_16)"/>
<path opacity="0.2" d="M132.548 155.618C132.795 155.618 133.005 155.776 133.07 156.001L136.585 168.89H75.9245L79.4457 156.001C79.5048 155.776 79.7199 155.618 79.9672 155.618H132.548ZM132.548 154.086H79.9618C78.9834 154.086 78.1286 154.714 77.8813 155.618L74.1505 169.273C74.0699 169.886 74.5698 170.422 75.2203 170.422H137.295C137.94 170.422 138.44 169.886 138.359 169.273L134.629 155.618C134.381 154.714 133.527 154.086 132.548 154.086Z" fill="#424242"/>
<path d="M106.255 150.003L93.353 162.254V207.176H119.157V162.254L106.255 150.003Z" fill="url(#paint18_radial_465_16)"/>
<path d="M102.492 196.966H110.018V207.176H102.492V196.966Z" fill="#4FC3F7"/>
<path d="M101.954 196.966H103.029V207.176H101.954V196.966Z" fill="#EEEEEE"/>
<path d="M109.48 196.966H110.556V207.176H109.48V196.966Z" fill="#EEEEEE"/>
<path d="M83.2572 173.995H88.5792V184.204H83.2572V173.995Z" fill="#4FC3F7"/>
<path d="M89.0523 173.484H82.6013V184.715H89.0523V173.484ZM88.0094 183.694H83.7087V179.61H88.0094V183.694ZM88.0094 178.589H83.7087V174.505H88.0094V178.589Z" fill="#EEEEEE"/>
<path d="M89.5899 184.715H82.0637C81.9132 184.715 81.7949 184.603 81.7949 184.46V183.949C81.7949 183.806 81.9132 183.694 82.0637 183.694H89.5899C89.7404 183.694 89.8587 183.806 89.8587 183.949V184.46C89.8587 184.603 89.7404 184.715 89.5899 184.715Z" fill="#EEEEEE"/>
<path d="M89.5899 174.505H82.0637C81.9132 174.505 81.795 174.393 81.795 174.25V173.74C81.795 173.597 81.9132 173.484 82.0637 173.484H89.5899C89.7404 173.484 89.8587 173.597 89.8587 173.74V174.25C89.8587 174.393 89.7404 174.505 89.5899 174.505Z" fill="#EEEEEE"/>
<path d="M96.9655 179.1H102.288V189.309H96.9655V179.1Z" fill="#4FC3F7"/>
<path d="M102.761 178.589H96.3097V189.82H102.761V178.589ZM101.718 188.799H97.4171V184.715H101.718V188.799ZM101.718 183.694H97.4171V179.61H101.718V183.694Z" fill="#EEEEEE"/>
<path d="M103.298 189.82H95.7721C95.6216 189.82 95.5033 189.707 95.5033 189.564V189.054C95.5033 188.911 95.6216 188.799 95.7721 188.799H103.298C103.449 188.799 103.567 188.911 103.567 189.054V189.564C103.567 189.707 103.449 189.82 103.298 189.82Z" fill="#EEEEEE"/>
<path d="M103.298 179.61H95.7721C95.6216 179.61 95.5033 179.498 95.5033 179.355V178.844C95.5033 178.701 95.6216 178.589 95.7721 178.589H103.298C103.449 178.589 103.567 178.701 103.567 178.844V179.355C103.567 179.498 103.449 179.61 103.298 179.61Z" fill="#EEEEEE"/>
<path d="M109.868 179.1H115.19V189.309H109.868V179.1Z" fill="#4FC3F7"/>
<path d="M115.663 178.589H109.212V189.82H115.663V178.589ZM114.62 188.799H110.319V184.715H114.62V188.799ZM114.62 183.694H110.319V179.61H114.62V183.694Z" fill="#EEEEEE"/>
<path d="M116.2 189.82H108.674C108.524 189.82 108.405 189.707 108.405 189.564V189.054C108.405 188.911 108.524 188.799 108.674 188.799H116.2C116.351 188.799 116.469 188.911 116.469 189.054V189.564C116.469 189.707 116.351 189.82 116.2 189.82Z" fill="#EEEEEE"/>
<path d="M116.2 179.61H108.674C108.524 179.61 108.405 179.498 108.405 179.355V178.844C108.405 178.701 108.524 178.589 108.674 178.589H116.2C116.351 178.589 116.469 178.701 116.469 178.844V179.355C116.469 179.498 116.351 179.61 116.2 179.61Z" fill="#EEEEEE"/>
<path d="M83.2572 189.309H88.5792V199.519H83.2572V189.309Z" fill="#4FC3F7"/>
<path d="M89.0523 188.799H82.6013V200.029H89.0523V188.799ZM88.0094 199.008H83.7087V194.924H88.0094V199.008ZM88.0094 193.903H83.7087V189.82H88.0094V193.903Z" fill="#EEEEEE"/>
<path d="M89.5899 200.029H82.0637C81.9132 200.029 81.795 199.917 81.795 199.774V199.263C81.795 199.12 81.9132 199.008 82.0637 199.008H89.5899C89.7404 199.008 89.8587 199.12 89.8587 199.263V199.774C89.8587 199.917 89.7404 200.029 89.5899 200.029Z" fill="#EEEEEE"/>
<path d="M89.5899 189.82H82.0637C81.9132 189.82 81.795 189.707 81.795 189.564V189.054C81.795 188.911 81.9132 188.799 82.0637 188.799H89.5899C89.7404 188.799 89.8587 188.911 89.8587 189.054V189.564C89.8587 189.707 89.7404 189.82 89.5899 189.82Z" fill="#EEEEEE"/>
<path d="M124.135 173.995H129.457V184.204H124.135V173.995Z" fill="#4FC3F7"/>
<path d="M129.93 173.484H123.479V184.715H129.93V173.484ZM128.887 183.694H124.587V179.61H128.887V183.694ZM128.887 178.589H124.587V174.505H128.887V178.589Z" fill="#EEEEEE"/>
<path d="M130.468 184.715H122.942C122.791 184.715 122.673 184.603 122.673 184.46V183.949C122.673 183.806 122.791 183.694 122.942 183.694H130.468C130.618 183.694 130.737 183.806 130.737 183.949V184.46C130.737 184.603 130.618 184.715 130.468 184.715Z" fill="#EEEEEE"/>
<path d="M130.468 174.505H122.942C122.791 174.505 122.673 174.393 122.673 174.25V173.74C122.673 173.597 122.791 173.484 122.942 173.484H130.468C130.618 173.484 130.737 173.597 130.737 173.74V174.25C130.737 174.393 130.618 174.505 130.468 174.505Z" fill="#EEEEEE"/>
<path d="M124.135 189.309H129.457V199.519H124.135V189.309Z" fill="#4FC3F7"/>
<path d="M129.93 188.799H123.479V200.029H129.93V188.799ZM128.887 199.008H124.587V194.924H128.887V199.008ZM128.887 193.903H124.587V189.82H128.887V193.903Z" fill="#EEEEEE"/>
<path d="M130.468 200.029H122.942C122.791 200.029 122.673 199.917 122.673 199.774V199.263C122.673 199.12 122.791 199.008 122.942 199.008H130.468C130.618 199.008 130.737 199.12 130.737 199.263V199.774C130.737 199.917 130.618 200.029 130.468 200.029Z" fill="#EEEEEE"/>
<path d="M130.468 189.82H122.942C122.791 189.82 122.673 189.707 122.673 189.564V189.054C122.673 188.911 122.791 188.799 122.942 188.799H130.468C130.618 188.799 130.737 188.911 130.737 189.054V189.564C130.737 189.707 130.618 189.82 130.468 189.82Z" fill="#EEEEEE"/>
<path d="M106.255 176.195C101.809 176.195 98.1912 172.76 98.1912 168.538C98.1912 164.316 101.809 160.881 106.255 160.881C110.701 160.881 114.319 164.316 114.319 168.538C114.319 172.765 110.701 176.195 106.255 176.195Z" fill="#E0E0E0"/>
<path d="M106.255 161.391C110.41 161.391 113.781 164.592 113.781 168.538C113.781 172.484 110.41 175.685 106.255 175.685C102.099 175.685 98.7288 172.484 98.7288 168.538C98.7288 164.592 102.099 161.391 106.255 161.391ZM106.255 160.37C101.513 160.37 97.6536 164.036 97.6536 168.538C97.6536 173.04 101.513 176.706 106.255 176.706C110.996 176.706 114.856 173.04 114.856 168.538C114.856 164.036 110.996 160.37 106.255 160.37Z" fill="#AAA19F"/>
<path d="M113.244 168.543C113.244 172.208 110.115 175.179 106.255 175.179C102.395 175.179 99.2664 172.208 99.2664 168.543C99.2664 164.878 102.395 161.907 106.255 161.907C110.115 161.902 113.244 164.873 113.244 168.543Z" fill="#EEEEEE"/>
<path d="M106.793 163.969C106.793 164.25 106.551 164.48 106.255 164.48C105.959 164.48 105.717 164.25 105.717 163.969C105.717 163.688 105.959 163.459 106.255 163.459C106.556 163.459 106.793 163.688 106.793 163.969Z" fill="#9E9E9E"/>
<path d="M110.066 165.649C109.857 165.848 109.518 165.848 109.308 165.649C109.099 165.45 109.099 165.123 109.308 164.924C109.518 164.725 109.857 164.725 110.066 164.924C110.276 165.123 110.276 165.45 110.066 165.649Z" fill="#9E9E9E"/>
<path d="M111.125 169.028C110.83 169.028 110.588 168.798 110.588 168.517C110.588 168.237 110.83 168.007 111.125 168.007C111.421 168.007 111.663 168.237 111.663 168.517C111.663 168.798 111.421 169.028 111.125 169.028Z" fill="#9E9E9E"/>
<path d="M109.357 172.137C109.147 171.938 109.147 171.616 109.357 171.412C109.566 171.213 109.911 171.213 110.12 171.412C110.33 171.611 110.33 171.938 110.12 172.137C109.905 172.336 109.566 172.336 109.357 172.137Z" fill="#9E9E9E"/>
<path d="M105.798 173.142C105.798 172.862 106.04 172.632 106.336 172.632C106.631 172.632 106.873 172.862 106.873 173.142C106.873 173.423 106.631 173.653 106.336 173.653C106.035 173.653 105.793 173.423 105.798 173.142Z" fill="#9E9E9E"/>
<path d="M102.524 171.463C102.734 171.264 103.072 171.264 103.282 171.463C103.492 171.662 103.492 171.984 103.282 172.183C103.072 172.382 102.728 172.382 102.524 172.183C102.314 171.984 102.314 171.662 102.524 171.463Z" fill="#9E9E9E"/>
<path d="M101.465 168.078C101.761 168.078 102.003 168.303 102.003 168.589C102.003 168.87 101.761 169.099 101.465 169.099C101.169 169.099 100.928 168.87 100.928 168.589C100.928 168.308 101.169 168.078 101.465 168.078Z" fill="#9E9E9E"/>
<path d="M103.234 164.975C103.443 165.174 103.443 165.495 103.234 165.7C103.024 165.899 102.68 165.899 102.47 165.7C102.261 165.501 102.261 165.179 102.47 164.975C102.68 164.776 103.024 164.776 103.234 164.975Z" fill="#9E9E9E"/>
<path d="M106.282 169.518C106.87 169.518 107.346 169.065 107.346 168.507C107.346 167.949 106.87 167.497 106.282 167.497C105.694 167.497 105.217 167.949 105.217 168.507C105.217 169.065 105.694 169.518 106.282 169.518Z" fill="#616161"/>
<path d="M106.33 168.819C105.938 168.819 105.621 168.517 105.621 168.145V164.071C105.621 163.699 105.938 163.397 106.33 163.397C106.723 163.397 107.04 163.699 107.04 164.071V168.145C107.04 168.517 106.723 168.819 106.33 168.819Z" fill="#616161"/>
<path d="M106.535 168.206C106.814 168.472 106.814 168.895 106.535 169.161L104.755 170.85C104.476 171.116 104.029 171.116 103.75 170.85C103.47 170.585 103.47 170.161 103.75 169.896L105.529 168.206C105.809 167.946 106.26 167.946 106.535 168.206Z" fill="#616161"/>
<path d="M76.1772 208.518C75.5697 207.824 75.2795 206.946 75.3547 206.037C75.473 204.562 76.6234 203.281 78.1555 202.929C78.4351 202.862 78.7254 202.832 79.0103 202.832C79.2361 202.832 79.4672 202.852 79.6984 202.893C79.7306 202.898 79.7629 202.903 79.8005 202.903C80.0371 202.903 80.2467 202.755 80.3166 202.536C80.7682 201.06 82.2143 200.029 83.8324 200.029C85.1065 200.029 86.273 200.647 86.945 201.673C87.0471 201.826 87.2192 201.913 87.4019 201.913C87.445 201.913 87.488 201.908 87.531 201.897C87.8159 201.831 88.1116 201.795 88.4019 201.795C88.6223 201.795 88.848 201.816 89.0685 201.852C90.6382 202.122 91.8908 203.383 92.0413 204.848C92.0897 205.323 91.9983 205.792 91.7725 206.165C91.6542 206.369 91.6757 206.645 91.8531 206.808C92.2026 207.14 92.2187 207.707 92.052 208.095C91.9983 208.222 91.837 208.513 91.5628 208.513H76.1772V208.518Z" fill="url(#paint19_radial_465_16)"/>
<path d="M83.827 200.54C84.9129 200.54 85.9075 201.065 86.4827 201.943C86.6816 202.25 87.031 202.423 87.3966 202.423C87.4826 202.423 87.5686 202.413 87.6546 202.393C87.9019 202.336 88.1492 202.306 88.4018 202.306C88.59 202.306 88.7835 202.321 88.9717 202.357C90.3103 202.587 91.3801 203.659 91.5091 204.899C91.5467 205.272 91.4768 205.634 91.3102 205.92C91.0037 206.436 91.208 206.915 91.4714 207.166C91.579 207.268 91.6327 207.441 91.622 207.635C91.6112 207.824 91.5413 207.952 91.4983 208.003H76.446C76.0321 207.441 75.8385 206.767 75.8923 206.068C75.9944 204.807 76.9782 203.72 78.2845 203.419C78.5264 203.363 78.7684 203.337 79.0103 203.337C79.2038 203.337 79.4027 203.352 79.5962 203.388C79.6661 203.398 79.7306 203.408 79.7951 203.408C80.2628 203.408 80.6929 203.118 80.8273 202.673C81.2144 201.418 82.4508 200.54 83.827 200.54ZM83.827 199.519C81.9132 199.519 80.3005 200.734 79.7951 202.388C79.5425 202.342 79.2791 202.316 79.0103 202.316C78.6931 202.316 78.3652 202.352 78.0265 202.428C76.2686 202.837 74.9569 204.281 74.8171 205.991C74.7204 207.166 75.1666 208.243 75.9353 209.024H91.5628C92.6326 209.024 93.1272 207.293 92.2294 206.446C92.2241 206.441 92.681 205.813 92.5735 204.802C92.3961 203.077 90.9554 201.663 89.1598 201.351C88.9018 201.305 88.6491 201.285 88.4018 201.285C88.0578 201.285 87.7191 201.326 87.4019 201.402C86.6601 200.274 85.3376 199.519 83.827 199.519Z" fill="#689F38"/>
<path d="M87.961 204.006C87.961 204.006 87.9987 202.913 87.074 201.744" stroke="#689F38" stroke-width="1.43579" stroke-miterlimit="10" stroke-linecap="round" stroke-linejoin="round"/>
<path d="M79.865 202.847C80.951 202.862 82.0154 203.674 82.1766 204.669" stroke="#689F38" stroke-width="1.43579" stroke-miterlimit="10" stroke-linecap="round" stroke-linejoin="round"/>
<path d="M80.9832 205.124C81.9401 204.71 83.2249 204.777 84.2141 205.256" stroke="#689F38" stroke-width="1.43579" stroke-miterlimit="10" stroke-linecap="round" stroke-linejoin="round"/>
<path d="M120.829 208.008C120.549 208.008 120.393 207.717 120.34 207.589C120.173 207.206 120.189 206.635 120.544 206.298C120.716 206.134 120.737 205.859 120.619 205.66C120.399 205.287 120.302 204.817 120.35 204.343C120.501 202.878 121.753 201.617 123.323 201.346C123.544 201.31 123.769 201.29 123.99 201.29C124.28 201.29 124.576 201.326 124.861 201.392C124.904 201.402 124.947 201.407 124.99 201.407C125.173 201.407 125.345 201.321 125.447 201.167C126.124 200.136 127.285 199.524 128.559 199.524C130.177 199.524 131.624 200.555 132.075 202.03C132.145 202.25 132.355 202.398 132.591 202.398C132.623 202.398 132.656 202.393 132.693 202.388C132.924 202.347 133.156 202.326 133.381 202.326C133.666 202.326 133.957 202.357 134.236 202.423C135.768 202.775 136.919 204.057 137.037 205.532C137.112 206.446 136.817 207.319 136.214 208.013H120.829V208.008Z" fill="url(#paint20_radial_465_16)"/>
<path d="M128.559 200.029C129.941 200.029 131.172 200.907 131.559 202.168C131.693 202.612 132.123 202.903 132.591 202.903C132.656 202.903 132.726 202.898 132.79 202.883C132.984 202.847 133.182 202.832 133.376 202.832C133.618 202.832 133.865 202.862 134.102 202.913C135.408 203.214 136.392 204.307 136.494 205.563C136.548 206.262 136.354 206.936 135.94 207.497H120.888C120.845 207.441 120.78 207.314 120.764 207.13C120.754 206.936 120.807 206.762 120.909 206.66C121.178 206.41 121.383 205.93 121.076 205.41C120.909 205.124 120.84 204.761 120.877 204.389C121.006 203.143 122.071 202.076 123.415 201.846C123.603 201.816 123.796 201.795 123.984 201.795C124.237 201.795 124.484 201.826 124.732 201.882C124.818 201.903 124.904 201.913 124.99 201.913C125.355 201.913 125.705 201.734 125.904 201.433C126.479 200.555 127.473 200.029 128.559 200.029ZM128.559 199.008C127.054 199.008 125.732 199.764 124.99 200.897C124.667 200.82 124.334 200.78 123.99 200.78C123.743 200.78 123.49 200.8 123.232 200.846C121.431 201.152 119.996 202.566 119.818 204.297C119.711 205.313 120.173 205.935 120.162 205.94C119.264 206.793 119.759 208.518 120.829 208.518H136.456C137.225 207.737 137.666 206.66 137.575 205.486C137.435 203.776 136.123 202.326 134.365 201.923C134.032 201.846 133.704 201.811 133.381 201.811C133.113 201.811 132.849 201.836 132.597 201.882C132.086 200.223 130.473 199.008 128.559 199.008Z" fill="#689F38"/>
<path d="M124.431 203.495C124.431 203.495 124.393 202.403 125.318 201.234" stroke="#689F38" stroke-width="1.43579" stroke-miterlimit="10" stroke-linecap="round" stroke-linejoin="round"/>
<path d="M132.527 202.336C131.441 202.352 130.376 203.163 130.215 204.159" stroke="#689F38" stroke-width="1.43579" stroke-miterlimit="10" stroke-linecap="round" stroke-linejoin="round"/>
<path d="M131.408 204.613C130.452 204.2 129.167 204.266 128.178 204.746" stroke="#689F38" stroke-width="1.43579" stroke-miterlimit="10" stroke-linecap="round" stroke-linejoin="round"/>
<path d="M138.51 211.26H74V209.218C74 208.09 74.9623 207.176 76.1503 207.176H136.36C137.548 207.176 138.51 208.09 138.51 209.218V211.26Z" fill="#78909C"/>
<path d="M110.583 196.966H101.927C101.347 196.966 100.879 196.522 100.879 195.971V195.92C100.879 195.368 101.347 194.924 101.927 194.924H110.583C111.163 194.924 111.631 195.368 111.631 195.92V195.971C111.631 196.522 111.163 196.966 110.583 196.966Z" fill="#EEEEEE"/>
<path opacity="0.2" d="M136.36 207.176H136.155V208.707H136.36C136.655 208.707 136.897 208.937 136.897 209.218V209.728H75.6127V209.218C75.6127 208.983 75.7848 208.789 76.0159 208.733V207.186C74.8924 207.257 74 208.135 74 209.218V211.26H138.51V209.218C138.51 208.09 137.548 207.176 136.36 207.176Z" fill="#424242"/>
<path d="M121.307 166.338C121.033 166.338 120.759 166.236 120.549 166.037L106.255 152.468L91.9606 166.037C91.5413 166.435 90.8586 166.435 90.4393 166.037C90.02 165.638 90.02 164.99 90.4393 164.592L105.492 150.299C105.911 149.9 106.594 149.9 107.013 150.299L122.065 164.592C122.485 164.99 122.485 165.638 122.065 166.037C121.856 166.236 121.581 166.338 121.307 166.338Z" fill="#C62828"/>
<path d="M67.2897 56C58.8874 56 52.0128 62.3961 52.0128 70.2428V72.4847C52.0128 74.9244 53.5405 76.9026 56.5959 77.1004V70.2428C56.5959 64.7698 61.3873 60.286 67.2897 60.286C73.1921 60.286 77.9835 64.7698 77.9835 70.2428V77.1004C80.275 76.9685 82.5665 74.9244 82.5665 72.4847V70.2428C82.5665 62.3961 75.692 56 67.2897 56Z" fill="#689F38"/>
<path d="M79.6501 117.982H54.9988C53.4711 117.982 52.1517 116.795 52.1517 115.279V114.817C52.1517 113.367 53.4017 112.114 54.9988 112.114H79.7195C81.2472 112.114 82.5665 113.301 82.5665 114.817V115.345C82.4971 116.795 81.2472 117.982 79.6501 117.982Z" fill="#29B6F6"/>
<path d="M41.4579 135.126H93.052C96.5934 135.126 99.5099 132.555 99.5099 129.456V93.3872C99.5099 76.5069 85.0664 64.1104 67.2897 64.1104C49.513 64.1104 35 76.441 35 93.3872V129.456C35 132.555 37.9165 135.126 41.4579 135.126Z" fill="url(#paint21_linear_465_16)"/>
<path d="M84.6497 128.928H50.0685C46.2493 128.928 43.1245 125.961 43.1245 122.334V102.487C43.1245 101.366 44.0272 100.509 45.2077 100.509H89.4411C90.6216 100.509 91.5243 101.366 91.5243 102.487V122.334C91.5938 125.961 88.469 128.928 84.6497 128.928Z" fill="url(#paint22_radial_465_16)"/>
<path d="M74.3726 87.5846H60.3457C57.4292 87.5846 54.9988 85.3427 54.9988 82.5074C54.9988 79.672 57.3597 77.4301 60.3457 77.4301H74.3726C77.2891 77.4301 79.7195 79.672 79.7195 82.5074C79.7195 85.2768 77.2891 87.5846 74.3726 87.5846Z" fill="#FAB300"/>
<path opacity="0.2" d="M67.2897 66.0886C75.4836 66.0886 83.0526 68.858 88.6773 73.8694C94.3714 78.9466 97.4962 85.8702 97.4962 93.3872V129.456C97.4962 131.5 95.5519 133.148 93.1214 133.148H41.4579C39.0275 133.148 37.0832 131.5 37.0832 129.456V93.3872C37.0832 85.8702 40.208 78.8807 45.8327 73.8694C51.5268 68.7921 59.0958 66.0886 67.2897 66.0886ZM67.2897 64.1104C49.513 64.1104 35.0694 76.5069 35.0694 93.3872V129.456C35.0694 132.621 37.9859 135.126 41.5274 135.126H93.052C96.5935 135.126 99.5099 132.555 99.5099 129.456V93.3872C99.5099 76.441 85.0664 64.1104 67.2897 64.1104Z" fill="#424242"/>
<path opacity="0.2" d="M89.5106 101.827C89.9272 101.827 90.205 102.091 90.205 102.487V122.334C90.205 125.236 87.7051 127.609 84.6497 127.609H50.0685C47.0132 127.609 44.5133 125.236 44.5133 122.334V102.487C44.5133 102.091 44.8605 101.827 45.2077 101.827H89.5106ZM89.5106 100.509H45.2077C44.0272 100.509 43.1245 101.366 43.1245 102.487V122.334C43.1245 125.961 46.2493 128.928 50.0685 128.928H84.5803C88.3995 128.928 91.5243 125.961 91.5243 122.334V102.487C91.5938 101.432 90.691 100.509 89.5106 100.509Z" fill="#424242"/>
<path d="M84.7192 115.74H50.138C46.3187 115.74 43.1939 112.114 43.1939 108.487V101.036C43.1939 99.5855 44.4439 98.3986 45.9715 98.3986H88.8856C90.4133 98.3986 91.6632 99.5855 91.6632 101.036V108.487C91.6632 112.114 88.5384 115.74 84.7192 115.74Z" fill="url(#paint23_linear_465_16)"/>
<path opacity="0.2" d="M88.8856 99.7173C89.6494 99.7173 90.2744 100.311 90.2744 101.036V108.487C90.2744 111.916 87.3579 114.422 84.7192 114.422H50.138C47.4992 114.422 44.5827 111.916 44.5827 108.487V101.036C44.5827 100.311 45.2077 99.7173 45.9715 99.7173H88.8856ZM88.8856 98.3986H45.9715C44.4439 98.3986 43.1939 99.5855 43.1939 101.036V108.487C43.1939 112.114 46.3187 115.74 50.138 115.74H84.7192C88.5384 115.74 91.6632 112.114 91.6632 108.487V101.036C91.6632 99.5855 90.4133 98.3986 88.8856 98.3986Z" fill="#424242"/>
<path d="M67.3591 120.884C65.4148 120.884 63.8871 119.433 63.8871 117.587V113.169C63.8871 111.323 65.4148 109.872 67.3591 109.872C69.3035 109.872 70.8311 111.323 70.8311 113.169V117.587C70.8311 119.433 69.3035 120.884 67.3591 120.884Z" fill="#FFEB3B"/>
<path opacity="0.2" d="M67.3591 111.191C68.5396 111.191 69.4423 112.114 69.4423 113.169V117.587C69.4423 118.708 68.4702 119.565 67.3591 119.565C66.2481 119.565 65.2759 118.642 65.2759 117.587V113.169C65.2759 112.048 66.1786 111.191 67.3591 111.191ZM67.3591 109.872C65.4148 109.872 63.8871 111.323 63.8871 113.169V117.587C63.8871 119.433 65.4148 120.884 67.3591 120.884C69.3034 120.884 70.8311 119.433 70.8311 117.587V113.169C70.8311 111.323 69.3034 109.872 67.3591 109.872Z" fill="#424242"/>
<path opacity="0.2" d="M74.3726 79.4082C76.178 79.4082 77.6363 80.793 77.6363 82.5074C77.6363 84.2218 76.178 85.6065 74.3726 85.6065H60.3457C58.5402 85.6065 57.082 84.2218 57.082 82.5074C57.082 80.793 58.5402 79.4082 60.3457 79.4082H74.3726ZM74.3726 77.4301H60.3457C57.4292 77.4301 54.9988 79.672 54.9988 82.5074C54.9988 85.3427 57.3597 87.5846 60.3457 87.5846H74.3726C77.2891 87.5846 79.7195 85.3427 79.7195 82.5074C79.7195 79.672 77.2891 77.4301 74.3726 77.4301Z" fill="#424242"/>
<defs>
<linearGradient id="paint0_linear_465_16" x1="173.201" y1="139.906" x2="173.201" y2="156.865" gradientUnits="userSpaceOnUse">
<stop stop-color="#212121"/>
<stop offset="0.7026" stop-color="#616161"/>
</linearGradient>
<linearGradient id="paint1_linear_465_16" x1="152.77" y1="146.461" x2="193.491" y2="146.461" gradientUnits="userSpaceOnUse">
<stop offset="0.0012001" stop-color="#BFBEBE"/>
<stop offset="0.15" stop-color="#212121" stop-opacity="0"/>
<stop offset="0.8505" stop-color="#212121" stop-opacity="0"/>
<stop offset="1" stop-color="#BFBEBE"/>
</linearGradient>
<linearGradient id="paint2_linear_465_16" x1="141" y1="140.864" x2="204.331" y2="140.864" gradientUnits="userSpaceOnUse">
<stop offset="0.0012001" stop-color="#BFBEBE"/>
<stop offset="0.3" stop-color="#212121" stop-opacity="0"/>
<stop offset="0.7" stop-color="#212121" stop-opacity="0"/>
<stop offset="1" stop-color="#BFBEBE"/>
</linearGradient>
<linearGradient id="paint3_linear_465_16" x1="172.719" y1="118.622" x2="172.719" y2="138.21" gradientUnits="userSpaceOnUse">
<stop stop-color="#9E9E9E"/>
<stop offset="0.7151" stop-color="#616161"/>
</linearGradient>
<radialGradient id="paint4_radial_465_16" cx="0" cy="0" r="1" gradientUnits="userSpaceOnUse" gradientTransform="translate(173.275 134.714) scale(4.62034 1.75275)">
<stop offset="0.3965" stop-color="#757575"/>
<stop offset="0.9968" stop-color="#424242"/>
</radialGradient>
<linearGradient id="paint5_linear_465_16" x1="255.464" y1="159.583" x2="255.464" y2="72" gradientUnits="userSpaceOnUse">
<stop offset="0.0029098" stop-color="#212121"/>
<stop offset="1" stop-color="#4D4D4D"/>
</linearGradient>
<linearGradient id="paint6_linear_465_16" x1="255.47" y1="147.927" x2="255.47" y2="83.6588" gradientUnits="userSpaceOnUse">
<stop offset="0.0085898" stop-color="#9E9E9E"/>
<stop offset="0.9987" stop-color="#616161"/>
</linearGradient>
<linearGradient id="paint7_linear_465_16" x1="155.036" y1="37.2651" x2="155.036" y2="100.793" gradientUnits="userSpaceOnUse">
<stop offset="0.0087699" stop-color="#B0BEC5"/>
<stop offset="1" stop-color="#78909C"/>
</linearGradient>
<linearGradient id="paint8_linear_465_16" x1="126.95" y1="103.495" x2="180.391" y2="103.495" gradientUnits="userSpaceOnUse">
<stop offset="0.0091529" stop-color="#BDBDBD"/>
<stop offset="1" stop-color="white"/>
</linearGradient>
<linearGradient id="paint9_linear_465_16" x1="210.255" y1="184.841" x2="210.255" y2="228.275" gradientUnits="userSpaceOnUse">
<stop offset="0.0195" stop-color="#A1887F"/>
<stop offset="0.4458" stop-color="#896C62"/>
<stop offset="1" stop-color="#6D4C41"/>
</linearGradient>
<linearGradient id="paint10_linear_465_16" x1="210.405" y1="181.884" x2="210.405" y2="223.911" gradientUnits="userSpaceOnUse">
<stop offset="0.0089805" stop-color="#BDBDBD"/>
<stop offset="0.4345" stop-color="#BBBBBB"/>
<stop offset="0.5878" stop-color="#B4B4B4"/>
<stop offset="0.6971" stop-color="#A9A9A9"/>
<stop offset="0.7855" stop-color="#989898"/>
<stop offset="0.8611" stop-color="#828282"/>
<stop offset="0.9281" stop-color="#666666"/>
<stop offset="0.9872" stop-color="#474747"/>
<stop offset="0.9953" stop-color="#424242"/>
</linearGradient>
<linearGradient id="paint11_linear_465_16" x1="210.255" y1="179.672" x2="210.255" y2="222.058" gradientUnits="userSpaceOnUse">
<stop offset="0.0048445" stop-color="#E0E0E0"/>
<stop offset="0.4448" stop-color="#DEDEDE"/>
<stop offset="0.6032" stop-color="#D7D7D7"/>
<stop offset="0.7161" stop-color="#CCCCCC"/>
<stop offset="0.8074" stop-color="#BBBBBB"/>
<stop offset="0.8856" stop-color="#A5A5A5"/>
<stop offset="0.9537" stop-color="#8A8A8A"/>
<stop offset="0.9964" stop-color="#757575"/>
</linearGradient>
<linearGradient id="paint12_linear_465_16" x1="208.085" y1="200.981" x2="212.425" y2="200.981" gradientUnits="userSpaceOnUse">
<stop offset="0.0153" stop-color="#757575" stop-opacity="0"/>
<stop offset="0.4739" stop-color="#757575" stop-opacity="0.3718"/>
<stop offset="0.5087" stop-color="#757575" stop-opacity="0.4"/>
<stop offset="0.5688" stop-color="#757575" stop-opacity="0.3511"/>
<stop offset="1" stop-color="#757575" stop-opacity="0"/>
</linearGradient>
<radialGradient id="paint13_radial_465_16" cx="0" cy="0" r="1" gradientUnits="userSpaceOnUse" gradientTransform="translate(105.852 169.018) scale(43.0475 40.8768)">
<stop stop-color="#FFEE58"/>
<stop offset="0.053" stop-color="#FFEE54"/>
<stop offset="0.3561" stop-color="#FFEC42"/>
<stop offset="0.571" stop-color="#FFEB3B"/>
<stop offset="1" stop-color="#FBC02D"/>
</radialGradient>
<linearGradient id="paint14_linear_465_16" x1="106.255" y1="208.835" x2="106.255" y2="165.953" gradientUnits="userSpaceOnUse">
<stop stop-color="#FFCC80"/>
<stop offset="0.0161" stop-color="#FFCC80" stop-opacity="0.9839"/>
<stop offset="1" stop-color="#FFCC80" stop-opacity="0"/>
</linearGradient>
<linearGradient id="paint15_linear_465_16" x1="96.6941" y1="187.778" x2="82.7207" y2="187.778" gradientUnits="userSpaceOnUse">
<stop stop-color="#FFCC80"/>
<stop offset="0.0161" stop-color="#FFCC80" stop-opacity="0.9839"/>
<stop offset="1" stop-color="#FFCC80" stop-opacity="0"/>
</linearGradient>
<linearGradient id="paint16_linear_465_16" x1="115.815" y1="187.778" x2="129.788" y2="187.778" gradientUnits="userSpaceOnUse">
<stop stop-color="#FFCC80"/>
<stop offset="0.0161" stop-color="#FFCC80" stop-opacity="0.9839"/>
<stop offset="1" stop-color="#FFCC80" stop-opacity="0"/>
</linearGradient>
<radialGradient id="paint17_radial_465_16" cx="0" cy="0" r="1" gradientUnits="userSpaceOnUse" gradientTransform="translate(106.121 153.959) rotate(90) scale(19.5895 38.8561)">
<stop stop-color="#F44336"/>
<stop offset="0.3423" stop-color="#F04036"/>
<stop offset="0.6613" stop-color="#E53935"/>
<stop offset="1" stop-color="#D32F2F"/>
</radialGradient>
<radialGradient id="paint18_radial_465_16" cx="0" cy="0" r="1" gradientUnits="userSpaceOnUse" gradientTransform="translate(106.255 148.599) scale(63.6014 60.3943)">
<stop stop-color="#FFF176"/>
<stop offset="0.0243" stop-color="#FFF172"/>
<stop offset="0.2465" stop-color="#FFEE54"/>
<stop offset="0.4366" stop-color="#FFEC42"/>
<stop offset="0.571" stop-color="#FFEB3B"/>
<stop offset="1" stop-color="#FDD835"/>
</radialGradient>
<radialGradient id="paint19_radial_465_16" cx="0" cy="0" r="1" gradientUnits="userSpaceOnUse" gradientTransform="translate(84.0725 200.521) rotate(90) scale(10.9129 13.3508)">
<stop stop-color="#9CCC65"/>
<stop offset="0.2538" stop-color="#96C760"/>
<stop offset="0.5994" stop-color="#84B851"/>
<stop offset="0.9952" stop-color="#689F38"/>
</radialGradient>
<radialGradient id="paint20_radial_465_16" cx="0" cy="0" r="1" gradientUnits="userSpaceOnUse" gradientTransform="translate(128.319 200.013) rotate(90) scale(10.9129 13.3508)">
<stop stop-color="#9CCC65"/>
<stop offset="0.2538" stop-color="#96C760"/>
<stop offset="0.5994" stop-color="#84B851"/>
<stop offset="0.9952" stop-color="#689F38"/>
</radialGradient>
<linearGradient id="paint21_linear_465_16" x1="67.255" y1="134.467" x2="67.255" y2="63.4511" gradientUnits="userSpaceOnUse">
<stop offset="0.2164" stop-color="#689F38"/>
<stop offset="0.8598" stop-color="#689F38"/>
</linearGradient>
<radialGradient id="paint22_radial_465_16" cx="0" cy="0" r="1" gradientUnits="userSpaceOnUse" gradientTransform="translate(67.0279 121.952) scale(37.1345 9.27744)">
<stop offset="0.2274" stop-color="#689F38"/>
<stop offset="0.9046" stop-color="#689F38"/>
</radialGradient>
<linearGradient id="paint23_linear_465_16" x1="67.4286" y1="98.5964" x2="67.4286" y2="116.004" gradientUnits="userSpaceOnUse">
<stop offset="0.2274" stop-color="#689F38"/>
<stop offset="0.9046" stop-color="#689F38"/>
</linearGradient>
</defs>
</svg>
